<svg width="278" height="45" viewBox="0 0 278 45" fill="none" xmlns="http://www.w3.org/2000/svg">
<path fill-rule="evenodd" clip-rule="evenodd" d="M32.7996 9.53051C32.658 9.69927 32.3739 10.1344 32.1064 9.98885C31.9099 9.88198 31.7667 9.32693 31.6823 9.14191C31.4292 8.58293 31.0918 8.03716 30.5196 7.73985C30.0206 7.47974 29.3546 7.42166 28.8946 7.79326C28.5205 8.09599 28.32 8.61315 28.1934 9.09929C27.9986 9.11947 27.8084 9.16988 27.63 9.24872C27.0332 8.92125 26.3241 8.93907 25.6476 8.95995C25.1025 8.97546 24.5709 9.1922 24.1356 9.50191C23.5355 9.92921 23.0938 10.54 22.7827 11.1958C22.6315 11.5101 22.5058 11.8492 22.5249 12.196C22.544 12.5428 22.7365 12.8997 23.0676 13.0298C23.335 13.1343 23.6884 13.1034 23.8531 13.3341C23.9374 13.4517 23.9422 13.6043 23.9549 13.7475C24.0122 14.4109 24.3624 15.1046 25.0007 15.3438C25.6389 15.5831 26.3479 15.3105 26.8923 14.9219C27.2253 14.6831 27.5228 14.4006 27.7764 14.0827C28.1688 13.5903 28.5723 13.1467 28.76 12.539C28.9391 11.9707 28.9892 11.2779 28.7823 10.7088C28.7823 10.6988 28.7752 10.6887 28.7712 10.6786C28.9005 10.6261 29.0212 10.5555 29.1293 10.4688C29.2214 10.4607 29.3141 10.4635 29.4055 10.4773C29.532 10.499 29.4692 10.4371 29.5439 10.5308C29.6029 10.6082 29.5997 10.7947 29.6124 10.8892C29.6681 11.301 29.6251 11.7408 29.7349 12.1434C29.9275 12.8447 30.9287 13.5252 31.6179 13.0151C32.1478 12.6226 31.6266 11.7369 31.0894 12.1348C30.9661 12.2262 30.779 11.9568 30.7464 11.8724C30.6876 11.723 30.7154 11.5155 30.705 11.3591C30.6812 10.9806 30.6581 10.5617 30.5371 10.1979C30.3167 9.53749 29.762 9.45467 29.1763 9.46702C29.2733 9.00793 29.4596 8.40795 29.9403 8.59302C30.4974 8.80746 30.7122 9.50422 30.9263 9.98654C31.1475 10.4851 31.4563 10.9728 32.0619 11.0355C32.6985 11.1021 33.1713 10.6988 33.5453 10.2521C33.9631 9.7465 33.2254 9.02114 32.7996 9.53051ZM27.786 12.1527C27.7343 12.3361 27.6683 12.5154 27.5886 12.6891C27.4338 13.0545 27.2247 13.3957 26.9679 13.7018C26.5748 14.1493 25.9476 14.5588 25.3261 14.3165C25.1804 14.2591 25.0492 14.1718 24.9416 14.0603C24.8341 13.9488 24.7526 13.8159 24.703 13.6708C24.6328 13.3834 24.5797 13.0924 24.5439 12.7991C24.5376 12.7466 24.5208 12.6959 24.4944 12.6498C24.468 12.6037 24.4325 12.5631 24.3898 12.5304C24.3473 12.4976 24.2985 12.4734 24.2462 12.4591C24.194 12.4447 24.1394 12.4406 24.0855 12.4469C23.9473 12.4625 23.8073 12.4552 23.6716 12.4252C23.6097 12.4114 23.5516 12.385 23.5011 12.3476C23.4506 12.3102 23.4089 12.2628 23.3788 12.2084C23.2578 11.9908 23.3899 11.723 23.4981 11.5225C24.0003 10.588 25.1765 9.6954 26.3121 9.81231C27.5067 9.93544 28.0756 11.1067 27.7844 12.1527H27.786Z" fill="#396EAC"/>
<path fill-rule="evenodd" clip-rule="evenodd" d="M12.113 18.3451C12.0748 18.606 11.8567 18.8452 11.4891 19.0295C11.0615 19.2509 10.5774 19.3476 10.0948 19.3082C8.59071 19.1588 7.75827 17.1776 8.59628 15.9591C8.97352 15.411 9.62051 15.1075 10.2866 15.0595C10.6215 15.0365 10.9578 15.0762 11.2774 15.1764C11.5161 15.2539 12.0971 15.3839 12.0692 15.7145C12.0511 15.8252 12.0034 15.9293 11.9308 16.0164C11.801 16.2006 11.6602 16.3802 11.5822 16.5901C11.4851 16.8502 11.5066 17.1405 11.7302 17.3302C12.0294 17.5841 12.1488 18.1028 12.113 18.3451ZM13.0982 15.6556C13.0274 15.3351 12.7369 15.0565 12.4838 14.8683C11.3872 14.057 9.85765 13.9455 8.68699 14.6693C7.66276 15.3034 7.00623 16.7596 7.3007 17.9433C7.36337 18.1925 7.46255 18.4315 7.59512 18.6532C8.266 19.7843 9.80032 20.3479 11.0872 20.0375C11.6848 19.8935 12.3111 19.5885 12.7385 19.1503C12.943 18.9405 13.1053 18.6858 13.1229 18.3916C13.1603 17.7653 12.2976 17.0824 12.7353 16.484C12.9104 16.244 13.1459 16.0389 13.1094 15.7245C13.1069 15.7014 13.1031 15.6784 13.0982 15.6556Z" fill="#396EAC"/>
<path d="M34.7144 20.7732C35.2038 20.5409 35.573 20.1236 35.9161 19.711C36.5146 18.9893 37.0754 18.2387 37.596 17.462C37.8459 17.0881 38.0974 16.6747 37.9621 16.2102C37.9313 16.0912 37.8637 15.9844 37.7682 15.9042C37.6728 15.824 37.5544 15.7743 37.4289 15.7619C37.031 15.7349 36.8042 16.1088 36.6609 16.4417C36.3713 17.1152 36.1525 17.8205 35.7855 18.4584C35.4187 19.0963 34.8783 19.6777 34.1645 19.9022C33.1896 20.2119 32.1129 19.7822 31.3258 19.1436C30.5388 18.5048 29.9514 17.6726 29.2376 16.9549C28.5794 16.2976 27.6786 15.7101 26.7547 15.8982C25.5975 16.1304 25.0508 17.4063 24.75 18.518C24.4491 19.6297 24.0807 20.9117 22.9992 21.3693C22.4334 21.6085 21.7975 21.5427 21.2365 21.3244C20.9487 21.2102 20.6759 21.0631 20.4239 20.8862C20.2075 20.7368 19.8987 20.5471 19.7618 20.3226C19.578 20.0222 19.8915 19.7474 19.9783 19.471C20.4613 17.9412 19.66 16.1126 19.231 14.6471C18.6159 12.539 17.9768 10.5935 17.3608 8.48546C17.7842 8.71305 18.3302 8.52491 18.6938 8.21451C19.0575 7.90405 19.3074 7.48678 19.6448 7.14847C20.5043 6.28601 21.9527 6.03905 23.0589 6.56625C23.5936 6.82018 24.0934 7.24213 24.6895 7.20804C25.2967 7.17321 25.7463 6.67698 26.2135 6.29841C27.6794 5.10772 29.9323 4.9405 31.5677 5.90046C31.9091 6.10099 32.2402 6.35106 32.6357 6.40447C33.0312 6.45788 33.5056 6.20394 33.4952 5.81608C33.4872 5.52811 33.2302 5.31365 32.993 5.14101C29.7302 2.77281 25.9739 0.968979 21.9614 0.288478C17.949 -0.392021 13.669 0.107322 10.1157 2.04354C5.21114 4.71754 2.17829 9.77211 0.175226 14.8817C0.0224295 15.2688 -0.115246 15.7472 0.148964 16.077C0.413174 16.4068 0.935231 16.3867 1.29016 16.173C1.6451 15.9593 1.86872 15.5916 2.09075 15.244C2.8237 14.1013 3.68238 13.0074 4.81801 12.2325C5.95362 11.4575 7.39006 11.0317 8.74297 11.3205C9.25627 11.4297 9.77751 11.6394 10.2892 11.5334C11.1161 11.3639 11.5323 10.4968 12.0336 9.83486C12.7307 8.92165 13.7518 8.29312 14.8986 8.07125C15.1429 8.02482 15.4159 8.00314 15.6204 8.14173C15.8042 8.26561 15.8838 8.48777 15.9539 8.69528L18.9167 17.5588C19.11 18.1363 19.3018 18.7727 19.0679 19.3355C18.8339 19.8983 17.9537 20.2072 17.5749 19.7273C17.1635 19.2109 17.5574 18.1789 16.9208 17.9753C16.62 17.877 16.2929 18.0945 16.1448 18.3678C15.8639 18.8834 16.0533 19.55 16.456 19.9827C16.8587 20.4155 17.4309 20.6578 17.9991 20.8459C17.4173 22.0428 15.6371 22.0359 14.375 21.5427C13.1128 21.0496 11.8546 20.2413 10.5128 20.4589C9.63748 20.6021 8.92124 21.1827 8.46362 21.9298V21.905C8.46445 21.9143 8.46445 21.9236 8.46362 21.9329C8.37516 22.0773 8.29673 22.2273 8.22884 22.3819C7.94131 22.7033 7.60634 22.9814 7.23491 23.2072C6.40171 23.7011 5.34007 23.722 4.47819 23.434C3.52959 23.1174 2.85951 22.3796 2.23479 21.713C1.93955 21.3995 1.54005 20.832 0.97104 20.9652C0.564379 21.0612 0.37418 21.5342 0.493552 21.8764C0.694097 22.4377 1.32995 22.7914 1.82654 23.1282C3.25901 24.0998 5.06073 25.1852 7.03115 24.3847C7.32829 24.2772 7.6176 24.1502 7.89702 24.0046C7.88587 24.9916 8.16203 25.9857 8.52172 26.9186C8.67853 27.3304 8.8619 27.7323 9.07082 28.1217C9.44883 28.9322 8.43978 29.228 7.71003 29.4834L7.34554 29.6127C6.99937 29.7097 6.66381 29.8393 6.34361 29.9998L6.33163 30.0052C4.9526 30.7091 3.91228 31.911 3.43409 33.3528C2.43613 36.3047 3.94261 39.4393 6.7988 40.3536C7.3191 40.5202 7.86334 40.6051 8.41109 40.6052C10.7484 40.6052 12.9672 39.0639 13.7789 36.6631C14.4155 34.7896 14.0367 32.8426 12.9472 31.4367C12.4769 30.7926 13.5616 30.8174 13.5616 30.8174C14.0391 30.8282 14.5277 30.8243 15.0045 30.8622C16.0685 30.949 17.3465 31.3701 17.7516 32.4346C17.9601 32.9819 17.8853 33.5912 17.7588 34.1618C17.6322 34.7323 17.458 35.3021 17.4746 35.8859C17.4774 36.1018 17.5209 36.3154 17.6028 36.5161C16.9454 36.5255 16.312 36.7581 15.8123 37.1738C15.3126 37.5895 14.978 38.162 14.8664 38.7924C14.7548 39.4227 14.8732 40.0711 15.2011 40.6255C15.529 41.1799 16.0458 41.6053 16.6621 41.8282C17.2784 42.051 17.9554 42.0573 18.5759 41.8459C19.1965 41.6345 19.7215 41.2187 20.0602 40.6706C20.3989 40.1224 20.53 39.4762 20.4307 38.844C20.3315 38.2117 20.0082 37.633 19.5167 37.2081C19.9387 37.1851 20.3561 37.1105 20.7589 36.986C20.8226 36.9666 20.8983 36.9302 20.8983 36.8652C20.8953 36.8314 20.8804 36.7996 20.8561 36.7754C20.4971 36.3473 19.0814 36.4069 18.8665 35.8951C18.7145 35.5344 19.0328 34.1757 19.1586 33.249C19.309 32.1427 18.9565 31.0875 17.8853 30.4945C17.1149 30.0671 16.1345 29.9193 15.3132 29.6073C15.2702 29.5903 15.2137 29.5756 15.2002 29.5299C15.1135 29.2457 15.4533 29.1582 15.5543 29.1366C16.3501 28.9601 16.6462 29.1552 17.3911 29.406C17.898 29.5771 18.7607 29.9363 19.2645 30.119C20.1884 30.4535 20.9356 31.0024 20.977 32.0282C21.0057 32.8023 20.7001 33.53 20.6682 34.2949C20.6547 34.6124 20.7144 34.9429 20.907 35.2015C21.2142 35.6211 21.7896 35.762 22.3188 35.7805C22.8843 35.7996 23.4484 35.7143 23.9812 35.529C24.0241 35.5178 24.063 35.4953 24.0934 35.4639C24.1731 35.3633 24.0529 35.2216 23.9303 35.1713C23.6191 35.042 23.2666 35.0622 22.9339 35.0018C21.9272 34.8183 21.8524 34.473 21.9185 33.986C22.1071 32.6126 22.6626 30.9931 21.3097 29.9022C19.9568 28.8115 17.7492 28.7224 16.7552 28.0752C16.4205 27.8377 16.1623 27.5122 16.0111 27.1369L14.2723 22.464C14.9797 23.0461 16.0111 23.1437 16.9057 22.9091C17.6115 22.7241 18.2044 22.354 18.8068 21.9669C19.4093 21.5799 19.734 21.6952 20.3364 22.0916C20.9508 22.4949 21.585 22.7597 22.345 22.7109C23.0756 22.6523 23.7603 22.3409 24.2749 21.833C24.5558 21.5613 24.7364 21.2082 24.9426 20.8831C25.1297 21.7375 25.1168 22.6219 24.9048 23.4707C24.6927 24.3196 24.2871 25.1111 23.7178 25.7867C23.3334 26.2373 22.8743 26.6344 22.6665 27.2089C22.572 27.4539 22.5575 27.7213 22.6252 27.9745C22.9554 29.1141 24.2964 29.0453 25.2601 29.6398C25.6294 29.8682 25.5959 30.558 25.611 30.983C25.6548 32.1969 25.7049 33.4743 26.1729 34.6007C26.4634 35.2975 26.9194 35.9942 27.252 36.6755C27.4852 37.1555 27.8378 37.5867 27.9914 38.1016C28.2882 39.0995 27.5425 39.5013 26.7435 39.8667C26.4435 40.0045 26.0933 40.2793 26.5843 40.445C27.0753 40.6106 27.6531 40.4798 28.1609 40.2058C28.6168 39.9595 29.0108 39.5949 29.2153 39.2187C29.4644 38.7542 29.2949 38.2169 29.08 37.7702C28.8142 37.2143 28.4259 36.7228 28.1346 36.1785C27.3948 34.8158 26.9431 33.3227 26.8064 31.7874C26.7522 31.1378 26.9783 29.8736 27.4772 29.8024C28.2906 29.6855 28.5357 29.8891 28.7505 30.1895C29.1437 30.7407 29.2193 31.182 29.4827 31.6659C30.1464 32.8874 31.6839 33.5943 33.0758 33.3171C33.7618 33.1801 34.3284 32.8867 35.0311 32.8224C35.8269 32.7489 36.2121 33.3156 36.4143 33.9458C36.4747 34.137 36.5431 34.4103 36.7851 34.4033C36.9928 34.4033 37.183 34.1463 37.2252 33.9698C37.4456 33.0756 36.9602 32.3208 36.4548 31.6263C36.3662 31.4957 36.2418 31.3917 36.0958 31.3261C35.9497 31.2605 35.7877 31.2357 35.628 31.2548C35.3659 31.2975 35.1158 31.3927 34.8935 31.5342C34.1406 31.9624 33.3583 32.3982 32.4686 32.2751C31.6672 32.1644 31.2327 32.1443 30.4791 30.9691C30.1934 30.5262 29.9658 29.9464 30.269 29.5152C30.4019 29.3255 30.6104 29.2009 30.8006 29.0646C32.0468 28.1688 32.6214 26.595 32.6492 25.0884C32.6771 23.5819 32.0803 21.9569 31.641 20.5115C31.6911 20.5262 32.1463 20.76 32.198 20.7739C33.1124 21.0294 33.8645 21.1796 34.7144 20.7732ZM15.8703 6.88213C15.166 6.84008 14.4601 6.93265 13.7924 7.15464C13.1747 7.35828 12.5995 7.66793 12.0942 8.06894C11.5348 8.52624 11.0436 9.05701 10.6346 9.64592C10.4754 9.86814 10.3275 10.2436 10.0927 10.3868C9.80461 10.5626 9.4799 10.3582 9.19497 10.2862C8.89895 10.2111 8.59713 10.1593 8.29252 10.1314C7.71033 10.0772 7.12292 10.1127 6.55211 10.2366C5.39737 10.4883 4.34689 11.0836 3.47149 11.8485C3.40141 11.9198 3.31686 11.9762 3.2232 12.0141C3.17595 12.0317 3.12422 12.0341 3.07545 12.0212C3.02668 12.0082 2.9834 11.9806 2.95182 11.9422C2.83723 11.768 3.17385 11.2245 3.25264 11.0534C3.40225 10.7308 3.56142 10.4129 3.73013 10.0996C5.45492 6.89805 8.13926 4.28213 11.4273 2.59862C12.9664 1.81084 14.6479 1.32077 16.3788 1.15555C18.8695 0.916986 21.3839 1.1131 23.8038 1.73464C24.7498 1.97778 25.6782 2.28193 26.5827 2.64507C27.0427 2.83036 27.4961 3.03035 27.9428 3.24505C28.1019 3.32248 29.548 3.95653 28.7641 4.12839C28.2479 4.17742 27.74 4.28873 27.252 4.45974C26.8026 4.60971 26.3784 4.82336 25.9931 5.09379C25.736 5.26179 25.2522 5.55828 24.9768 5.71313C24.6378 5.90046 24.2868 5.73868 23.9597 5.6024C22.0299 4.80038 19.5788 5.25095 18.3198 6.95566C18.2156 7.09656 18.1025 7.25683 17.9283 7.29167C17.8207 7.30505 17.7114 7.29259 17.6099 7.25528C17.033 7.0935 16.4759 6.92008 15.8703 6.88213ZM17.4261 37.1331L17.2932 38.4492L16.1616 37.6835C16.5112 37.3724 16.9547 37.1794 17.4261 37.1331ZM15.4994 39.7273C15.3919 39.2578 15.4505 38.7668 15.6657 38.3338L16.7759 39.0856C16.7759 39.1057 16.768 39.1266 16.7648 39.1474L15.4994 39.7273ZM15.8289 40.469L17.0529 39.9085C17.0806 39.9326 17.1099 39.9551 17.1404 39.9758L17.0067 41.3128C16.5272 41.1695 16.1119 40.8719 15.8289 40.469ZM17.8829 41.398L18.0198 40.0354C18.0492 40.0207 18.0779 40.0052 18.1057 39.9882L19.2342 40.7515C18.8755 41.1137 18.397 41.3412 17.8829 41.3941V41.398ZM19.7626 38.6698C19.9011 39.133 19.8747 39.6281 19.6878 40.0749L18.5052 39.2682C18.5052 39.2589 18.5052 39.2504 18.5052 39.2419L19.7626 38.6698ZM18.3015 37.2221C18.7297 37.3528 19.1069 37.6071 19.383 37.9513L18.1734 38.5057L18.3015 37.2221ZM10.1189 30.5564C10.5652 30.6994 10.9837 30.914 11.3572 31.1913L8.94751 33.6787L8.91881 30.3497C9.32694 30.3599 9.73121 30.4283 10.1189 30.5526V30.5564ZM8.80581 29.807V30.2104V29.807ZM6.12075 31.2385C6.66351 30.8447 7.28827 30.5713 7.95115 30.4372L7.97818 33.6175L5.82949 31.4669C5.92393 31.3848 6.02103 31.3074 6.12075 31.2346V31.2385ZM4.34689 33.6531C4.52811 33.109 4.80402 32.5991 5.1626 32.1458L7.30256 34.2864L4.18454 34.2524C4.22612 34.0483 4.28033 33.8469 4.34689 33.6493V33.6531ZM4.53868 37.2283C4.23409 36.592 4.07861 35.8979 4.08347 35.1961L7.41158 35.2317C7.41158 35.2394 7.41716 35.2464 7.41953 35.2542L4.90475 37.8538C4.76556 37.6552 4.64313 37.4461 4.53868 37.2283ZM7.09879 39.4734C6.51832 39.2862 5.98664 38.9785 5.54061 38.5714L7.99887 36.0314L8.02994 39.6592C7.71442 39.6321 7.40317 39.5703 7.10199 39.4749L7.09879 39.4734ZM11.097 38.7914C10.48 39.2399 9.75747 39.5313 8.99523 39.6391L8.9634 35.9532L11.4877 38.4778C11.3643 38.5894 11.2349 38.6946 11.1002 38.7929L11.097 38.7914ZM12.8709 36.3767C12.702 36.8757 12.4539 37.3459 12.1356 37.7702L9.65497 35.2929C9.66054 35.2805 9.66451 35.2673 9.66932 35.2549L13.1064 35.292C13.0698 35.6613 12.9919 36.0255 12.874 36.3782L12.8709 36.3767ZM13.1096 34.3491L9.66291 34.3135L12.0559 31.84C12.3049 32.1323 12.5143 32.4544 12.6791 32.7985C12.9141 33.2878 13.0606 33.8129 13.112 34.3507L13.1096 34.3491ZM14.7251 26.0298C14.8114 26.3097 14.8753 26.5958 14.9161 26.8853C14.9655 27.2515 14.9607 27.6486 14.8023 27.9908C14.5684 28.4994 13.9373 28.8796 13.4311 29.0924C12.7945 29.3588 11.9493 29.5275 11.3134 29.2024C10.8447 28.9632 10.5176 28.5273 10.2303 28.1085C9.63546 27.2498 9.23653 26.277 9.06051 25.2557C8.94271 24.5473 8.9053 23.7785 9.13212 23.0879C9.5396 21.8493 10.8829 21.2021 12.1331 21.7339C12.8589 22.0436 13.2361 22.697 13.5505 23.3682C13.9556 24.2322 14.4418 25.1078 14.7251 26.0298ZM31.181 26.9C30.9985 27.3488 30.6985 27.7433 30.3106 28.0442C29.9227 28.345 29.4605 28.5418 28.9702 28.6148L28.928 28.621H28.8986C27.4177 28.817 25.9112 28.7169 24.4714 28.3268C24.4313 28.3121 24.3922 28.2947 24.3545 28.2749C24.1499 28.165 23.7974 28.0078 23.7282 27.788C23.6589 27.5681 23.8698 27.2863 23.9828 27.0749C23.9974 27.0482 24.0136 27.0224 24.0314 26.9975L24.0353 26.9921C24.2767 26.6933 24.5192 26.3947 24.7627 26.0964C25.2486 25.5867 25.5831 24.9581 25.7304 24.2779C25.9788 23.1292 26.0709 21.9537 26.0042 20.7817C25.9735 20.2331 25.9469 19.6844 25.9246 19.1358C25.9041 18.6546 26.0061 18.1759 26.2214 17.7423C26.2443 17.6944 26.2709 17.6484 26.301 17.6045C26.3867 17.4809 26.4974 17.3757 26.6264 17.2954C26.7554 17.2151 26.8999 17.1612 27.0511 17.1372C27.2023 17.1132 27.3569 17.1196 27.5055 17.1558C27.654 17.1921 27.7934 17.2576 27.915 17.3482C27.9574 17.3801 27.9975 17.4147 28.0351 17.452L28.0574 17.4736C28.16 17.5758 28.2604 17.6803 28.359 17.7833C30.0857 19.633 31.182 21.957 31.4977 24.4366C31.4977 24.452 31.4977 24.4683 31.5041 24.4838C31.6043 25.3035 31.4924 26.1346 31.1786 26.9016L31.181 26.9Z" fill="#396EAC"/>
<path d="M54.64 25.56C54.64 25.976 54.488 26.328 54.184 26.616C53.896 26.904 53.544 27.04 53.128 27.024C52.712 27.024 52.36 26.88 52.072 26.592C51.784 26.288 51.648 25.928 51.664 25.512C51.792 19.224 51.856 15.032 51.856 12.936L47.656 12.84C47.24 12.84 46.888 12.696 46.6 12.408C46.312 12.104 46.168 11.744 46.168 11.328C46.184 10.912 46.336 10.56 46.624 10.272C46.928 9.984 47.288 9.848 47.704 9.864C48.872 9.88 50.696 9.912 53.176 9.96C55.672 10.008 57.568 10.048 58.864 10.08C59.28 10.08 59.632 10.232 59.92 10.536C60.208 10.824 60.344 11.176 60.328 11.592C60.328 12.008 60.176 12.36 59.872 12.648C59.584 12.936 59.232 13.072 58.816 13.056C57.712 13.04 56.384 13.016 54.832 12.984C54.832 15.096 54.768 19.288 54.64 25.56ZM63.5614 27.216C63.1454 27.232 62.7854 27.096 62.4814 26.808C62.1934 26.52 62.0494 26.168 62.0494 25.752C62.0174 24.504 61.9454 22.736 61.8334 20.448C61.7374 18.144 61.6814 16.584 61.6654 15.768C61.6494 15.352 61.7774 14.992 62.0494 14.688C62.3374 14.384 62.6894 14.232 63.1054 14.232C63.5214 14.216 63.8814 14.352 64.1854 14.64C64.4894 14.912 64.6414 15.256 64.6414 15.672L64.7614 18.696C65.3374 18.648 65.8414 18.608 66.2734 18.576C66.9454 18.528 67.5214 18.52 68.0014 18.552C68.7374 18.584 69.3134 18.72 69.7294 18.96C70.3054 19.264 70.7934 19.704 71.1934 20.28C71.5934 20.856 71.8494 21.464 71.9614 22.104C72.1854 23.544 71.8734 24.704 71.0254 25.584C70.3694 26.256 69.4414 26.68 68.2414 26.856C67.2974 27.016 66.0574 27.016 64.5214 26.856C64.2494 27.096 63.9294 27.216 63.5614 27.216ZM64.9774 23.904C66.1774 24.016 67.1134 24.016 67.7854 23.904C68.3294 23.824 68.6974 23.688 68.8894 23.496C69.0334 23.336 69.0654 23.032 68.9854 22.584C68.9214 22.152 68.6974 21.816 68.3134 21.576H68.2654C68.2334 21.576 68.1774 21.568 68.0974 21.552C68.0334 21.536 67.9534 21.528 67.8574 21.528C67.4894 21.512 67.0254 21.52 66.4654 21.552C66.0174 21.584 65.4974 21.632 64.9054 21.696C64.9374 22.528 64.9614 23.264 64.9774 23.904ZM83.6438 26.952C82.4278 26.84 81.3558 26.352 80.4278 25.488C79.5158 24.64 78.8598 23.632 78.4598 22.464C78.4118 22.288 78.3638 22.112 78.3158 21.936H77.0198L77.3078 25.44C77.3398 25.84 77.2278 26.192 76.9718 26.496C76.7318 26.8 76.4118 26.968 76.0118 27C75.6278 27.032 75.2838 26.928 74.9798 26.688C74.6758 26.432 74.5078 26.112 74.4758 25.728C74.3318 24.064 74.2118 22.392 74.1158 20.712C74.0998 20.632 74.0918 20.544 74.0918 20.448V20.424C73.9798 18.952 73.8838 17.36 73.8038 15.648C73.7718 15.248 73.8918 14.912 74.1638 14.64C74.4358 14.352 74.7638 14.2 75.1478 14.184C75.5478 14.152 75.8918 14.272 76.1798 14.544C76.4838 14.8 76.6438 15.128 76.6598 15.528C76.7078 16.776 76.7718 17.952 76.8518 19.056L78.1238 19.08C78.2998 17.72 78.8678 16.592 79.8278 15.696C80.2438 15.312 80.8118 15.024 81.5318 14.832C81.6278 14.8 81.7478 14.76 81.8918 14.712C82.0678 14.424 82.3078 14.224 82.6118 14.112C82.9318 13.984 83.2518 13.976 83.5718 14.088L83.9318 14.184C84.0278 14.216 84.1478 14.24 84.2918 14.256L84.6278 14.328C85.2358 14.488 85.7398 14.688 86.1398 14.928C87.2758 15.632 88.1158 16.656 88.6598 18C89.2198 19.328 89.4438 20.664 89.3318 22.008C89.2038 23.512 88.6918 24.72 87.7958 25.632C86.7398 26.704 85.3558 27.144 83.6438 26.952ZM83.9558 24.12C84.7398 24.2 85.3398 24.032 85.7558 23.616C86.1718 23.2 86.4198 22.584 86.4998 21.768C86.5638 20.888 86.4118 20.024 86.0438 19.176C85.6918 18.328 85.2198 17.72 84.6278 17.352C84.4998 17.256 84.2758 17.168 83.9558 17.088L83.8598 17.064L83.7638 17.112C83.5398 17.192 83.2758 17.28 82.9718 17.376C82.9558 17.376 82.8758 17.4 82.7318 17.448C82.5878 17.496 82.4678 17.528 82.3718 17.544C82.0518 17.64 81.8518 17.728 81.7718 17.808C81.1798 18.352 80.8918 19.096 80.9078 20.04C80.9718 20.2 80.9958 20.376 80.9798 20.568V20.76C81.0278 21.016 81.0838 21.264 81.1478 21.504C81.4198 22.256 81.8038 22.872 82.2998 23.352C82.8118 23.816 83.3638 24.072 83.9558 24.12ZM96.8613 25.56C96.8613 25.96 96.7093 26.312 96.4053 26.616C96.1173 26.904 95.7653 27.04 95.3493 27.024C94.9493 27.024 94.5973 26.88 94.2933 26.592C94.0053 26.288 93.8693 25.928 93.8853 25.512C93.9173 22.488 93.9093 19.752 93.8613 17.304C92.5813 17.304 91.7333 17.296 91.3173 17.28C90.9173 17.28 90.5653 17.136 90.2613 16.848C89.9733 16.544 89.8293 16.192 89.8293 15.792C89.8453 15.376 89.9973 15.024 90.2853 14.736C90.5893 14.432 90.9493 14.288 91.3652 14.304C95.9733 14.336 98.7173 14.352 99.5973 14.352C100.013 14.336 100.365 14.48 100.653 14.784C100.957 15.072 101.109 15.424 101.109 15.84C101.125 16.24 100.981 16.592 100.677 16.896C100.389 17.184 100.045 17.328 99.6453 17.328C99.3733 17.344 98.4453 17.352 96.8613 17.352C96.8933 19.816 96.8933 22.552 96.8613 25.56ZM104.613 26.328C103.605 25.768 102.845 24.952 102.333 23.88C101.821 22.808 101.565 21.672 101.565 20.472C101.565 19.288 101.813 18.16 102.309 17.088C102.821 16.016 103.581 15.192 104.589 14.616C105.069 14.344 105.685 14.184 106.437 14.136C106.677 13.896 106.965 13.752 107.301 13.704C107.653 13.656 107.981 13.728 108.285 13.92C108.669 14.176 109.237 14.512 109.989 14.928C110.629 15.296 111.101 15.6 111.405 15.84C111.885 16.272 112.245 16.784 112.485 17.376C112.741 17.968 112.941 18.736 113.085 19.68C113.245 20.8 113.149 21.904 112.797 22.992C112.445 24.08 111.877 24.984 111.093 25.704C110.245 26.488 109.261 26.944 108.141 27.072C107.021 27.2 105.845 26.952 104.613 26.328ZM106.029 23.736C107.213 24.392 108.229 24.328 109.077 23.544C109.493 23.16 109.805 22.664 110.013 22.056C110.221 21.432 110.269 20.776 110.157 20.088C109.997 18.984 109.765 18.312 109.461 18.072C109.317 17.944 109.021 17.752 108.573 17.496L107.709 17.016C107.581 17.032 107.429 17.04 107.253 17.04H106.989C106.829 17.04 106.709 17.048 106.629 17.064C106.341 17.08 106.149 17.112 106.053 17.16C105.589 17.432 105.213 17.864 104.925 18.456C104.653 19.048 104.517 19.728 104.517 20.496C104.517 21.248 104.653 21.92 104.925 22.512C105.197 23.088 105.565 23.496 106.029 23.736ZM115.938 30.048C115.874 28.048 115.77 24.776 115.626 20.232C115.354 19.96 115.202 19.632 115.17 19.248C115.154 18.864 115.266 18.52 115.506 18.216L115.578 18.12L115.53 15.888C115.514 15.472 115.642 15.112 115.914 14.808C116.202 14.504 116.554 14.352 116.97 14.352C117.562 14.336 118.01 14.6 118.314 15.144C120.026 13.912 121.674 13.568 123.258 14.112C124.122 14.4 124.85 14.896 125.442 15.6C126.034 16.32 126.49 17.128 126.81 18.024C127.514 19.832 127.594 21.504 127.05 23.04C126.778 23.968 126.298 24.784 125.61 25.488C124.938 26.176 124.09 26.648 123.066 26.904C121.834 27.192 120.69 27.104 119.634 26.64C119.378 26.528 119.098 26.376 118.794 26.184C118.842 27.544 118.882 28.8 118.914 29.952C118.93 30.368 118.794 30.72 118.506 31.008C118.234 31.312 117.89 31.472 117.474 31.488C117.058 31.504 116.698 31.368 116.394 31.08C116.106 30.808 115.954 30.464 115.938 30.048ZM122.346 23.976C123.226 23.768 123.818 23.304 124.122 22.584C124.458 21.448 124.41 20.256 123.978 19.008C123.578 17.872 123.018 17.184 122.298 16.944C121.498 16.672 120.506 17.088 119.322 18.192C119.114 18.384 118.874 18.672 118.602 19.056L118.698 22.224L119.442 22.896C119.746 23.184 119.994 23.4 120.186 23.544C120.378 23.672 120.594 23.792 120.834 23.904C121.266 24.096 121.77 24.12 122.346 23.976ZM129.781 27.024C129.365 27.056 128.997 26.944 128.677 26.688C128.357 26.432 128.173 26.104 128.125 25.704C128.093 25.288 128.213 24.92 128.485 24.6L133.669 18.312C131.957 16.008 130.461 13.928 129.181 12.072C128.957 11.72 128.885 11.352 128.965 10.968C129.045 10.568 129.253 10.256 129.589 10.032C129.941 9.808 130.317 9.736 130.717 9.816C131.117 9.896 131.429 10.096 131.653 10.416L135.565 15.864C137.037 13.928 138.333 12.072 139.453 10.296C139.677 9.976 139.989 9.776 140.389 9.696C140.805 9.6 141.181 9.656 141.517 9.864C141.869 10.072 142.085 10.376 142.165 10.776C142.261 11.176 142.205 11.552 141.997 11.904C140.669 13.92 139.141 16.064 137.413 18.336L142.333 24.744C142.573 25.064 142.661 25.424 142.597 25.824C142.549 26.224 142.357 26.544 142.021 26.784C141.701 27.024 141.333 27.112 140.917 27.048C140.517 27 140.189 26.816 139.933 26.496L135.517 20.736L130.789 26.496C130.533 26.8 130.197 26.976 129.781 27.024ZM149.688 26.856C148.872 27.112 148.112 27.16 147.408 27C146.704 26.824 146.072 26.512 145.512 26.064C144.968 25.616 144.52 25.096 144.168 24.504C143.832 23.896 143.624 23.28 143.544 22.656C143.384 21.472 143.448 20.304 143.736 19.152C144.04 17.984 144.552 16.984 145.272 16.152C146.072 15.192 147.056 14.584 148.224 14.328C149.392 14.056 150.712 14.2 152.184 14.76C152.68 14.952 153.208 15.288 153.768 15.768C153.832 15.848 153.928 15.944 154.056 16.056L154.44 16.392C154.552 16.488 154.664 16.576 154.776 16.656C155.096 16.896 155.28 17.224 155.328 17.64C155.392 18.04 155.304 18.4 155.064 18.72C154.872 18.96 154.624 19.128 154.32 19.224L154.344 19.248C154.472 19.536 154.544 19.912 154.56 20.376C154.576 20.568 154.576 20.752 154.56 20.928C154.56 21.088 154.56 21.184 154.56 21.216C154.56 21.248 154.568 21.304 154.584 21.384C154.696 21.88 154.816 22.448 154.944 23.088C154.976 23.28 155 23.4 155.016 23.448C155.048 23.496 155.088 23.544 155.136 23.592L156.168 24.6C156.472 24.904 156.616 25.264 156.6 25.68C156.6 26.08 156.448 26.424 156.144 26.712C155.856 27 155.512 27.136 155.112 27.12C154.712 27.12 154.368 26.976 154.08 26.688L153.072 25.704C152.72 25.352 152.472 25.032 152.328 24.744L152.304 24.672C152.288 24.704 152.224 24.792 152.112 24.936L151.848 25.272L151.512 25.632C151.384 25.776 151.256 25.904 151.128 26.016L150.696 26.328C150.536 26.44 150.368 26.544 150.192 26.64C150.032 26.72 149.864 26.792 149.688 26.856ZM148.728 24.072C148.792 24.056 148.856 24.032 148.92 24C148.984 23.952 149.04 23.912 149.088 23.88C149.136 23.832 149.2 23.76 149.28 23.664C149.36 23.568 149.432 23.488 149.496 23.424C149.56 23.36 149.664 23.248 149.808 23.088L150.12 22.68C150.232 22.552 150.384 22.256 150.576 21.792C150.592 21.744 150.6 21.688 150.6 21.624C150.616 21.56 150.624 21.448 150.624 21.288C150.64 21.112 150.664 20.92 150.696 20.712C150.808 19.608 151.256 18.864 152.04 18.48C152.104 18.448 152.168 18.424 152.232 18.408L151.848 18.024C151.528 17.752 151.264 17.576 151.056 17.496C149.552 16.872 148.376 17.064 147.528 18.072C147.096 18.552 146.784 19.176 146.592 19.944C146.4 20.696 146.36 21.48 146.472 22.296C146.552 22.888 146.84 23.368 147.336 23.736C147.832 24.104 148.296 24.216 148.728 24.072ZM164.689 26.928C162.945 27.168 161.473 26.824 160.273 25.896C159.265 25.112 158.529 23.976 158.065 22.488C157.697 21.144 157.521 19.824 157.537 18.528C157.569 17.232 157.737 16.024 158.041 14.904C158.393 13.624 158.833 12.648 159.361 11.976C160.017 11.144 160.977 10.496 162.241 10.032C162.673 9.872 163.289 9.8 164.089 9.816C164.489 9.816 164.737 9.8 164.833 9.768C164.977 9.72 165.161 9.584 165.385 9.36L165.841 8.952C166.049 8.744 166.233 8.576 166.393 8.448C166.729 8.192 167.097 8.088 167.497 8.136C167.913 8.184 168.249 8.376 168.505 8.712C168.761 9.032 168.865 9.4 168.817 9.816C168.769 10.216 168.585 10.544 168.265 10.8L167.881 11.136L167.401 11.568C166.905 12.032 166.417 12.36 165.937 12.552C165.473 12.728 164.841 12.816 164.041 12.816C163.609 12.8 163.345 12.816 163.249 12.864C162.529 13.12 162.017 13.44 161.713 13.824C161.569 14.016 161.441 14.248 161.329 14.52C162.369 13.96 163.401 13.736 164.425 13.848C165.449 13.944 166.401 14.32 167.281 14.976C168.289 15.744 169.025 16.76 169.489 18.024C169.953 19.288 170.017 20.616 169.681 22.008C169.313 23.432 168.753 24.528 168.001 25.296C167.121 26.192 166.017 26.736 164.689 26.928ZM164.257 23.952C164.929 23.856 165.473 23.6 165.889 23.184C166.241 22.816 166.529 22.184 166.753 21.288C166.961 20.488 166.937 19.736 166.681 19.032C166.425 18.328 166.017 17.768 165.457 17.352C164.993 16.968 164.465 16.784 163.873 16.8C163.297 16.816 162.761 17.072 162.265 17.568C162.105 17.712 161.945 17.976 161.785 18.36C161.753 18.424 161.721 18.496 161.689 18.576C161.657 18.656 161.617 18.744 161.569 18.84C161.537 18.92 161.513 18.992 161.497 19.056C161.353 19.376 161.225 19.648 161.113 19.872C161.001 20.08 160.849 20.256 160.657 20.4C160.721 20.832 160.809 21.232 160.921 21.6C161.209 22.496 161.601 23.136 162.097 23.52C162.641 23.936 163.361 24.08 164.257 23.952Z" fill="#396EAC"/>
<path d="M53.59 42C53.4767 42 53.3833 41.9633 53.31 41.89C53.2367 41.8167 53.2 41.7267 53.2 41.62V39.02C53.2 38.6067 53.12 38.2667 52.96 38C52.8067 37.7333 52.5933 37.5333 52.32 37.4C52.0533 37.2667 51.75 37.2 51.41 37.2C51.0833 37.2 50.7867 37.2633 50.52 37.39C50.26 37.5167 50.0533 37.69 49.9 37.91C49.7467 38.13 49.67 38.38 49.67 38.66H49.12C49.1333 38.24 49.2467 37.8667 49.46 37.54C49.6733 37.2067 49.9567 36.9467 50.31 36.76C50.6633 36.5667 51.0567 36.47 51.49 36.47C51.9633 36.47 52.3867 36.57 52.76 36.77C53.1333 36.9633 53.4267 37.25 53.64 37.63C53.86 38.01 53.97 38.4733 53.97 39.02V41.62C53.97 41.7267 53.9333 41.8167 53.86 41.89C53.7867 41.9633 53.6967 42 53.59 42ZM49.29 42C49.17 42 49.0733 41.9667 49 41.9C48.9333 41.8267 48.9 41.7333 48.9 41.62V36.92C48.9 36.8 48.9333 36.7067 49 36.64C49.0733 36.5667 49.17 36.53 49.29 36.53C49.4033 36.53 49.4933 36.5667 49.56 36.64C49.6333 36.7067 49.67 36.8 49.67 36.92V41.62C49.67 41.7333 49.6333 41.8267 49.56 41.9C49.4933 41.9667 49.4033 42 49.29 42ZM56.0576 44.34C55.9376 44.34 55.8409 44.3033 55.7676 44.23C55.7009 44.1633 55.6676 44.07 55.6676 43.95V39.23C55.6742 38.71 55.7976 38.2433 56.0376 37.83C56.2842 37.41 56.6142 37.08 57.0276 36.84C57.4476 36.6 57.9176 36.48 58.4376 36.48C58.9709 36.48 59.4476 36.6033 59.8676 36.85C60.2876 37.09 60.6176 37.42 60.8576 37.84C61.1042 38.26 61.2276 38.7367 61.2276 39.27C61.2276 39.7967 61.1076 40.27 60.8676 40.69C60.6342 41.11 60.3142 41.4433 59.9076 41.69C59.5009 41.93 59.0409 42.05 58.5276 42.05C58.0809 42.05 57.6742 41.9567 57.3076 41.77C56.9476 41.5767 56.6576 41.3233 56.4376 41.01V43.95C56.4376 44.07 56.4009 44.1633 56.3276 44.23C56.2609 44.3033 56.1709 44.34 56.0576 44.34ZM58.4376 41.35C58.8242 41.35 59.1709 41.26 59.4776 41.08C59.7842 40.9 60.0242 40.6533 60.1976 40.34C60.3776 40.02 60.4676 39.6633 60.4676 39.27C60.4676 38.87 60.3776 38.5133 60.1976 38.2C60.0242 37.8867 59.7842 37.64 59.4776 37.46C59.1709 37.2733 58.8242 37.18 58.4376 37.18C58.0576 37.18 57.7142 37.2733 57.4076 37.46C57.1009 37.64 56.8609 37.8867 56.6876 38.2C56.5142 38.5133 56.4276 38.87 56.4276 39.27C56.4276 39.6633 56.5142 40.02 56.6876 40.34C56.8609 40.6533 57.1009 40.9 57.4076 41.08C57.7142 41.26 58.0576 41.35 58.4376 41.35ZM65.2279 42.05C64.6946 42.05 64.2179 41.93 63.7979 41.69C63.3779 41.45 63.0479 41.12 62.8079 40.7C62.5679 40.28 62.4479 39.8033 62.4479 39.27C62.4479 38.73 62.5679 38.25 62.8079 37.83C63.0479 37.41 63.3779 37.08 63.7979 36.84C64.2179 36.6 64.6946 36.48 65.2279 36.48C65.7612 36.48 66.2346 36.6 66.6479 36.84C67.0679 37.08 67.3979 37.41 67.6379 37.83C67.8779 38.25 68.0012 38.73 68.0079 39.27C68.0079 39.8033 67.8846 40.28 67.6379 40.7C67.3979 41.12 67.0679 41.45 66.6479 41.69C66.2346 41.93 65.7612 42.05 65.2279 42.05ZM65.2279 41.35C65.6146 41.35 65.9612 41.26 66.2679 41.08C66.5746 40.9 66.8146 40.6533 66.9879 40.34C67.1612 40.0267 67.2479 39.67 67.2479 39.27C67.2479 38.87 67.1612 38.5133 66.9879 38.2C66.8146 37.88 66.5746 37.63 66.2679 37.45C65.9612 37.27 65.6146 37.18 65.2279 37.18C64.8412 37.18 64.4946 37.27 64.1879 37.45C63.8812 37.63 63.6379 37.88 63.4579 38.2C63.2846 38.5133 63.1979 38.87 63.1979 39.27C63.1979 39.67 63.2846 40.0267 63.4579 40.34C63.6379 40.6533 63.8812 40.9 64.1879 41.08C64.4946 41.26 64.8412 41.35 65.2279 41.35ZM71.9855 42.05C71.4455 42.05 70.9655 41.9333 70.5455 41.7C70.1321 41.46 69.8055 41.13 69.5655 40.71C69.3321 40.29 69.2155 39.81 69.2155 39.27C69.2155 38.7233 69.3255 38.2433 69.5455 37.83C69.7721 37.41 70.0821 37.08 70.4755 36.84C70.8688 36.6 71.3221 36.48 71.8355 36.48C72.3421 36.48 72.7821 36.5967 73.1555 36.83C73.5355 37.0567 73.8288 37.3733 74.0355 37.78C74.2421 38.1867 74.3455 38.65 74.3455 39.17C74.3455 39.2767 74.3121 39.3633 74.2455 39.43C74.1788 39.49 74.0921 39.52 73.9855 39.52H69.7355V38.88H74.0655L73.6355 39.19C73.6421 38.8033 73.5721 38.4567 73.4255 38.15C73.2788 37.8433 73.0688 37.6033 72.7955 37.43C72.5288 37.2567 72.2088 37.17 71.8355 37.17C71.4555 37.17 71.1221 37.26 70.8355 37.44C70.5488 37.62 70.3255 37.87 70.1655 38.19C70.0121 38.5033 69.9355 38.8633 69.9355 39.27C69.9355 39.6767 70.0221 40.0367 70.1955 40.35C70.3755 40.6633 70.6188 40.91 70.9255 41.09C71.2321 41.27 71.5855 41.36 71.9855 41.36C72.2255 41.36 72.4655 41.32 72.7055 41.24C72.9521 41.1533 73.1488 41.0467 73.2955 40.92C73.3688 40.86 73.4521 40.83 73.5455 40.83C73.6388 40.8233 73.7188 40.8467 73.7855 40.9C73.8721 40.98 73.9155 41.0667 73.9155 41.16C73.9221 41.2533 73.8855 41.3333 73.8055 41.4C73.5855 41.5867 73.3055 41.7433 72.9655 41.87C72.6255 41.99 72.2988 42.05 71.9855 42.05ZM79.898 41.9C79.8314 41.9667 79.7414 42 79.628 42C79.5214 42 79.4347 41.9633 79.368 41.89L76.978 39.27L79.268 36.65C79.3347 36.5767 79.418 36.5367 79.518 36.53C79.618 36.5233 79.7047 36.55 79.778 36.61C79.858 36.6833 79.9014 36.7667 79.908 36.86C79.9147 36.9467 79.8847 37.03 79.818 37.11L77.938 39.23L79.918 41.41C79.9847 41.4833 80.018 41.5667 80.018 41.66C80.018 41.7467 79.978 41.8267 79.898 41.9ZM76.018 42C75.9047 42 75.8147 41.9667 75.748 41.9C75.6814 41.8267 75.648 41.7333 75.648 41.62V36.92C75.648 36.8 75.6814 36.7067 75.748 36.64C75.8147 36.5667 75.9047 36.53 76.018 36.53C76.138 36.53 76.2314 36.5667 76.298 36.64C76.3714 36.7067 76.408 36.8 76.408 36.92V38.9H77.628V39.6H76.408V41.62C76.408 41.7333 76.3714 41.8267 76.298 41.9C76.2314 41.9667 76.138 42 76.018 42ZM88.6533 42C88.5399 42 88.4466 41.9667 88.3733 41.9C88.2999 41.8267 88.2633 41.7333 88.2633 41.62V38.74C88.2633 38.2667 88.1399 37.8933 87.8933 37.62C87.6466 37.34 87.3299 37.2 86.9433 37.2C86.5299 37.2 86.1899 37.34 85.9233 37.62C85.6633 37.8933 85.5366 38.26 85.5433 38.72H84.8533C84.8599 38.2733 84.9566 37.88 85.1433 37.54C85.3299 37.2 85.5866 36.9367 85.9133 36.75C86.2399 36.5633 86.6099 36.47 87.0233 36.47C87.4166 36.47 87.7633 36.5633 88.0633 36.75C88.3699 36.9367 88.6066 37.2 88.7733 37.54C88.9466 37.88 89.0333 38.28 89.0333 38.74V41.62C89.0333 41.7333 88.9966 41.8267 88.9233 41.9C88.8566 41.9667 88.7666 42 88.6533 42ZM81.6533 42C81.5333 42 81.4366 41.9667 81.3633 41.9C81.2966 41.8267 81.2633 41.7333 81.2633 41.62V36.92C81.2633 36.8067 81.2966 36.7133 81.3633 36.64C81.4366 36.5667 81.5333 36.53 81.6533 36.53C81.7666 36.53 81.8566 36.5667 81.9233 36.64C81.9966 36.7133 82.0333 36.8067 82.0333 36.92V41.62C82.0333 41.7333 81.9966 41.8267 81.9233 41.9C81.8566 41.9667 81.7666 42 81.6533 42ZM85.1633 42C85.0499 42 84.9566 41.9667 84.8833 41.9C84.8099 41.8267 84.7733 41.7333 84.7733 41.62V38.74C84.7733 38.2667 84.6499 37.8933 84.4033 37.62C84.1566 37.34 83.8399 37.2 83.4533 37.2C83.0399 37.2 82.6999 37.3367 82.4333 37.61C82.1666 37.8767 82.0333 38.2267 82.0333 38.66H81.4833C81.4966 38.2333 81.5899 37.8567 81.7633 37.53C81.9433 37.1967 82.1866 36.9367 82.4933 36.75C82.7999 36.5633 83.1466 36.47 83.5333 36.47C83.9266 36.47 84.2733 36.5633 84.5733 36.75C84.8799 36.9367 85.1166 37.2 85.2833 37.54C85.4566 37.88 85.5433 38.28 85.5433 38.74V41.62C85.5433 41.7333 85.5066 41.8267 85.4333 41.9C85.3666 41.9667 85.2766 42 85.1633 42ZM96.0456 42.06C95.5723 42.06 95.149 41.9633 94.7756 41.77C94.4023 41.57 94.1056 41.28 93.8856 40.9C93.6723 40.52 93.5656 40.0567 93.5656 39.51V36.91C93.5656 36.8033 93.6023 36.7133 93.6756 36.64C93.749 36.5667 93.839 36.53 93.9456 36.53C94.059 36.53 94.1523 36.5667 94.2256 36.64C94.299 36.7133 94.3356 36.8033 94.3356 36.91V39.51C94.3356 39.9233 94.4123 40.2633 94.5656 40.53C94.7256 40.7967 94.939 40.9967 95.2056 41.13C95.479 41.2633 95.7856 41.33 96.1256 41.33C96.4523 41.33 96.7456 41.2667 97.0056 41.14C97.2723 41.0133 97.4823 40.84 97.6356 40.62C97.789 40.4 97.8656 40.15 97.8656 39.87H98.4156C98.3956 40.29 98.279 40.6667 98.0656 41C97.859 41.3267 97.579 41.5867 97.2256 41.78C96.8723 41.9667 96.479 42.06 96.0456 42.06ZM98.2456 42C98.1323 42 98.039 41.9667 97.9656 41.9C97.899 41.8267 97.8656 41.73 97.8656 41.61V36.91C97.8656 36.7967 97.899 36.7067 97.9656 36.64C98.039 36.5667 98.1323 36.53 98.2456 36.53C98.359 36.53 98.4523 36.5667 98.5256 36.64C98.599 36.7067 98.6356 36.7967 98.6356 36.91V41.61C98.6356 41.73 98.599 41.8267 98.5256 41.9C98.4523 41.9667 98.359 42 98.2456 42ZM105.113 42C105 42 104.907 41.9667 104.833 41.9C104.76 41.8267 104.723 41.73 104.723 41.61V36.92C104.723 36.8 104.76 36.7067 104.833 36.64C104.907 36.5667 105 36.53 105.113 36.53C105.227 36.53 105.317 36.5667 105.383 36.64C105.45 36.7067 105.483 36.8 105.483 36.92V41.61C105.483 41.73 105.45 41.8267 105.383 41.9C105.317 41.9667 105.227 42 105.113 42ZM100.813 42C100.7 42 100.607 41.9667 100.533 41.9C100.467 41.8267 100.433 41.73 100.433 41.61V36.92C100.433 36.8 100.467 36.7067 100.533 36.64C100.607 36.5667 100.7 36.53 100.813 36.53C100.927 36.53 101.017 36.5667 101.083 36.64C101.157 36.7067 101.193 36.8 101.193 36.92V41.61C101.193 41.73 101.157 41.8267 101.083 41.9C101.017 41.9667 100.927 42 100.813 42ZM101.063 39.59V38.9H104.993V39.59H101.063ZM111.529 41.9C111.462 41.9667 111.372 42 111.259 42C111.152 42 111.066 41.9633 110.999 41.89L108.609 39.27L110.899 36.65C110.966 36.5767 111.049 36.5367 111.149 36.53C111.249 36.5233 111.336 36.55 111.409 36.61C111.489 36.6833 111.532 36.7667 111.539 36.86C111.546 36.9467 111.516 37.03 111.449 37.11L109.569 39.23L111.549 41.41C111.616 41.4833 111.649 41.5667 111.649 41.66C111.649 41.7467 111.609 41.8267 111.529 41.9ZM107.649 42C107.536 42 107.446 41.9667 107.379 41.9C107.312 41.8267 107.279 41.7333 107.279 41.62V36.92C107.279 36.8 107.312 36.7067 107.379 36.64C107.446 36.5667 107.536 36.53 107.649 36.53C107.769 36.53 107.862 36.5667 107.929 36.64C108.002 36.7067 108.039 36.8 108.039 36.92V38.9H109.259V39.6H108.039V41.62C108.039 41.7333 108.002 41.8267 107.929 41.9C107.862 41.9667 107.769 42 107.649 42ZM114.934 36.53C115.014 36.53 115.087 36.55 115.154 36.59C115.221 36.63 115.274 36.6967 115.314 36.79L117.484 41.51C117.531 41.6033 117.534 41.6933 117.494 41.78C117.461 41.86 117.397 41.9233 117.304 41.97C117.197 42.0167 117.101 42.0267 117.014 42C116.927 41.9667 116.857 41.9 116.804 41.8L114.734 37.19H115.184L113.074 41.79C113.027 41.89 112.954 41.9567 112.854 41.99C112.761 42.0167 112.664 42.0067 112.564 41.96C112.471 41.9133 112.404 41.85 112.364 41.77C112.331 41.6833 112.334 41.5933 112.374 41.5L114.574 36.79C114.654 36.6167 114.774 36.53 114.934 36.53ZM119.163 42C119.043 42 118.946 41.9667 118.873 41.9C118.806 41.8267 118.773 41.7333 118.773 41.62V36.92C118.773 36.8 118.806 36.7067 118.873 36.64C118.946 36.5667 119.043 36.53 119.163 36.53C119.276 36.53 119.366 36.5667 119.433 36.64C119.506 36.7067 119.543 36.8 119.543 36.92V41.62C119.543 41.7333 119.506 41.8267 119.433 41.9C119.366 41.9667 119.276 42 119.163 42ZM119.413 39.6C119.313 39.6 119.23 39.57 119.163 39.51C119.096 39.4433 119.063 39.3567 119.063 39.25C119.063 39.1433 119.096 39.06 119.163 39C119.23 38.9333 119.313 38.9 119.413 38.9H120.863C120.97 38.9 121.053 38.9333 121.113 39C121.18 39.06 121.213 39.1433 121.213 39.25C121.213 39.3567 121.18 39.4433 121.113 39.51C121.053 39.57 120.97 39.6 120.863 39.6H119.413ZM123.433 42.05C122.893 42.05 122.413 41.93 121.993 41.69C121.573 41.45 121.243 41.12 121.003 40.7C120.763 40.28 120.643 39.8033 120.643 39.27C120.643 38.73 120.763 38.25 121.003 37.83C121.243 37.41 121.573 37.08 121.993 36.84C122.413 36.6 122.893 36.48 123.433 36.48C123.96 36.48 124.43 36.6 124.843 36.84C125.263 37.08 125.593 37.41 125.833 37.83C126.08 38.25 126.203 38.73 126.203 39.27C126.203 39.8033 126.083 40.28 125.843 40.7C125.603 41.12 125.273 41.45 124.853 41.69C124.433 41.93 123.96 42.05 123.433 42.05ZM123.433 41.35C123.82 41.35 124.163 41.26 124.463 41.08C124.77 40.9 125.01 40.6533 125.183 40.34C125.356 40.0267 125.443 39.67 125.443 39.27C125.443 38.87 125.356 38.5133 125.183 38.2C125.01 37.88 124.77 37.63 124.463 37.45C124.163 37.27 123.82 37.18 123.433 37.18C123.04 37.18 122.69 37.27 122.383 37.45C122.083 37.63 121.843 37.88 121.663 38.2C121.49 38.5133 121.403 38.87 121.403 39.27C121.403 39.67 121.49 40.0267 121.663 40.34C121.843 40.6533 122.083 40.9 122.383 41.08C122.69 41.26 123.04 41.35 123.433 41.35ZM129.439 42.09C129.152 42.09 128.872 42.0533 128.599 41.98C128.325 41.9 128.079 41.7933 127.859 41.66C127.639 41.52 127.465 41.3667 127.339 41.2C127.272 41.1133 127.245 41.02 127.259 40.92C127.279 40.82 127.339 40.74 127.439 40.68C127.512 40.6333 127.599 40.6233 127.699 40.65C127.805 40.67 127.892 40.7167 127.959 40.79C128.125 40.9633 128.335 41.1067 128.589 41.22C128.842 41.3333 129.122 41.39 129.429 41.39C129.829 41.39 130.152 41.3067 130.399 41.14C130.652 40.9733 130.779 40.7367 130.779 40.43C130.779 40.1633 130.679 39.94 130.479 39.76C130.285 39.58 130.042 39.4833 129.749 39.47H129.239C129.112 39.47 129.009 39.44 128.929 39.38C128.849 39.3133 128.809 39.2333 128.809 39.14C128.809 39.0467 128.849 38.97 128.929 38.91C129.009 38.85 129.112 38.82 129.239 38.82H129.749C129.995 38.8133 130.195 38.73 130.349 38.57C130.502 38.41 130.579 38.2133 130.579 37.98C130.579 37.74 130.472 37.5433 130.259 37.39C130.052 37.2367 129.772 37.16 129.419 37.16C129.092 37.16 128.819 37.2133 128.599 37.32C128.379 37.4267 128.202 37.5633 128.069 37.73C127.995 37.81 127.909 37.86 127.809 37.88C127.715 37.8933 127.625 37.8733 127.539 37.82C127.452 37.7733 127.402 37.7 127.389 37.6C127.382 37.5 127.412 37.4067 127.479 37.32C127.692 37.0733 127.962 36.8667 128.289 36.7C128.622 36.5333 128.995 36.45 129.409 36.45C129.782 36.45 130.112 36.5167 130.399 36.65C130.692 36.7767 130.922 36.9533 131.089 37.18C131.255 37.4 131.339 37.6467 131.339 37.92C131.339 38.14 131.279 38.3433 131.159 38.53C131.045 38.71 130.889 38.86 130.689 38.98C130.495 39.0933 130.279 39.16 130.039 39.18V39.07C130.319 39.07 130.572 39.13 130.799 39.25C131.025 39.37 131.205 39.5367 131.339 39.75C131.472 39.9567 131.539 40.19 131.539 40.45C131.539 40.7633 131.445 41.0433 131.259 41.29C131.079 41.5367 130.829 41.7333 130.509 41.88C130.195 42.02 129.839 42.09 129.439 42.09ZM135.225 42.06C134.752 42.06 134.329 41.9633 133.955 41.77C133.582 41.57 133.285 41.28 133.065 40.9C132.852 40.52 132.745 40.0567 132.745 39.51V36.91C132.745 36.8033 132.782 36.7133 132.855 36.64C132.929 36.5667 133.019 36.53 133.125 36.53C133.239 36.53 133.332 36.5667 133.405 36.64C133.479 36.7133 133.515 36.8033 133.515 36.91V39.51C133.515 39.9233 133.592 40.2633 133.745 40.53C133.905 40.7967 134.119 40.9967 134.385 41.13C134.659 41.2633 134.965 41.33 135.305 41.33C135.632 41.33 135.925 41.2667 136.185 41.14C136.452 41.0133 136.662 40.84 136.815 40.62C136.969 40.4 137.045 40.15 137.045 39.87H137.595C137.575 40.29 137.459 40.6667 137.245 41C137.039 41.3267 136.759 41.5867 136.405 41.78C136.052 41.9667 135.659 42.06 135.225 42.06ZM137.425 42C137.312 42 137.219 41.9667 137.145 41.9C137.079 41.8267 137.045 41.73 137.045 41.61V36.91C137.045 36.7967 137.079 36.7067 137.145 36.64C137.219 36.5667 137.312 36.53 137.425 36.53C137.539 36.53 137.632 36.5667 137.705 36.64C137.779 36.7067 137.815 36.7967 137.815 36.91V41.61C137.815 41.73 137.779 41.8267 137.705 41.9C137.632 41.9667 137.539 42 137.425 42ZM140.003 42C139.883 42 139.786 41.9667 139.713 41.9C139.646 41.8267 139.613 41.73 139.613 41.61V36.91C139.62 36.7967 139.656 36.7067 139.723 36.64C139.796 36.5667 139.89 36.53 140.003 36.53C140.116 36.53 140.206 36.5667 140.273 36.64C140.346 36.7067 140.383 36.8 140.383 36.92V38.82H142.493V38.96C142.84 38.96 143.146 39.0233 143.413 39.15C143.686 39.2767 143.896 39.4533 144.043 39.68C144.196 39.9 144.273 40.1533 144.273 40.44C144.273 40.7467 144.196 41.0167 144.043 41.25C143.896 41.4833 143.686 41.6667 143.413 41.8C143.146 41.9333 142.84 42 142.493 42H140.003ZM140.383 41.29H142.493C142.793 41.29 143.04 41.2133 143.233 41.06C143.426 40.9067 143.523 40.6867 143.523 40.4C143.523 40.1 143.426 39.8733 143.233 39.72C143.04 39.56 142.793 39.48 142.493 39.48H140.383V41.29ZM141.503 39.25V38.82H142.493C142.726 38.82 142.916 38.7433 143.063 38.59C143.21 38.4367 143.283 38.24 143.283 38C143.283 37.7867 143.203 37.6067 143.043 37.46C142.89 37.3067 142.693 37.23 142.453 37.23H140.013V36.53H142.453C142.76 36.53 143.03 36.5933 143.263 36.72C143.503 36.84 143.69 37.0067 143.823 37.22C143.963 37.4333 144.033 37.68 144.033 37.96C144.033 38.3933 143.886 38.7167 143.593 38.93C143.306 39.1433 142.94 39.25 142.493 39.25H141.503ZM150.26 42C150.146 42 150.053 41.9667 149.98 41.9C149.906 41.8267 149.87 41.73 149.87 41.61V36.92C149.87 36.8 149.906 36.7067 149.98 36.64C150.053 36.5667 150.146 36.53 150.26 36.53C150.373 36.53 150.463 36.5667 150.53 36.64C150.596 36.7067 150.63 36.8 150.63 36.92V41.61C150.63 41.73 150.596 41.8267 150.53 41.9C150.463 41.9667 150.373 42 150.26 42ZM145.96 42C145.846 42 145.753 41.9667 145.68 41.9C145.613 41.8267 145.58 41.73 145.58 41.61V36.92C145.58 36.8 145.613 36.7067 145.68 36.64C145.753 36.5667 145.846 36.53 145.96 36.53C146.073 36.53 146.163 36.5667 146.23 36.64C146.303 36.7067 146.34 36.8 146.34 36.92V41.61C146.34 41.73 146.303 41.8267 146.23 41.9C146.163 41.9667 146.073 42 145.96 42ZM146.21 39.59V38.9H150.14V39.59H146.21ZM154.915 42.05C154.382 42.05 153.905 41.93 153.485 41.69C153.065 41.45 152.735 41.12 152.495 40.7C152.255 40.28 152.135 39.8033 152.135 39.27C152.135 38.73 152.255 38.25 152.495 37.83C152.735 37.41 153.065 37.08 153.485 36.84C153.905 36.6 154.382 36.48 154.915 36.48C155.449 36.48 155.922 36.6 156.335 36.84C156.755 37.08 157.085 37.41 157.325 37.83C157.565 38.25 157.689 38.73 157.695 39.27C157.695 39.8033 157.572 40.28 157.325 40.7C157.085 41.12 156.755 41.45 156.335 41.69C155.922 41.93 155.449 42.05 154.915 42.05ZM154.915 41.35C155.302 41.35 155.649 41.26 155.955 41.08C156.262 40.9 156.502 40.6533 156.675 40.34C156.849 40.0267 156.935 39.67 156.935 39.27C156.935 38.87 156.849 38.5133 156.675 38.2C156.502 37.88 156.262 37.63 155.955 37.45C155.649 37.27 155.302 37.18 154.915 37.18C154.529 37.18 154.182 37.27 153.875 37.45C153.569 37.63 153.325 37.88 153.145 38.2C152.972 38.5133 152.885 38.87 152.885 39.27C152.885 39.67 152.972 40.0267 153.145 40.34C153.325 40.6533 153.569 40.9 153.875 41.08C154.182 41.26 154.529 41.35 154.915 41.35ZM160.863 42.05C160.47 42.05 160.116 41.99 159.803 41.87C159.49 41.75 159.24 41.58 159.053 41.36C158.873 41.14 158.783 40.88 158.783 40.58C158.783 40.3267 158.85 40.0967 158.983 39.89C159.123 39.6833 159.343 39.5033 159.643 39.35C159.95 39.19 160.35 39.0567 160.843 38.95C161.29 38.85 161.596 38.7233 161.763 38.57C161.936 38.41 162.023 38.21 162.023 37.97C162.023 37.7367 161.923 37.5467 161.723 37.4C161.523 37.2467 161.246 37.17 160.893 37.17C160.613 37.17 160.353 37.22 160.113 37.32C159.88 37.4133 159.686 37.55 159.533 37.73C159.46 37.81 159.376 37.86 159.283 37.88C159.19 37.9 159.11 37.89 159.043 37.85C158.936 37.79 158.873 37.7133 158.853 37.62C158.833 37.52 158.856 37.43 158.923 37.35C159.116 37.09 159.38 36.88 159.713 36.72C160.046 36.56 160.436 36.48 160.883 36.48C161.25 36.48 161.576 36.54 161.863 36.66C162.15 36.7733 162.373 36.9433 162.533 37.17C162.693 37.3967 162.773 37.6733 162.773 38C162.773 38.3467 162.64 38.6567 162.373 38.93C162.106 39.1967 161.663 39.4 161.043 39.54C160.476 39.6667 160.086 39.81 159.873 39.97C159.66 40.13 159.553 40.33 159.553 40.57C159.553 40.83 159.656 41.0267 159.863 41.16C160.076 41.2867 160.403 41.35 160.843 41.35C161.176 41.35 161.473 41.31 161.733 41.23C162 41.15 162.22 41.01 162.393 40.81C162.46 40.7367 162.54 40.69 162.633 40.67C162.726 40.6433 162.82 40.6667 162.913 40.74C163 40.8133 163.046 40.8967 163.053 40.99C163.06 41.0833 163.026 41.17 162.953 41.25C162.726 41.4967 162.42 41.6933 162.033 41.84C161.646 41.98 161.256 42.05 160.863 42.05ZM166.849 42.05C166.316 42.05 165.839 41.93 165.419 41.69C164.999 41.45 164.669 41.12 164.429 40.7C164.189 40.28 164.069 39.8033 164.069 39.27C164.069 38.73 164.189 38.25 164.429 37.83C164.669 37.41 164.999 37.08 165.419 36.84C165.839 36.6 166.316 36.48 166.849 36.48C167.382 36.48 167.856 36.6 168.269 36.84C168.689 37.08 169.019 37.41 169.259 37.83C169.499 38.25 169.622 38.73 169.629 39.27C169.629 39.8033 169.506 40.28 169.259 40.7C169.019 41.12 168.689 41.45 168.269 41.69C167.856 41.93 167.382 42.05 166.849 42.05ZM166.849 41.35C167.236 41.35 167.582 41.26 167.889 41.08C168.196 40.9 168.436 40.6533 168.609 40.34C168.782 40.0267 168.869 39.67 168.869 39.27C168.869 38.87 168.782 38.5133 168.609 38.2C168.436 37.88 168.196 37.63 167.889 37.45C167.582 37.27 167.236 37.18 166.849 37.18C166.462 37.18 166.116 37.27 165.809 37.45C165.502 37.63 165.259 37.88 165.079 38.2C164.906 38.5133 164.819 38.87 164.819 39.27C164.819 39.67 164.906 40.0267 165.079 40.34C165.259 40.6533 165.502 40.9 165.809 41.08C166.116 41.26 166.462 41.35 166.849 41.35ZM176.436 42.06C175.95 42.06 175.52 41.9533 175.146 41.74C174.773 41.52 174.48 41.2167 174.266 40.83C174.06 40.4433 173.956 40.0033 173.956 39.51V36.91C173.956 36.7967 173.99 36.7067 174.056 36.64C174.13 36.5667 174.223 36.53 174.336 36.53C174.45 36.53 174.543 36.5667 174.616 36.64C174.69 36.7067 174.726 36.7967 174.726 36.91V39.51C174.726 39.8633 174.803 40.1767 174.956 40.45C175.11 40.7233 175.32 40.94 175.586 41.1C175.853 41.2533 176.163 41.33 176.516 41.33C176.856 41.33 177.156 41.27 177.416 41.15C177.676 41.0233 177.88 40.85 178.026 40.63C178.18 40.41 178.256 40.1567 178.256 39.87L178.706 39.89C178.693 40.31 178.586 40.6867 178.386 41.02C178.186 41.3467 177.916 41.6033 177.576 41.79C177.243 41.97 176.863 42.06 176.436 42.06ZM179.636 43.71C179.523 43.71 179.43 43.6733 179.356 43.6C179.29 43.5333 179.256 43.44 179.256 43.32V42H179.006C178.74 42 178.546 41.94 178.426 41.82C178.313 41.7 178.256 41.51 178.256 41.25V36.91C178.256 36.7967 178.29 36.7067 178.356 36.64C178.43 36.5667 178.523 36.53 178.636 36.53C178.75 36.53 178.843 36.5667 178.916 36.64C178.99 36.7067 179.026 36.7967 179.026 36.91V41.33H179.606C179.726 41.33 179.82 41.3667 179.886 41.44C179.96 41.5067 179.996 41.6 179.996 41.72V43.32C179.996 43.44 179.963 43.5333 179.896 43.6C179.836 43.6733 179.75 43.71 179.636 43.71ZM183.587 42.05C183.047 42.05 182.567 41.9333 182.147 41.7C181.734 41.46 181.407 41.13 181.167 40.71C180.934 40.29 180.817 39.81 180.817 39.27C180.817 38.7233 180.927 38.2433 181.147 37.83C181.374 37.41 181.684 37.08 182.077 36.84C182.47 36.6 182.924 36.48 183.437 36.48C183.944 36.48 184.384 36.5967 184.757 36.83C185.137 37.0567 185.43 37.3733 185.637 37.78C185.844 38.1867 185.947 38.65 185.947 39.17C185.947 39.2767 185.914 39.3633 185.847 39.43C185.78 39.49 185.694 39.52 185.587 39.52H181.337V38.88H185.667L185.237 39.19C185.244 38.8033 185.174 38.4567 185.027 38.15C184.88 37.8433 184.67 37.6033 184.397 37.43C184.13 37.2567 183.81 37.17 183.437 37.17C183.057 37.17 182.724 37.26 182.437 37.44C182.15 37.62 181.927 37.87 181.767 38.19C181.614 38.5033 181.537 38.8633 181.537 39.27C181.537 39.6767 181.624 40.0367 181.797 40.35C181.977 40.6633 182.22 40.91 182.527 41.09C182.834 41.27 183.187 41.36 183.587 41.36C183.827 41.36 184.067 41.32 184.307 41.24C184.554 41.1533 184.75 41.0467 184.897 40.92C184.97 40.86 185.054 40.83 185.147 40.83C185.24 40.8233 185.32 40.8467 185.387 40.9C185.474 40.98 185.517 41.0667 185.517 41.16C185.524 41.2533 185.487 41.3333 185.407 41.4C185.187 41.5867 184.907 41.7433 184.567 41.87C184.227 41.99 183.9 42.05 183.587 42.05ZM191.93 42C191.816 42 191.723 41.9667 191.65 41.9C191.576 41.8267 191.54 41.73 191.54 41.61V36.92C191.54 36.8 191.576 36.7067 191.65 36.64C191.723 36.5667 191.816 36.53 191.93 36.53C192.043 36.53 192.133 36.5667 192.2 36.64C192.266 36.7067 192.3 36.8 192.3 36.92V41.61C192.3 41.73 192.266 41.8267 192.2 41.9C192.133 41.9667 192.043 42 191.93 42ZM187.63 42C187.516 42 187.423 41.9667 187.35 41.9C187.283 41.8267 187.25 41.73 187.25 41.61V36.92C187.25 36.8 187.283 36.7067 187.35 36.64C187.423 36.5667 187.516 36.53 187.63 36.53C187.743 36.53 187.833 36.5667 187.9 36.64C187.973 36.7067 188.01 36.8 188.01 36.92V41.61C188.01 41.73 187.973 41.8267 187.9 41.9C187.833 41.9667 187.743 42 187.63 42ZM187.88 39.59V38.9H191.81V39.59H187.88ZM201.485 42C201.372 42 201.279 41.9667 201.205 41.9C201.132 41.8267 201.095 41.7333 201.095 41.62V38.74C201.095 38.2667 200.972 37.8933 200.725 37.62C200.479 37.34 200.162 37.2 199.775 37.2C199.362 37.2 199.022 37.34 198.755 37.62C198.495 37.8933 198.369 38.26 198.375 38.72H197.685C197.692 38.2733 197.789 37.88 197.975 37.54C198.162 37.2 198.419 36.9367 198.745 36.75C199.072 36.5633 199.442 36.47 199.855 36.47C200.249 36.47 200.595 36.5633 200.895 36.75C201.202 36.9367 201.439 37.2 201.605 37.54C201.779 37.88 201.865 38.28 201.865 38.74V41.62C201.865 41.7333 201.829 41.8267 201.755 41.9C201.689 41.9667 201.599 42 201.485 42ZM194.485 42C194.365 42 194.269 41.9667 194.195 41.9C194.129 41.8267 194.095 41.7333 194.095 41.62V36.92C194.095 36.8067 194.129 36.7133 194.195 36.64C194.269 36.5667 194.365 36.53 194.485 36.53C194.599 36.53 194.689 36.5667 194.755 36.64C194.829 36.7133 194.865 36.8067 194.865 36.92V41.62C194.865 41.7333 194.829 41.8267 194.755 41.9C194.689 41.9667 194.599 42 194.485 42ZM197.995 42C197.882 42 197.789 41.9667 197.715 41.9C197.642 41.8267 197.605 41.7333 197.605 41.62V38.74C197.605 38.2667 197.482 37.8933 197.235 37.62C196.989 37.34 196.672 37.2 196.285 37.2C195.872 37.2 195.532 37.3367 195.265 37.61C194.999 37.8767 194.865 38.2267 194.865 38.66H194.315C194.329 38.2333 194.422 37.8567 194.595 37.53C194.775 37.1967 195.019 36.9367 195.325 36.75C195.632 36.5633 195.979 36.47 196.365 36.47C196.759 36.47 197.105 36.5633 197.405 36.75C197.712 36.9367 197.949 37.2 198.115 37.54C198.289 37.88 198.375 38.28 198.375 38.74V41.62C198.375 41.7333 198.339 41.8267 198.265 41.9C198.199 41.9667 198.109 42 197.995 42ZM203.958 44.34C203.838 44.34 203.741 44.3033 203.668 44.23C203.601 44.1633 203.568 44.07 203.568 43.95V39.23C203.575 38.71 203.698 38.2433 203.938 37.83C204.185 37.41 204.515 37.08 204.928 36.84C205.348 36.6 205.818 36.48 206.338 36.48C206.871 36.48 207.348 36.6033 207.768 36.85C208.188 37.09 208.518 37.42 208.758 37.84C209.005 38.26 209.128 38.7367 209.128 39.27C209.128 39.7967 209.008 40.27 208.768 40.69C208.535 41.11 208.215 41.4433 207.808 41.69C207.401 41.93 206.941 42.05 206.428 42.05C205.981 42.05 205.575 41.9567 205.208 41.77C204.848 41.5767 204.558 41.3233 204.338 41.01V43.95C204.338 44.07 204.301 44.1633 204.228 44.23C204.161 44.3033 204.071 44.34 203.958 44.34ZM206.338 41.35C206.725 41.35 207.071 41.26 207.378 41.08C207.685 40.9 207.925 40.6533 208.098 40.34C208.278 40.02 208.368 39.6633 208.368 39.27C208.368 38.87 208.278 38.5133 208.098 38.2C207.925 37.8867 207.685 37.64 207.378 37.46C207.071 37.2733 206.725 37.18 206.338 37.18C205.958 37.18 205.615 37.2733 205.308 37.46C205.001 37.64 204.761 37.8867 204.588 38.2C204.415 38.5133 204.328 38.87 204.328 39.27C204.328 39.6633 204.415 40.02 204.588 40.34C204.761 40.6533 205.001 40.9 205.308 41.08C205.615 41.26 205.958 41.35 206.338 41.35ZM213.048 42.05C212.535 42.05 212.075 41.93 211.668 41.69C211.262 41.4433 210.938 41.11 210.698 40.69C210.465 40.27 210.348 39.7967 210.348 39.27C210.348 38.7367 210.468 38.26 210.708 37.84C210.955 37.42 211.288 37.09 211.708 36.85C212.128 36.6033 212.602 36.48 213.128 36.48C213.655 36.48 214.125 36.6033 214.538 36.85C214.958 37.09 215.288 37.42 215.528 37.84C215.775 38.26 215.902 38.7367 215.908 39.27L215.598 39.51C215.598 39.99 215.485 40.4233 215.258 40.81C215.038 41.19 214.735 41.4933 214.348 41.72C213.968 41.94 213.535 42.05 213.048 42.05ZM213.128 41.35C213.515 41.35 213.858 41.26 214.158 41.08C214.465 40.9 214.705 40.6533 214.878 40.34C215.058 40.02 215.148 39.6633 215.148 39.27C215.148 38.87 215.058 38.5133 214.878 38.2C214.705 37.8867 214.465 37.64 214.158 37.46C213.858 37.2733 213.515 37.18 213.128 37.18C212.748 37.18 212.405 37.2733 212.098 37.46C211.792 37.64 211.548 37.8867 211.368 38.2C211.188 38.5133 211.098 38.87 211.098 39.27C211.098 39.6633 211.188 40.02 211.368 40.34C211.548 40.6533 211.792 40.9 212.098 41.08C212.405 41.26 212.748 41.35 213.128 41.35ZM215.518 42C215.405 42 215.312 41.9667 215.238 41.9C215.165 41.8267 215.128 41.7333 215.128 41.62V39.91L215.318 39.12L215.908 39.27V41.62C215.908 41.7333 215.872 41.8267 215.798 41.9C215.725 41.9667 215.632 42 215.518 42ZM223.376 42C223.296 42 223.226 41.98 223.166 41.94C223.106 41.9 223.056 41.84 223.016 41.76L221.866 39.48C221.832 39.4133 221.816 39.3433 221.816 39.27C221.816 39.21 221.829 39.1467 221.856 39.08L223.016 36.78C223.089 36.62 223.209 36.54 223.376 36.54C223.489 36.54 223.582 36.5767 223.656 36.65C223.729 36.7233 223.766 36.8133 223.766 36.92C223.766 36.98 223.752 37.0367 223.726 37.09L222.636 39.27L223.726 41.45C223.752 41.4967 223.766 41.55 223.766 41.61C223.766 41.7233 223.729 41.8167 223.656 41.89C223.582 41.9633 223.489 42 223.376 42ZM221.386 42C221.306 42 221.236 41.98 221.176 41.94C221.116 41.9 221.066 41.84 221.026 41.76L219.886 39.48C219.866 39.44 219.849 39.4033 219.836 39.37C219.829 39.3367 219.826 39.3033 219.826 39.27C219.826 39.21 219.842 39.1467 219.876 39.08L221.026 36.78C221.106 36.62 221.226 36.54 221.386 36.54C221.499 36.54 221.592 36.5767 221.666 36.65C221.739 36.7233 221.776 36.8133 221.776 36.92C221.776 36.9867 221.766 37.0433 221.746 37.09L220.656 39.27L221.746 41.45C221.766 41.49 221.776 41.5433 221.776 41.61C221.776 41.7233 221.736 41.8167 221.656 41.89C221.582 41.9633 221.492 42 221.386 42ZM225.523 42C225.416 42 225.323 41.9633 225.243 41.89C225.163 41.8167 225.123 41.7233 225.123 41.61V34.58C225.123 34.4667 225.163 34.3733 225.243 34.3C225.323 34.2267 225.416 34.19 225.523 34.19C225.636 34.19 225.726 34.2267 225.793 34.3C225.866 34.3733 225.903 34.4667 225.903 34.58V40.72L230.893 34.33C230.966 34.2367 231.066 34.19 231.193 34.19C231.306 34.19 231.4 34.2267 231.473 34.3C231.546 34.3733 231.583 34.4667 231.583 34.58V41.61C231.583 41.7233 231.546 41.8167 231.473 41.89C231.4 41.9633 231.306 42 231.193 42C231.08 42 230.986 41.9633 230.913 41.89C230.84 41.8167 230.803 41.7233 230.803 41.61V35.48L225.813 41.87C225.78 41.91 225.736 41.9433 225.683 41.97C225.63 41.99 225.576 42 225.523 42ZM228.363 33.48C228.036 33.48 227.743 33.4267 227.483 33.32C227.223 33.2067 227.016 33.0533 226.863 32.86C226.716 32.6667 226.643 32.45 226.643 32.21C226.643 32.1033 226.676 32.0133 226.743 31.94C226.816 31.8667 226.903 31.83 227.003 31.83C227.11 31.83 227.196 31.8667 227.263 31.94C227.33 32.0133 227.363 32.1133 227.363 32.24C227.363 32.4267 227.46 32.5767 227.653 32.69C227.846 32.8033 228.083 32.86 228.363 32.86C228.65 32.86 228.886 32.8033 229.073 32.69C229.266 32.5767 229.363 32.4267 229.363 32.24C229.363 32.1133 229.396 32.0133 229.463 31.94C229.536 31.8667 229.623 31.83 229.723 31.83C229.83 31.83 229.916 31.8667 229.983 31.94C230.05 32.0133 230.083 32.1033 230.083 32.21C230.083 32.45 230.006 32.6667 229.853 32.86C229.706 33.0533 229.503 33.2067 229.243 33.32C228.983 33.4267 228.69 33.48 228.363 33.48ZM235.97 42.05C235.437 42.05 234.96 41.93 234.54 41.69C234.12 41.45 233.79 41.12 233.55 40.7C233.31 40.28 233.19 39.8033 233.19 39.27C233.19 38.73 233.31 38.25 233.55 37.83C233.79 37.41 234.12 37.08 234.54 36.84C234.96 36.6 235.437 36.48 235.97 36.48C236.503 36.48 236.977 36.6 237.39 36.84C237.81 37.08 238.14 37.41 238.38 37.83C238.62 38.25 238.743 38.73 238.75 39.27C238.75 39.8033 238.627 40.28 238.38 40.7C238.14 41.12 237.81 41.45 237.39 41.69C236.977 41.93 236.503 42.05 235.97 42.05ZM235.97 41.35C236.357 41.35 236.703 41.26 237.01 41.08C237.317 40.9 237.557 40.6533 237.73 40.34C237.903 40.0267 237.99 39.67 237.99 39.27C237.99 38.87 237.903 38.5133 237.73 38.2C237.557 37.88 237.317 37.63 237.01 37.45C236.703 37.27 236.357 37.18 235.97 37.18C235.583 37.18 235.237 37.27 234.93 37.45C234.623 37.63 234.38 37.88 234.2 38.2C234.027 38.5133 233.94 38.87 233.94 39.27C233.94 39.67 234.027 40.0267 234.2 40.34C234.38 40.6533 234.623 40.9 234.93 41.08C235.237 41.26 235.583 41.35 235.97 41.35ZM240.638 42C240.518 42 240.421 41.9667 240.348 41.9C240.281 41.8267 240.248 41.73 240.248 41.61V36.92C240.248 36.8 240.281 36.7067 240.348 36.64C240.421 36.5667 240.518 36.53 240.638 36.53C240.811 36.53 240.951 36.61 241.058 36.77L243.268 39.97L245.478 36.77C245.584 36.61 245.724 36.53 245.898 36.53C246.018 36.53 246.111 36.5667 246.178 36.64C246.251 36.7067 246.288 36.8 246.288 36.92V41.61C246.288 41.73 246.251 41.8267 246.178 41.9C246.111 41.9667 246.018 42 245.898 42C245.778 42 245.684 41.9667 245.618 41.9C245.551 41.8267 245.518 41.73 245.518 41.61V37.42L245.768 37.5L243.628 40.59C243.521 40.7433 243.398 40.82 243.258 40.82C243.118 40.82 242.998 40.7433 242.898 40.59L240.758 37.53L241.018 37.45V41.61C241.018 41.73 240.984 41.8267 240.918 41.9C240.851 41.9667 240.758 42 240.638 42ZM247.949 39.65C247.843 39.65 247.753 39.6133 247.679 39.54C247.606 39.4667 247.569 39.3767 247.569 39.27C247.569 39.1567 247.606 39.0633 247.679 38.99C247.753 38.9167 247.843 38.88 247.949 38.88H250.299C250.413 38.88 250.506 38.9167 250.579 38.99C250.653 39.0633 250.689 39.1567 250.689 39.27C250.689 39.3767 250.653 39.4667 250.579 39.54C250.506 39.6133 250.413 39.65 250.299 39.65H247.949ZM254.376 42.06C253.902 42.06 253.479 41.9633 253.106 41.77C252.732 41.57 252.436 41.28 252.216 40.9C252.002 40.52 251.896 40.0567 251.896 39.51V36.91C251.896 36.8033 251.932 36.7133 252.006 36.64C252.079 36.5667 252.169 36.53 252.276 36.53C252.389 36.53 252.482 36.5667 252.556 36.64C252.629 36.7133 252.666 36.8033 252.666 36.91V39.51C252.666 39.9233 252.742 40.2633 252.896 40.53C253.056 40.7967 253.269 40.9967 253.536 41.13C253.809 41.2633 254.116 41.33 254.456 41.33C254.782 41.33 255.076 41.2667 255.336 41.14C255.602 41.0133 255.812 40.84 255.966 40.62C256.119 40.4 256.196 40.15 256.196 39.87H256.746C256.726 40.29 256.609 40.6667 256.396 41C256.189 41.3267 255.909 41.5867 255.556 41.78C255.202 41.9667 254.809 42.06 254.376 42.06ZM256.576 42C256.462 42 256.369 41.9667 256.296 41.9C256.229 41.8267 256.196 41.73 256.196 41.61V36.91C256.196 36.7967 256.229 36.7067 256.296 36.64C256.369 36.5667 256.462 36.53 256.576 36.53C256.689 36.53 256.782 36.5667 256.856 36.64C256.929 36.7067 256.966 36.7967 256.966 36.91V41.61C256.966 41.73 256.929 41.8267 256.856 41.9C256.782 41.9667 256.689 42 256.576 42ZM254.486 35.82C254.159 35.82 253.866 35.7667 253.606 35.66C253.346 35.5467 253.139 35.3933 252.986 35.2C252.839 35.0067 252.766 34.79 252.766 34.55C252.766 34.4433 252.799 34.3533 252.866 34.28C252.939 34.2067 253.026 34.17 253.126 34.17C253.232 34.17 253.319 34.2067 253.386 34.28C253.452 34.3533 253.486 34.4533 253.486 34.58C253.486 34.7667 253.582 34.9167 253.776 35.03C253.969 35.1433 254.206 35.2 254.486 35.2C254.772 35.2 255.009 35.1433 255.196 35.03C255.389 34.9167 255.486 34.7667 255.486 34.58C255.486 34.4533 255.519 34.3533 255.586 34.28C255.659 34.2067 255.746 34.17 255.846 34.17C255.952 34.17 256.039 34.2067 256.106 34.28C256.172 34.3533 256.206 34.4433 256.206 34.55C256.206 34.79 256.129 35.0067 255.976 35.2C255.829 35.3933 255.626 35.5467 255.366 35.66C255.106 35.7667 254.812 35.82 254.486 35.82ZM261.253 42.05C260.72 42.05 260.243 41.93 259.823 41.69C259.403 41.45 259.073 41.12 258.833 40.7C258.593 40.28 258.473 39.8033 258.473 39.27C258.473 38.73 258.593 38.25 258.833 37.83C259.073 37.41 259.403 37.08 259.823 36.84C260.243 36.6 260.72 36.48 261.253 36.48C261.787 36.48 262.26 36.6 262.673 36.84C263.093 37.08 263.423 37.41 263.663 37.83C263.903 38.25 264.027 38.73 264.033 39.27C264.033 39.8033 263.91 40.28 263.663 40.7C263.423 41.12 263.093 41.45 262.673 41.69C262.26 41.93 261.787 42.05 261.253 42.05ZM261.253 41.35C261.64 41.35 261.987 41.26 262.293 41.08C262.6 40.9 262.84 40.6533 263.013 40.34C263.187 40.0267 263.273 39.67 263.273 39.27C263.273 38.87 263.187 38.5133 263.013 38.2C262.84 37.88 262.6 37.63 262.293 37.45C261.987 37.27 261.64 37.18 261.253 37.18C260.867 37.18 260.52 37.27 260.213 37.45C259.907 37.63 259.663 37.88 259.483 38.2C259.31 38.5133 259.223 38.87 259.223 39.27C259.223 39.67 259.31 40.0267 259.483 40.34C259.663 40.6533 259.907 40.9 260.213 41.08C260.52 41.26 260.867 41.35 261.253 41.35ZM265.921 42C265.801 42 265.704 41.9667 265.631 41.9C265.564 41.8267 265.531 41.73 265.531 41.61V36.92C265.531 36.8 265.564 36.7067 265.631 36.64C265.704 36.5667 265.801 36.53 265.921 36.53C266.094 36.53 266.234 36.61 266.341 36.77L268.551 39.97L270.761 36.77C270.868 36.61 271.008 36.53 271.181 36.53C271.301 36.53 271.394 36.5667 271.461 36.64C271.534 36.7067 271.571 36.8 271.571 36.92V41.61C271.571 41.73 271.534 41.8267 271.461 41.9C271.394 41.9667 271.301 42 271.181 42C271.061 42 270.968 41.9667 270.901 41.9C270.834 41.8267 270.801 41.73 270.801 41.61V37.42L271.051 37.5L268.911 40.59C268.804 40.7433 268.681 40.82 268.541 40.82C268.401 40.82 268.281 40.7433 268.181 40.59L266.041 37.53L266.301 37.45V41.61C266.301 41.73 266.268 41.8267 266.201 41.9C266.134 41.9667 266.041 42 265.921 42ZM275.243 42C275.129 42 275.036 41.9633 274.963 41.89C274.889 41.8167 274.853 41.7233 274.853 41.61C274.853 41.55 274.863 41.4967 274.883 41.45L275.973 39.27L274.883 37.09C274.876 37.0633 274.869 37.0367 274.863 37.01C274.856 36.9833 274.853 36.9533 274.853 36.92C274.853 36.8133 274.889 36.7233 274.963 36.65C275.036 36.5767 275.129 36.54 275.243 36.54C275.403 36.54 275.523 36.62 275.603 36.78L276.753 39.08C276.766 39.1133 276.776 39.1467 276.783 39.18C276.796 39.2067 276.803 39.2367 276.803 39.27C276.803 39.3033 276.796 39.3367 276.783 39.37C276.776 39.4033 276.763 39.44 276.743 39.48L275.603 41.76C275.556 41.84 275.503 41.9 275.443 41.94C275.389 41.98 275.323 42 275.243 42ZM273.253 42C273.146 42 273.056 41.9633 272.983 41.89C272.909 41.8167 272.873 41.7233 272.873 41.61C272.873 41.55 272.883 41.4967 272.903 41.45L273.983 39.27L272.903 37.09C272.896 37.0633 272.886 37.0367 272.873 37.01C272.866 36.9833 272.863 36.9533 272.863 36.92C272.863 36.8133 272.899 36.7233 272.973 36.65C273.053 36.5767 273.146 36.54 273.253 36.54C273.413 36.54 273.533 36.62 273.613 36.78L274.763 39.08C274.776 39.1133 274.786 39.1467 274.793 39.18C274.806 39.2067 274.813 39.2367 274.813 39.27C274.813 39.3367 274.793 39.4067 274.753 39.48L273.613 41.76C273.573 41.84 273.523 41.9 273.463 41.94C273.403 41.98 273.333 42 273.253 42Z" fill="#396EAC"/>
</svg>
