<svg width="55" height="55" viewBox="0 0 55 55" fill="none" xmlns="http://www.w3.org/2000/svg">
<g clip-path="url(#clip0_416_1271)">
<path d="M12.0954 17.2504C12.0954 15.1993 11.0779 13.3381 9.42416 12.2308C10.1282 11.4268 10.5263 10.3895 10.5263 9.28668C10.5263 6.81717 8.51714 4.80811 6.04774 4.80811C3.57834 4.80811 1.56917 6.81727 1.56917 9.28668C1.56917 10.3896 1.96741 11.4268 2.67132 12.2308C1.01745 13.3381 0 15.1993 0 17.2504C0 17.6962 0.361429 18.0576 0.807241 18.0576H11.2881C11.7339 18.0576 12.0954 17.6962 12.0954 17.2504ZM1.68746 16.4431C1.9574 14.9671 2.9587 13.7166 4.38978 13.1388C4.67048 13.0255 4.86422 12.7646 4.89145 12.4631C4.91879 12.1615 4.77499 11.8702 4.51926 11.7082C3.68296 11.1788 3.18365 10.2736 3.18365 9.28657C3.18365 7.70728 4.46856 6.42248 6.04774 6.42248C7.62692 6.42248 8.91183 7.70739 8.91183 9.28657C8.91183 10.2736 8.41253 11.1788 7.57612 11.7082C7.32028 11.8701 7.17659 12.1615 7.20382 12.463C7.23116 12.7646 7.42489 13.0255 7.7056 13.1388C9.13667 13.7166 10.138 14.967 10.4079 16.4431H1.68746Z" fill="#396EAC"/>
<path d="M24.2821 7.95823H43.5382C43.984 7.95823 44.3454 7.5968 44.3454 7.15099C44.3454 6.70518 43.984 6.34375 43.5382 6.34375H24.2821C23.8363 6.34375 23.4749 6.70518 23.4749 7.15099C23.4749 7.5968 23.8362 7.95823 24.2821 7.95823Z" fill="#396EAC"/>
<path d="M24.2821 12.24H43.5382C43.984 12.24 44.3454 11.8785 44.3454 11.4327C44.3454 10.9869 43.984 10.6255 43.5382 10.6255H24.2821C23.8363 10.6255 23.4749 10.9869 23.4749 11.4327C23.4749 11.8785 23.8362 12.24 24.2821 12.24Z" fill="#396EAC"/>
<path d="M24.2821 16.5219H33.9102C34.356 16.5219 34.7175 16.1605 34.7175 15.7147C34.7175 15.2689 34.356 14.9075 33.9102 14.9075H24.2821C23.8363 14.9075 23.4749 15.2689 23.4749 15.7147C23.4749 16.1605 23.8362 16.5219 24.2821 16.5219Z" fill="#396EAC"/>
<path d="M18.4859 20.3022H19.9524C20.0304 20.3022 20.0788 20.3449 20.1006 20.3704C20.1251 20.3989 20.1521 20.4462 20.1424 20.5105C19.9441 21.814 19.3591 23.0134 18.4503 23.9788C18.2345 24.2081 18.1717 24.5418 18.2893 24.8338C18.4071 25.1258 18.6838 25.3227 18.9982 25.3383C19.1317 25.345 19.2654 25.3482 19.3993 25.3482C19.8276 25.3482 20.2562 25.3144 20.678 25.2473C23.4407 24.8074 25.7477 23.007 26.8492 20.4314C26.8828 20.3529 26.9536 20.3021 27.0298 20.3021H49.3342C50.6981 20.3021 51.8077 19.1925 51.8077 17.8286V5.03697C51.8077 3.67306 50.698 2.56348 49.3342 2.56348H25.1467C24.7008 2.56348 24.3394 2.9249 24.3394 3.37072C24.3394 3.81653 24.7008 4.17796 25.1467 4.17796H49.3342C49.8079 4.17796 50.1932 4.56328 50.1932 5.03697V17.8287C50.1932 18.3024 49.8077 18.6877 49.3342 18.6877H27.0298C26.3064 18.6877 25.6528 19.123 25.3647 19.7966C24.5249 21.7604 22.8102 23.1615 20.739 23.595C21.2454 22.7239 21.5849 21.7639 21.7386 20.7533C21.8169 20.2382 21.6662 19.7151 21.3251 19.3182C20.9808 18.9175 20.4805 18.6878 19.9524 18.6878H18.4859C18.0123 18.6878 17.6269 18.3025 17.6269 17.8288V5.03697C17.6269 4.56328 18.0124 4.17796 18.4859 4.17796H21.8492C22.295 4.17796 22.6565 3.81653 22.6565 3.37072C22.6565 2.9249 22.295 2.56348 21.8492 2.56348H18.4859C17.122 2.56348 16.0125 3.67306 16.0125 5.03697V17.8287C16.0125 19.1926 17.1221 20.3022 18.4859 20.3022Z" fill="#396EAC"/>
<path d="M52.3288 39.3192C53.0329 38.5151 53.431 37.4779 53.431 36.3751C53.431 33.9055 51.4218 31.8965 48.9524 31.8965C46.483 31.8965 44.4738 33.9057 44.4738 36.3751C44.4738 37.4779 44.8721 38.5152 45.576 39.3192C43.9221 40.4264 42.9048 42.2877 42.9048 44.3386C42.9048 44.7845 43.2662 45.1459 43.712 45.1459H54.1928C54.6386 45.1459 55 44.7845 55 44.3386C55 42.2876 53.9826 40.4263 52.3288 39.3192ZM44.5921 43.5314C44.8621 42.0553 45.8634 40.805 47.2945 40.2272C47.5752 40.1139 47.7689 39.853 47.7962 39.5515C47.8236 39.25 47.6798 38.9585 47.424 38.7966C46.5876 38.2672 46.0883 37.3619 46.0883 36.3749C46.0883 34.7957 47.3732 33.5109 48.9524 33.5109C50.5316 33.5109 51.8165 34.7958 51.8165 36.3749C51.8165 37.3619 51.3172 38.2672 50.4808 38.7966C50.2251 38.9584 50.0813 39.2499 50.1086 39.5515C50.1358 39.853 50.3296 40.1139 50.6104 40.2272C52.0415 40.805 53.0428 42.0553 53.3126 43.5314H44.5921Z" fill="#396EAC"/>
<path d="M30.7179 33.4321H11.4618C11.016 33.4321 10.6545 33.7936 10.6545 34.2394C10.6545 34.6852 11.016 35.0466 11.4618 35.0466H30.718C31.1638 35.0466 31.5252 34.6852 31.5252 34.2394C31.5252 33.7936 31.1638 33.4321 30.7179 33.4321Z" fill="#396EAC"/>
<path d="M30.7179 37.7139H11.4618C11.016 37.7139 10.6545 38.0753 10.6545 38.5211C10.6545 38.9669 11.016 39.3283 11.4618 39.3283H30.718C31.1638 39.3283 31.5252 38.9669 31.5252 38.5211C31.5252 38.0753 31.1638 37.7139 30.7179 37.7139Z" fill="#396EAC"/>
<path d="M30.7178 41.9956H21.0897C20.6439 41.9956 20.2825 42.357 20.2825 42.8028C20.2825 43.2487 20.6439 43.6101 21.0897 43.6101H30.7178C31.1636 43.6101 31.5251 43.2487 31.5251 42.8028C31.5251 42.357 31.1638 41.9956 30.7178 41.9956Z" fill="#396EAC"/>
<path d="M36.5139 29.6516H30.9458C30.5 29.6516 30.1386 30.013 30.1386 30.4589C30.1386 30.9047 30.5 31.2661 30.9458 31.2661H36.5139C36.9875 31.2661 37.3729 31.6515 37.3729 32.1251V44.9168C37.3729 45.3904 36.9874 45.7758 36.5139 45.7758H35.0474C34.5193 45.7758 34.019 46.0056 33.6747 46.4062C33.3336 46.803 33.183 47.3261 33.2613 47.8412C33.4149 48.8517 33.7545 49.8119 34.2608 50.6829C32.1896 50.2494 30.4749 48.8484 29.6351 46.8846C29.3471 46.2109 28.6934 45.7757 27.97 45.7757H5.66563C5.19194 45.7757 4.80662 45.3902 4.80662 44.9166V32.1252C4.80662 31.6515 5.19205 31.2662 5.66563 31.2662H27.7168C28.1626 31.2662 28.524 30.9048 28.524 30.459C28.524 30.0131 28.1626 29.6517 27.7168 29.6517H5.66563C4.30172 29.6517 3.19214 30.7614 3.19214 32.1252V44.9169C3.19214 46.2808 4.30183 47.3904 5.66563 47.3904H27.97C28.0462 47.3904 28.117 47.441 28.1506 47.5196C29.2521 50.0953 31.5591 51.8956 34.3218 52.3355C34.7437 52.4027 35.1722 52.4365 35.6006 52.4365C35.7344 52.4365 35.8682 52.4331 36.0016 52.4266C36.316 52.411 36.5928 52.2141 36.7105 51.9221C36.8281 51.6301 36.7653 51.2963 36.5495 51.0671C35.6407 50.1016 35.0557 48.9024 34.8574 47.5988C34.8477 47.5346 34.8747 47.4872 34.8992 47.4588C34.9211 47.4333 34.9694 47.3906 35.0474 47.3906H36.5139C37.8778 47.3906 38.9873 46.2809 38.9873 44.9171V32.1252C38.9873 30.7613 37.8777 29.6516 36.5139 29.6516Z" fill="#396EAC"/>
</g>
<defs>
<clipPath id="clip0_416_1271">
<rect width="55" height="55" fill="white"/>
</clipPath>
</defs>
</svg>
