<svg width="55" height="55" viewBox="0 0 55 55" fill="none" xmlns="http://www.w3.org/2000/svg">
<g clip-path="url(#clip0_416_1273)">
<path d="M20.9329 21.3976C22.874 22.7151 25.1448 23.4114 27.4999 23.4114C28.0886 23.4114 28.6722 23.3679 29.2466 23.282C30.9697 23.0244 32.611 22.3856 34.0669 21.3976C34.0671 21.3974 34.0674 21.3971 34.0676 21.397C37.2845 19.2123 39.2051 15.5892 39.2051 11.7052C39.2051 5.251 33.9541 0 27.4999 0C24.3735 0 21.4341 1.21752 19.2231 3.42837C18.9084 3.74301 18.9084 4.25315 19.223 4.56769C19.5377 4.88222 20.0478 4.88243 20.3623 4.56779C22.2691 2.66127 24.8038 1.61133 27.4999 1.61133C33.0657 1.61133 37.5938 6.13937 37.5938 11.7052C37.5938 14.662 36.3021 17.4432 34.0907 19.3511C33.5454 17.9685 32.4169 16.8554 30.9797 16.351C30.9565 16.3407 30.9328 16.3316 30.9086 16.3235C30.8475 16.3031 30.7863 16.2839 30.7254 16.2659C30.7184 16.2637 30.7112 16.2616 30.7036 16.2593C30.6926 16.2558 30.6816 16.2526 30.6704 16.2496L30.5142 16.2085C30.5117 16.2078 30.5091 16.2074 30.5065 16.2067C30.5019 16.2056 30.4973 16.2047 30.4928 16.2036C30.4389 16.1905 30.384 16.1779 30.3296 16.1667C30.3244 16.1655 30.3192 16.1643 30.3139 16.1632C30.2101 16.1417 30.1057 16.1242 30.0009 16.1091C29.9764 16.1054 29.9525 16.1012 29.9276 16.0979C29.9148 16.0961 29.9012 16.0945 29.8898 16.0931C29.8705 16.0907 29.8503 16.0893 29.8308 16.0872C29.7588 16.0792 29.6867 16.0729 29.6144 16.0679C29.5855 16.0659 29.5566 16.0637 29.5278 16.0621C29.5266 16.062 29.5177 16.0616 29.5166 16.0616C29.5119 16.0614 29.5074 16.0614 29.5026 16.0612C29.4224 16.0574 29.3419 16.0551 29.2614 16.0551H25.738C25.6575 16.0551 25.577 16.0574 25.4968 16.0612C25.4922 16.0614 25.4875 16.0614 25.4828 16.0616C25.4817 16.0616 25.4728 16.062 25.4716 16.0621C25.4435 16.0635 25.4148 16.0659 25.3865 16.0678C25.3244 16.072 25.2624 16.0775 25.2006 16.084C25.1715 16.0869 25.1411 16.0892 25.1132 16.0927C25.0991 16.0944 25.0849 16.0961 25.072 16.0979C25.0471 16.1011 25.0233 16.1054 24.9988 16.1091C24.8939 16.1242 24.7895 16.1417 24.6857 16.1632C24.6805 16.1643 24.6752 16.1655 24.6701 16.1667C24.6151 16.1781 24.5582 16.1909 24.4975 16.2058C24.4955 16.2063 24.4935 16.2067 24.4914 16.2073C24.4859 16.2087 24.4809 16.2096 24.4753 16.2111L24.3291 16.2497C24.3179 16.2527 24.307 16.2559 24.2959 16.2594C24.2887 16.2616 24.2814 16.2638 24.274 16.2661C24.2131 16.2841 24.152 16.3032 24.0909 16.3236C24.0669 16.3316 24.0434 16.3407 24.0204 16.3509C22.5828 16.8551 21.4542 17.9685 20.9088 19.3512C18.6973 17.4432 17.4058 14.6621 17.4058 11.7053C17.4058 10.0246 17.8269 8.36107 18.6236 6.89466C18.8361 6.50364 18.6913 6.01466 18.3003 5.80218C17.9092 5.5897 17.4203 5.73461 17.2078 6.12552C16.2832 7.82729 15.7944 9.75681 15.7944 11.7053C15.7946 15.5894 17.7155 19.2127 20.9329 21.3976ZM25.7382 17.6669H29.2616C29.2839 17.6669 29.3061 17.6678 29.3283 17.6683L27.4999 20.5372L25.6714 17.6683C25.6937 17.6678 25.7157 17.6669 25.7382 17.6669ZM32.7238 20.3436C32.684 20.3677 32.6443 20.3918 32.6042 20.4153C32.5627 20.4397 32.5213 20.4643 32.4794 20.488C32.4143 20.5251 32.3487 20.5608 32.2829 20.5962C32.2425 20.618 32.2024 20.6403 32.1618 20.6614C32.091 20.6984 32.0194 20.7337 31.9478 20.7688C31.9116 20.7867 31.8757 20.8051 31.8393 20.8225C31.7501 20.8651 31.6601 20.9057 31.5698 20.9457C31.5504 20.9541 31.5314 20.9635 31.512 20.9719C31.4018 21.0196 31.2909 21.0653 31.1792 21.109C31.1497 21.1205 31.12 21.131 31.0904 21.1421C31.0084 21.1734 30.9261 21.2043 30.8433 21.2333C30.8008 21.2482 30.7581 21.2618 30.7154 21.2761C30.6448 21.2998 30.5742 21.3235 30.503 21.3456C30.4558 21.3602 30.4084 21.3738 30.3611 21.3877C30.2936 21.4076 30.2261 21.4273 30.1583 21.4458C30.1089 21.4592 30.0592 21.4719 30.0095 21.4846C29.9431 21.5016 29.8767 21.5181 29.81 21.5338C29.7591 21.5457 29.708 21.557 29.6568 21.5681C29.5904 21.5826 29.5239 21.5963 29.4572 21.6094C29.4058 21.6195 29.3543 21.6294 29.3026 21.6386C29.2354 21.6508 29.168 21.6619 29.1005 21.6727C29.0491 21.6809 28.9977 21.689 28.9461 21.6964C28.877 21.7063 28.8077 21.715 28.7384 21.7235C28.7082 21.7273 28.6779 21.7309 28.6475 21.7343L30.9626 18.1019C31.8312 18.5727 32.4743 19.3874 32.7238 20.3436ZM24.037 18.1019L26.3522 21.7343C26.3217 21.7309 26.2913 21.7271 26.2608 21.7234C26.1916 21.7149 26.1225 21.7062 26.0535 21.6964C26.002 21.689 25.9505 21.6809 25.8991 21.6727C25.8316 21.6619 25.7644 21.6508 25.6972 21.6387C25.6454 21.6294 25.5938 21.6196 25.5421 21.6095C25.4756 21.5964 25.4092 21.5827 25.3431 21.5683C25.2917 21.5571 25.2406 21.5457 25.1894 21.5338C25.1231 21.5182 25.057 21.5018 24.991 21.4849C24.9409 21.4721 24.8907 21.4593 24.8408 21.4458C24.7736 21.4275 24.7069 21.408 24.6402 21.3883C24.5921 21.3742 24.5439 21.3604 24.4961 21.3456C24.4262 21.3239 24.3568 21.3006 24.2874 21.2774C24.2435 21.2627 24.1994 21.2486 24.1557 21.2332C24.0756 21.2052 23.9962 21.1752 23.9168 21.1451C23.8845 21.1329 23.8519 21.1215 23.8198 21.1089C23.7087 21.0654 23.5984 21.02 23.4888 20.9725C23.4648 20.9621 23.4412 20.9506 23.4172 20.9401C23.3317 20.9021 23.2463 20.8638 23.1619 20.8235C23.1229 20.8049 23.0843 20.7851 23.0455 20.7659C22.9767 20.7321 22.9079 20.6982 22.8397 20.6626C22.7969 20.6403 22.7546 20.6168 22.7121 20.594C22.6486 20.5597 22.5852 20.5252 22.5224 20.4895C22.4785 20.4646 22.4353 20.4389 22.3917 20.4134C22.353 20.3906 22.3145 20.3673 22.2759 20.3439C22.5255 19.3874 23.1685 18.5727 24.037 18.1019Z" fill="#396EAC"/>
<path d="M32.4356 9.99509V8.78358V8.00402C32.4356 7.91605 32.4331 7.82871 32.4285 7.74191C32.4274 7.72204 32.4252 7.70238 32.424 7.68251C32.4196 7.61494 32.4146 7.54759 32.4075 7.48077C32.4053 7.45961 32.4019 7.43866 32.3995 7.41761C32.3916 7.35219 32.3832 7.28688 32.3729 7.22221C32.3696 7.20105 32.3653 7.1801 32.3616 7.15894C32.3505 7.0948 32.3387 7.03089 32.3251 6.96762C32.3204 6.9456 32.3149 6.9239 32.31 6.90198C32.2959 6.84043 32.2811 6.7792 32.2646 6.71851C32.2582 6.69466 32.2512 6.67103 32.2443 6.64718C32.2278 6.5896 32.2106 6.53234 32.1921 6.47563C32.1834 6.44898 32.1743 6.42267 32.1652 6.39624C32.147 6.34371 32.1282 6.29161 32.1083 6.23994C32.097 6.21019 32.0853 6.18054 32.0732 6.151C32.0542 6.10438 32.0346 6.05818 32.0142 6.01221C31.9994 5.97869 31.9845 5.94518 31.9689 5.91198C31.9502 5.87224 31.9308 5.83303 31.9111 5.79382C31.8921 5.7559 31.8731 5.71798 31.853 5.6806C31.8361 5.64912 31.8184 5.61808 31.8008 5.58692C31.7764 5.54353 31.752 5.50013 31.7264 5.45748C31.7143 5.43761 31.7015 5.41838 31.6893 5.39872C31.536 5.15251 31.3608 4.91919 31.1644 4.70166C31.1593 4.69586 31.1543 4.68995 31.1492 4.68426C31.1069 4.63774 31.063 4.59252 31.0189 4.54762C31.0042 4.53269 30.9897 4.51743 30.9748 4.50271C30.9348 4.46297 30.8936 4.42419 30.8521 4.38562C30.8312 4.36629 30.8104 4.34717 30.7892 4.32815C30.7699 4.31086 30.7516 4.29281 30.732 4.27584C30.7273 4.27154 30.7225 4.26725 30.7177 4.26306C30.7058 4.25264 30.6937 4.24275 30.6825 4.23362C30.645 4.20215 30.6072 4.17078 30.569 4.14049L30.5153 4.09849C30.4799 4.0712 30.4443 4.04435 30.4072 4.01728L30.3442 3.97205C30.3111 3.94874 30.2778 3.92575 30.2432 3.90266C30.2183 3.8859 30.1932 3.86925 30.1693 3.85399C30.139 3.83434 30.1083 3.81532 30.0752 3.79502L30.0619 3.78686C30.0381 3.77235 30.0144 3.75796 29.9901 3.74367C29.9647 3.72885 29.9391 3.71456 29.9118 3.69931C29.8964 3.69061 29.8811 3.68244 29.8657 3.67396C29.8573 3.66944 29.8491 3.66472 29.8407 3.66021C29.8294 3.65397 29.818 3.64753 29.8066 3.64151C29.7904 3.63292 29.7741 3.62465 29.7577 3.61648L29.7513 3.61326C29.7394 3.60714 29.7271 3.60209 29.7152 3.59597C29.6541 3.56514 29.5922 3.5356 29.5297 3.50734C29.5067 3.49692 29.4838 3.48618 29.4608 3.47608C29.3969 3.44826 29.3321 3.42216 29.2669 3.39713C29.2454 3.38886 29.2243 3.37973 29.2027 3.37178C29.1228 3.34234 29.0419 3.31484 28.96 3.28938C28.9173 3.27606 28.874 3.26479 28.8309 3.25265C28.7897 3.24104 28.7485 3.22923 28.7068 3.2187C28.659 3.20667 28.6109 3.19604 28.5628 3.1854C28.524 3.17681 28.4852 3.16854 28.4462 3.1608C28.3984 3.15156 28.3504 3.14286 28.3023 3.13502C28.26 3.12804 28.2174 3.12191 28.1748 3.11611C28.13 3.10999 28.0852 3.10387 28.0401 3.09893C27.9878 3.09323 27.9351 3.08915 27.8824 3.08507C27.8461 3.08228 27.8099 3.07873 27.7733 3.0768C27.6828 3.07186 27.5917 3.06885 27.4999 3.06885C24.7785 3.06885 22.5645 5.28292 22.5645 8.00435V8.38612V9.99541C22.5645 12.7168 24.7785 14.9309 27.4999 14.9309C30.2214 14.9309 32.4356 12.7165 32.4356 9.99509ZM27.6842 4.68512C27.7086 4.68651 27.7326 4.68877 27.7568 4.6907C27.7927 4.69339 27.8287 4.69629 27.8643 4.70016C27.8938 4.70338 27.923 4.70735 27.9522 4.71133C27.9825 4.71541 28.0127 4.71981 28.0428 4.72476C28.0732 4.7298 28.1036 4.73518 28.1337 4.74108C28.1637 4.74688 28.1936 4.75333 28.2233 4.75999C28.2516 4.76633 28.2799 4.77256 28.308 4.77954C28.3463 4.78921 28.3845 4.79984 28.4225 4.81091C28.441 4.81617 28.4597 4.82101 28.478 4.8267C28.5372 4.84507 28.5962 4.86483 28.6545 4.88675C28.6561 4.88739 28.6577 4.88804 28.6594 4.88868C28.7171 4.91038 28.7745 4.9338 28.8313 4.95883C28.8381 4.96173 28.8447 4.96495 28.8514 4.96785C28.9029 4.99084 28.9539 5.01533 29.0046 5.04111C29.0274 5.05271 29.0503 5.06399 29.0727 5.07603C29.0823 5.08129 29.0929 5.0872 29.1037 5.09321C29.1374 5.1118 29.1708 5.13103 29.2038 5.1509L29.2345 5.16938C29.2362 5.17045 29.238 5.17163 29.2398 5.1727C29.2765 5.19526 29.3128 5.21847 29.3486 5.24253C29.3577 5.24865 29.3663 5.25478 29.3753 5.2609C29.4082 5.28346 29.4407 5.30655 29.4728 5.33029C29.4834 5.33813 29.4936 5.34587 29.5039 5.35371C29.5356 5.37777 29.5669 5.40227 29.5976 5.4274C29.6072 5.43535 29.6168 5.44309 29.6258 5.45061C29.65 5.4708 29.6735 5.49153 29.697 5.51237C29.7177 5.53053 29.7381 5.54879 29.7582 5.56737C29.7789 5.5866 29.7993 5.60615 29.8195 5.62592C29.837 5.643 29.8543 5.66008 29.8714 5.67748C29.8929 5.69929 29.9139 5.72152 29.9348 5.74397C29.9499 5.7602 29.9649 5.77652 29.9796 5.79307C30.0009 5.81713 30.022 5.84141 30.0427 5.86601C30.0563 5.88212 30.0697 5.89823 30.0829 5.91456C30.1033 5.9397 30.1233 5.96526 30.143 5.99094C30.1561 6.00813 30.169 6.02531 30.1816 6.04261C30.2001 6.06774 30.2182 6.09331 30.236 6.11898C30.2492 6.13811 30.2622 6.15733 30.2749 6.17667C30.291 6.20116 30.3068 6.22576 30.3222 6.25058C30.3358 6.27238 30.3491 6.2943 30.3621 6.31632C30.3756 6.33909 30.3888 6.36208 30.4017 6.38528C30.4157 6.41031 30.4295 6.43556 30.4428 6.46102C30.4536 6.48164 30.4643 6.50237 30.4747 6.52332C30.489 6.55189 30.5028 6.58068 30.5162 6.60969C30.5247 6.62806 30.5331 6.64643 30.5413 6.6649C30.5552 6.6967 30.5689 6.72871 30.5819 6.76094C30.5887 6.77748 30.5951 6.79413 30.6015 6.81078C30.6148 6.84505 30.6274 6.87953 30.6395 6.91423C30.6448 6.9297 30.6501 6.94517 30.6551 6.96063C30.667 6.99651 30.6783 7.0325 30.689 7.06881C30.6935 7.08417 30.6979 7.09964 30.7022 7.11511C30.7123 7.15142 30.7217 7.18783 30.7307 7.22446C30.7346 7.24101 30.7385 7.25766 30.7422 7.27431C30.7501 7.30965 30.7576 7.3452 30.7644 7.38087C30.768 7.39999 30.7714 7.41922 30.7747 7.43845C30.7805 7.47186 30.7859 7.50526 30.7906 7.53878C30.7937 7.56123 30.7965 7.5839 30.7992 7.60656C30.8029 7.63718 30.8064 7.6679 30.8092 7.69873C30.81 7.70765 30.8105 7.71667 30.8112 7.72559C30.3617 7.5087 29.9743 7.17021 29.6932 6.73698C29.5569 6.52697 29.3307 6.39227 29.0812 6.37239C28.8313 6.3522 28.587 6.44995 28.4193 6.63579C27.6377 7.50193 26.5217 7.99876 25.3573 7.99876C24.9546 7.99876 24.5606 7.9414 24.1802 7.82785C24.186 7.71731 24.1972 7.60828 24.2135 7.50086C24.2158 7.48539 24.2191 7.47035 24.2215 7.45499C24.228 7.41643 24.2344 7.37797 24.2422 7.33983C24.2461 7.31996 24.2512 7.30062 24.2556 7.28097C24.263 7.24767 24.2702 7.21447 24.2786 7.1816C24.2841 7.16012 24.2904 7.13906 24.2963 7.1179C24.3048 7.08729 24.3131 7.05667 24.3224 7.02638C24.3292 7.00446 24.3368 6.98298 24.344 6.96128C24.3537 6.93217 24.3631 6.90295 24.3735 6.87405C24.3815 6.85214 24.3902 6.83076 24.3986 6.80917C24.4094 6.78113 24.4201 6.75299 24.4317 6.72527C24.4408 6.70347 24.4507 6.68198 24.4602 6.66039C24.4722 6.63353 24.484 6.60668 24.4965 6.58015C24.5069 6.55845 24.5178 6.53729 24.5286 6.5158C24.5416 6.48991 24.5546 6.46402 24.5682 6.43856C24.5796 6.41729 24.5915 6.39646 24.6033 6.37562C24.6174 6.35069 24.6315 6.32566 24.6462 6.30117C24.6586 6.28033 24.6716 6.25981 24.6846 6.2393C24.6997 6.21534 24.7148 6.19139 24.7305 6.16786C24.744 6.14756 24.758 6.12758 24.772 6.10749C24.7881 6.08439 24.8043 6.0613 24.821 6.03863C24.8355 6.01897 24.8503 5.99964 24.8651 5.98041C24.8823 5.95807 24.8996 5.93594 24.9172 5.91413C24.9326 5.89522 24.9483 5.87653 24.9639 5.85806C24.9821 5.83668 25.0004 5.81541 25.0189 5.79457C25.0353 5.77631 25.0518 5.75826 25.0686 5.74032C25.0876 5.71991 25.1068 5.69972 25.1262 5.67984C25.1434 5.66233 25.1608 5.64504 25.1785 5.62785C25.1983 5.60841 25.2185 5.58918 25.2388 5.57027C25.2569 5.55352 25.275 5.53697 25.2934 5.52064C25.3142 5.50217 25.3353 5.48391 25.3566 5.46597C25.3754 5.45007 25.3942 5.43438 25.4133 5.41892C25.4349 5.40141 25.4568 5.38422 25.4789 5.36735C25.4986 5.35231 25.5182 5.33738 25.5382 5.32267C25.5606 5.30634 25.5831 5.29033 25.6058 5.27454C25.6262 5.26036 25.6467 5.24618 25.6674 5.23243C25.6905 5.21707 25.7141 5.20225 25.7376 5.18742C25.7585 5.17421 25.7795 5.1611 25.8009 5.14843C25.8249 5.13403 25.8494 5.12018 25.8739 5.10632C25.8954 5.09429 25.9168 5.08215 25.9385 5.07055C25.9634 5.05723 25.9886 5.04455 26.0139 5.03187C26.0359 5.02081 26.0579 5.00964 26.0803 4.99911C26.1059 4.98697 26.1319 4.97548 26.1579 4.96388C26.1805 4.95389 26.2028 4.94379 26.2256 4.93434C26.252 4.92327 26.2789 4.91307 26.3056 4.90275C26.3286 4.89384 26.3514 4.88481 26.3746 4.87644C26.4018 4.86666 26.4293 4.85774 26.4567 4.84861C26.4801 4.84088 26.5033 4.83282 26.5269 4.82563C26.5549 4.81703 26.5831 4.8094 26.6114 4.80156C26.635 4.79501 26.6585 4.78813 26.6824 4.78201C26.7114 4.7746 26.7408 4.76826 26.7701 4.76171C26.7937 4.75645 26.817 4.75064 26.8407 4.74592C26.8712 4.73969 26.9021 4.73475 26.9329 4.72938C26.9559 4.7254 26.9786 4.72089 27.0017 4.71745C27.0345 4.71251 27.0678 4.70875 27.1009 4.70478C27.1224 4.7022 27.1437 4.69897 27.1653 4.69683C27.2023 4.69317 27.2397 4.69081 27.2769 4.68834C27.2951 4.68716 27.3131 4.68522 27.3314 4.68426C27.3872 4.68146 27.4431 4.67996 27.4995 4.67996C27.5617 4.67975 27.6231 4.68179 27.6842 4.68512ZM24.1759 9.99509V9.48763C24.562 9.56894 24.9568 9.60987 25.3577 9.60987C26.6664 9.60987 27.9307 9.15913 28.9412 8.35078C29.4662 8.87027 30.1125 9.24668 30.8242 9.44627V9.99498C30.8242 11.8279 29.333 13.3191 27.5001 13.3191C25.6671 13.3191 24.1759 11.828 24.1759 9.99509Z" fill="#396EAC"/>
<path d="M48.0802 47.7314H45.1529C42.701 47.7314 40.7061 49.7263 40.7061 52.1783V53.9104C40.7061 54.5112 41.1949 55 41.7958 55C42.2409 55 42.6015 54.6394 42.6015 54.1944C42.6015 53.9484 42.4913 53.7281 42.3174 53.5802V52.1783C42.3174 50.6148 43.5894 49.3428 45.1529 49.3428H48.0802C49.6438 49.3428 50.9157 50.6149 50.9157 52.1783V53.5802C50.742 53.7281 50.6317 53.9483 50.6317 54.1943C50.6317 54.6393 50.9923 54.9999 51.4374 54.9999C52.0382 54.9999 52.5271 54.5111 52.5271 53.9102V52.1783C52.5271 49.7263 50.5321 47.7314 48.0802 47.7314Z" fill="#396EAC"/>
<path d="M46.3477 35.4734C44.0195 35.4734 42.1255 37.3676 42.1255 39.6957V40.3491V42.0942C42.1255 44.5706 44.1402 46.5853 46.6166 46.5853C49.093 46.5853 51.1076 44.5706 51.1076 42.0942V40.5312V39.6957C51.1076 37.3676 49.2135 35.4734 46.8854 35.4734H46.3477ZM46.8854 37.0847C46.9626 37.0847 47.0389 37.0888 47.1144 37.0954C47.122 37.096 47.1297 37.0963 47.1374 37.0971C47.209 37.1039 47.2796 37.1143 47.3494 37.1268C47.3602 37.1288 47.3709 37.1305 47.3815 37.1326C47.4495 37.1457 47.5166 37.1617 47.5825 37.18C47.5937 37.1831 47.605 37.1863 47.6161 37.1896C47.6818 37.2088 47.7466 37.2303 47.8099 37.2544C47.8198 37.2582 47.8296 37.2622 47.8394 37.266C47.9038 37.2914 47.9673 37.3189 48.0291 37.3492C48.0357 37.3524 48.0422 37.356 48.0487 37.3593C48.1784 37.4241 48.3018 37.4994 48.4182 37.5839C48.4238 37.5881 48.4296 37.592 48.4352 37.596C48.4902 37.6368 48.5434 37.6799 48.595 37.7247C48.6027 37.7315 48.6105 37.7382 48.6183 37.7449C48.6682 37.7893 48.7163 37.8357 48.7627 37.8837C48.7705 37.8919 48.7783 37.8999 48.7861 37.9082C48.8318 37.9568 48.8758 38.007 48.9178 38.059C48.9243 38.0671 48.9306 38.0754 48.937 38.0835C48.9792 38.1371 49.0197 38.1921 49.0577 38.2491C49.0618 38.2552 49.0657 38.2615 49.0698 38.2678C49.1092 38.3278 49.1467 38.3892 49.1812 38.4526C49.1813 38.4529 49.1815 38.4533 49.1816 38.4536C49.216 38.5168 49.2472 38.5819 49.2763 38.648C49.2794 38.6548 49.2826 38.6615 49.2855 38.6682C49.3127 38.7316 49.337 38.7964 49.3593 38.8622C49.3627 38.8725 49.3664 38.8827 49.3697 38.8932C49.3906 38.9577 49.4089 39.0234 49.4248 39.09C49.4276 39.1019 49.4304 39.1138 49.4331 39.1257C49.448 39.1924 49.4605 39.2601 49.4702 39.3287C49.4709 39.3333 49.4713 39.3379 49.472 39.3425C49.1074 39.1387 48.855 38.9081 48.7854 38.6935C48.691 38.4024 48.4397 38.1899 48.137 38.1452C47.8345 38.1004 47.5324 38.231 47.3577 38.4822C46.9248 39.1047 45.1434 39.8025 43.7376 39.6819C43.7377 39.6593 43.7385 39.6368 43.7393 39.6144C43.7399 39.5948 43.74 39.5752 43.7411 39.5558C43.7424 39.5314 43.7447 39.5073 43.7467 39.483C43.7483 39.4631 43.7495 39.4432 43.7515 39.4234C43.754 39.3999 43.7574 39.3766 43.7604 39.3532C43.763 39.3332 43.7653 39.313 43.7684 39.2931C43.7719 39.2703 43.7765 39.2479 43.7805 39.2253C43.7842 39.2051 43.7875 39.1848 43.7917 39.1648C43.7962 39.1429 43.8017 39.1214 43.8067 39.0997C43.8115 39.0794 43.8159 39.059 43.8211 39.0389C43.8265 39.0181 43.8327 38.9977 43.8388 38.9772C43.8447 38.9564 43.8503 38.9356 43.8567 38.9152C43.8629 38.8954 43.8699 38.8761 43.8766 38.8565C43.8837 38.8358 43.8904 38.8149 43.8979 38.7942C43.905 38.7751 43.9129 38.7564 43.9203 38.7375C43.9285 38.717 43.9363 38.6963 43.9449 38.676C43.9527 38.6576 43.9613 38.6396 43.9695 38.6215C43.9787 38.6012 43.9876 38.5807 43.9973 38.5607C44.0059 38.5431 44.0151 38.526 44.0241 38.5086C44.0344 38.4885 44.0444 38.4682 44.0552 38.4483C44.0643 38.4315 44.0743 38.4151 44.0839 38.3986C44.0953 38.3788 44.1063 38.3588 44.1183 38.3393C44.1284 38.3229 44.139 38.307 44.1494 38.2907C44.1617 38.2716 44.1736 38.2524 44.1864 38.2337C44.1971 38.2179 44.2085 38.2025 44.2196 38.187C44.2328 38.1685 44.2457 38.1497 44.2593 38.1315C44.2706 38.1165 44.2825 38.102 44.2941 38.0872C44.3083 38.0691 44.3223 38.0508 44.3369 38.0331C44.3488 38.0187 44.3615 38.0048 44.3737 37.9906C44.3888 37.9732 44.4035 37.9556 44.4189 37.9387C44.4317 37.9248 44.445 37.9113 44.4582 37.8976C44.4738 37.8811 44.4893 37.8643 44.5054 37.8483C44.5187 37.835 44.5326 37.8224 44.5461 37.8095C44.5628 37.7936 44.5791 37.7775 44.5961 37.7621C44.6102 37.7493 44.6248 37.7373 44.6391 37.7248C44.6562 37.7099 44.6731 37.6948 44.6907 37.6803C44.7059 37.6678 44.7216 37.656 44.7369 37.644C44.7543 37.6303 44.7714 37.6163 44.7891 37.603C44.8049 37.5913 44.8212 37.5803 44.8372 37.5688C44.8553 37.5559 44.8731 37.5427 44.8915 37.5303C44.9074 37.5196 44.9237 37.5097 44.9398 37.4993C44.959 37.487 44.9779 37.4744 44.9972 37.4625C45.0138 37.4524 45.031 37.4431 45.0479 37.4334C45.0673 37.4222 45.0866 37.4106 45.1063 37.3999C45.1245 37.39 45.1433 37.381 45.1617 37.3714C45.1806 37.3618 45.1994 37.3517 45.2185 37.3423C45.2379 37.333 45.2579 37.3244 45.2777 37.3155C45.2965 37.307 45.3151 37.2981 45.3341 37.2901C45.353 37.282 45.3723 37.275 45.3915 37.2674C45.4118 37.2594 45.4319 37.251 45.4526 37.2434C45.4718 37.2364 45.4913 37.2302 45.5108 37.2236C45.5317 37.2165 45.5525 37.209 45.5736 37.2023C45.5951 37.1957 45.6169 37.19 45.6386 37.1839C45.6581 37.1783 45.6774 37.1724 45.6971 37.1672C45.7196 37.1614 45.7427 37.1566 45.7655 37.1514C45.7847 37.147 45.8037 37.1421 45.8232 37.1381C45.8469 37.1333 45.8712 37.1294 45.8951 37.1252C45.9139 37.122 45.9324 37.1181 45.9513 37.1152C45.9794 37.1109 46.0077 37.1078 46.036 37.1044C46.0512 37.1025 46.0663 37.1002 46.0816 37.0986C46.1105 37.0957 46.1398 37.094 46.1691 37.0919C46.184 37.0908 46.1989 37.0892 46.214 37.0885C46.2583 37.0862 46.3029 37.085 46.3478 37.085H46.8854V37.0847ZM46.6166 44.9739C45.0287 44.9739 43.7368 43.6821 43.7368 42.0941V41.2924C45.1648 41.3768 46.8186 40.926 47.8887 40.1698C48.3654 40.6274 48.9888 40.9298 49.4961 41.1184V42.0941C49.4962 43.6821 48.2044 44.9739 46.6166 44.9739Z" fill="#396EAC"/>
<path d="M28.9637 47.7314H26.0364C23.5845 47.7314 21.5896 49.7263 21.5896 52.1783V53.9104C21.5896 54.5112 22.0785 55 22.6793 55C23.1243 55 23.485 54.6394 23.485 54.1944C23.485 53.9484 23.3747 53.7282 23.2009 53.5804V52.1783C23.2009 50.6148 24.4729 49.3428 26.0364 49.3428H28.9637C30.5272 49.3428 31.7992 50.6149 31.7992 52.1783V53.5802C31.6255 53.7281 31.5152 53.9483 31.5152 54.1943C31.5152 54.6393 31.8758 54.9999 32.3208 54.9999C32.9216 54.9999 33.4105 54.5111 33.4105 53.9102V52.1783C33.4105 49.7263 31.4156 47.7314 28.9637 47.7314Z" fill="#396EAC"/>
<path d="M27.2311 35.4734C24.903 35.4734 23.0088 37.3676 23.0088 39.6957V40.3491V42.0942C23.0088 44.5706 25.0235 46.5853 27.4999 46.5853C29.9763 46.5853 31.991 44.5706 31.991 42.0942V40.5312V39.6957C31.991 37.3676 30.0968 35.4734 27.7687 35.4734H27.2311ZM27.7687 37.0847C27.8459 37.0847 27.9222 37.0888 27.9977 37.0954C28.0053 37.096 28.013 37.0963 28.0207 37.0971C28.0923 37.1039 28.1629 37.1143 28.2327 37.1268C28.2435 37.1288 28.2542 37.1306 28.2648 37.1326C28.3328 37.1457 28.3998 37.1617 28.4658 37.18C28.4771 37.1831 28.4883 37.1863 28.4995 37.1896C28.5652 37.2087 28.6299 37.2303 28.6933 37.2543C28.7032 37.2581 28.7129 37.2621 28.7228 37.2659C28.7872 37.2913 28.8507 37.3188 28.9125 37.3491C28.9191 37.3523 28.9255 37.3558 28.932 37.3592C29.0616 37.424 29.1851 37.4991 29.3013 37.5838C29.307 37.588 29.3129 37.5919 29.3186 37.596C29.3736 37.6368 29.4266 37.6798 29.4782 37.7246C29.486 37.7314 29.4938 37.7381 29.5016 37.7449C29.5514 37.7893 29.5995 37.8357 29.6458 37.8837C29.6537 37.8919 29.6615 37.9 29.6693 37.9082C29.7149 37.9568 29.759 38.0069 29.8009 38.0589C29.8074 38.0671 29.8139 38.0755 29.8203 38.0836C29.8624 38.1372 29.9029 38.1921 29.9409 38.249C29.945 38.2551 29.9489 38.2614 29.953 38.2676C29.9924 38.3277 30.0299 38.3891 30.0644 38.4525C30.0645 38.4528 30.0647 38.4532 30.0648 38.4535C30.0991 38.5167 30.1304 38.5816 30.1595 38.6478C30.1625 38.6546 30.1658 38.6612 30.1687 38.668C30.1958 38.7313 30.2202 38.7962 30.2425 38.8619C30.2459 38.8722 30.2496 38.8824 30.2529 38.8928C30.2738 38.9574 30.2921 39.023 30.308 39.0896C30.3108 39.1016 30.3136 39.1135 30.3163 39.1254C30.3312 39.1921 30.3437 39.2598 30.3534 39.3283C30.3541 39.3329 30.3545 39.3376 30.3552 39.3422C29.9906 39.1384 29.7382 38.9078 29.6686 38.6931C29.5742 38.402 29.3229 38.1895 29.0202 38.1449C28.7175 38.1002 28.4155 38.2307 28.2409 38.4818C27.808 39.1044 26.0263 39.8021 24.6207 39.6815C24.6208 39.659 24.6216 39.6365 24.6224 39.6141C24.623 39.5945 24.6231 39.5749 24.6242 39.5555C24.6255 39.531 24.6277 39.507 24.6298 39.4827C24.6314 39.4628 24.6326 39.4428 24.6346 39.4231C24.6371 39.3996 24.6405 39.3762 24.6435 39.3529C24.6462 39.3328 24.6484 39.3126 24.6515 39.2928C24.655 39.27 24.6595 39.2475 24.6636 39.225C24.6673 39.2048 24.6706 39.1845 24.6748 39.1645C24.6793 39.1426 24.6848 39.1211 24.6898 39.0994C24.6946 39.0791 24.699 39.0587 24.7042 39.0386C24.7096 39.0178 24.7159 38.9974 24.7218 38.9768C24.7278 38.9561 24.7333 38.9353 24.7398 38.9149C24.746 38.8951 24.753 38.8758 24.7597 38.8562C24.7667 38.8355 24.7735 38.8145 24.781 38.7939C24.7882 38.7746 24.7962 38.7557 24.8037 38.7364C24.8118 38.7161 24.8195 38.6957 24.828 38.6757C24.8359 38.6571 24.8447 38.6388 24.853 38.6203C24.8621 38.6002 24.8709 38.58 24.8805 38.5603C24.8892 38.5424 24.8986 38.525 24.9076 38.5074C24.9178 38.4875 24.9277 38.4675 24.9384 38.4479C24.9476 38.431 24.9575 38.4146 24.9672 38.3979C24.9786 38.3781 24.9896 38.3582 25.0016 38.3387C25.0112 38.3228 25.0217 38.3073 25.0318 38.2916C25.0443 38.272 25.0566 38.2523 25.0697 38.2331C25.0802 38.2175 25.0915 38.2024 25.1023 38.1872C25.1157 38.1684 25.1288 38.1494 25.1426 38.131C25.1541 38.1158 25.1662 38.101 25.178 38.086C25.1919 38.0682 25.2057 38.0501 25.2202 38.0326C25.2324 38.0179 25.2452 38.0037 25.2577 37.9893C25.2725 37.9722 25.287 37.9548 25.3022 37.9382C25.315 37.9242 25.3283 37.9108 25.3415 37.897C25.3571 37.8806 25.3726 37.8637 25.3888 37.8477C25.4023 37.8343 25.4164 37.8214 25.4302 37.8083C25.4465 37.7926 25.4626 37.7768 25.4794 37.7616C25.4938 37.7486 25.5087 37.7362 25.5233 37.7236C25.5402 37.7089 25.5569 37.6939 25.5741 37.6797C25.5891 37.6675 25.6045 37.6559 25.6197 37.644C25.6373 37.6301 25.6547 37.6159 25.6726 37.6025C25.6881 37.591 25.7042 37.5801 25.72 37.5689C25.7383 37.5559 25.7564 37.5424 25.775 37.5299C25.7907 37.5193 25.8068 37.5096 25.8227 37.4993C25.842 37.4868 25.8612 37.474 25.8809 37.4621C25.8973 37.4522 25.9141 37.443 25.9307 37.4334C25.9504 37.422 25.97 37.4102 25.9901 37.3994C26.0083 37.3895 26.027 37.3803 26.0455 37.3709C26.0644 37.3612 26.0831 37.3511 26.1023 37.3418C26.1218 37.3324 26.1417 37.3238 26.1615 37.3149C26.1803 37.3064 26.1988 37.2975 26.2178 37.2896C26.237 37.2814 26.2567 37.2741 26.2761 37.2665C26.2961 37.2586 26.316 37.2503 26.3362 37.2428C26.3557 37.2356 26.3757 37.2294 26.3955 37.2226C26.4161 37.2157 26.4364 37.2083 26.4572 37.2018C26.4787 37.1951 26.5006 37.1895 26.5223 37.1833C26.5418 37.1779 26.5611 37.1718 26.5808 37.1668C26.6038 37.1609 26.6271 37.156 26.6503 37.1508C26.6692 37.1465 26.6879 37.1416 26.7069 37.1377C26.731 37.1327 26.7554 37.1289 26.7798 37.1246C26.7983 37.1213 26.8166 37.1176 26.8352 37.1147C26.8632 37.1104 26.8916 37.1073 26.9198 37.1038C26.9351 37.102 26.9501 37.0996 26.9654 37.098C26.9939 37.0951 27.0228 37.0934 27.0517 37.0914C27.0671 37.0903 27.0822 37.0887 27.0977 37.0879C27.1421 37.0857 27.1866 37.0845 27.2315 37.0845H27.7687V37.0847ZM27.4999 44.9739C25.912 44.9739 24.6201 43.6821 24.6201 42.0941V41.2926C26.0481 41.3771 27.7019 40.9262 28.7721 40.1698C29.2488 40.6274 29.8722 40.9298 30.3795 41.1184V42.0941C30.3796 43.6821 29.0878 44.9739 27.4999 44.9739Z" fill="#396EAC"/>
<path d="M9.84709 47.7314H6.91974C4.46783 47.7314 2.4729 49.7263 2.4729 52.1783V53.9104C2.4729 54.5112 2.96178 55 3.56259 55C4.00764 55 4.36825 54.6394 4.36825 54.1944C4.36825 53.9484 4.25804 53.7282 4.08423 53.5804V52.1783C4.08423 50.6148 5.35621 49.3428 6.91974 49.3428H9.84709C11.4106 49.3428 12.6826 50.6149 12.6826 52.1783V53.5801C12.5088 53.7279 12.3985 53.9483 12.3985 54.1943C12.3985 54.6393 12.7591 54.9999 13.2041 54.9999C13.8051 54.9999 14.2939 54.5111 14.2939 53.9102V52.1783C14.2938 49.7263 12.299 47.7314 9.84709 47.7314Z" fill="#396EAC"/>
<path d="M8.38332 46.5853C10.8597 46.5853 12.8744 44.5706 12.8744 42.0942V40.5312V39.6957C12.8744 37.3676 10.9804 35.4734 8.6522 35.4734H8.11455C5.7864 35.4734 3.89233 37.3676 3.89233 39.6957V40.3491V42.0942C3.89233 44.5706 5.90692 46.5853 8.38332 46.5853ZM8.38332 44.974C6.79552 44.974 5.50366 43.6822 5.50366 42.0942V41.2926C6.93173 41.3771 8.58549 40.9261 9.65552 40.1699C10.1323 40.6275 10.7557 40.9299 11.263 41.1185V42.0942C11.2631 43.6822 9.97123 44.974 8.38332 44.974ZM8.6522 37.0848C8.72943 37.0848 8.8057 37.0889 8.88122 37.0955C8.88885 37.0961 8.89658 37.0964 8.90421 37.0972C8.97586 37.1041 9.04644 37.1144 9.11626 37.1269C9.127 37.1289 9.13774 37.1306 9.14838 37.1327C9.21638 37.1458 9.28341 37.1618 9.34937 37.1801C9.36065 37.1832 9.37182 37.1864 9.38299 37.1897C9.44862 37.2089 9.5134 37.2304 9.57678 37.2545C9.58666 37.2583 9.59633 37.2623 9.60621 37.2662C9.67066 37.2915 9.73415 37.319 9.79592 37.3493C9.80258 37.3525 9.80892 37.3561 9.81558 37.3594C9.94523 37.4242 10.0687 37.4995 10.185 37.584C10.1907 37.5882 10.1965 37.5921 10.2021 37.5961C10.2571 37.6369 10.3101 37.68 10.3618 37.7248C10.3696 37.7316 10.3774 37.7383 10.3851 37.745C10.4351 37.7894 10.4831 37.8358 10.5295 37.8838C10.5373 37.892 10.5452 37.9 10.5528 37.9083C10.5986 37.9569 10.6425 38.0071 10.6845 38.0591C10.6911 38.0672 10.6973 38.0755 10.7037 38.0836C10.746 38.1372 10.7865 38.1922 10.8245 38.2492C10.8286 38.2553 10.8324 38.2616 10.8365 38.2679C10.8759 38.3279 10.9134 38.3894 10.9478 38.4527C10.9479 38.4531 10.9481 38.4534 10.9482 38.4537C10.9826 38.5169 11.0139 38.582 11.043 38.6481C11.046 38.6549 11.0492 38.6616 11.0521 38.6683C11.0793 38.7317 11.1037 38.7965 11.1259 38.8623C11.1293 38.8726 11.133 38.8828 11.1363 38.8933C11.1573 38.9578 11.1755 39.0235 11.1914 39.0901C11.1942 39.102 11.197 39.1139 11.1997 39.1258C11.2146 39.1925 11.2271 39.2602 11.2369 39.3288C11.2375 39.3334 11.2379 39.338 11.2386 39.3426C10.874 39.1388 10.6217 38.9082 10.5521 38.6936C10.4576 38.4025 10.2064 38.19 9.90366 38.1453C9.60116 38.1005 9.29899 38.2311 9.12432 38.4823C8.69141 39.1048 6.91035 39.8025 5.5042 39.682C5.50431 39.6594 5.50517 39.637 5.50592 39.6145C5.50656 39.5949 5.50667 39.5753 5.50774 39.556C5.50903 39.5315 5.51129 39.5074 5.51333 39.4831C5.51494 39.4632 5.51612 39.4433 5.51816 39.4235C5.52063 39.4 5.52407 39.3767 5.52708 39.3534C5.52977 39.3333 5.53191 39.3131 5.53503 39.2932C5.53857 39.2704 5.54309 39.248 5.54717 39.2254C5.55082 39.2052 5.55415 39.1849 5.55834 39.1649C5.56285 39.143 5.56833 39.1215 5.57338 39.0998C5.57811 39.0795 5.58251 39.0591 5.58777 39.039C5.59314 39.0182 5.59948 38.9978 5.60539 38.9773C5.6113 38.9565 5.61688 38.9357 5.62333 38.9153C5.62956 38.8955 5.63654 38.8762 5.6432 38.8566C5.65029 38.8359 5.65706 38.815 5.66458 38.7943C5.67167 38.7752 5.67951 38.7565 5.68692 38.7376C5.69509 38.7171 5.70293 38.6964 5.71152 38.6761C5.71937 38.6577 5.72796 38.6398 5.73612 38.6216C5.74536 38.6013 5.75428 38.5808 5.76395 38.5608C5.77254 38.5432 5.78178 38.5261 5.79069 38.5087C5.80101 38.4886 5.811 38.4683 5.82185 38.4484C5.83108 38.4316 5.84097 38.4152 5.85053 38.3987C5.86191 38.3789 5.87298 38.359 5.8849 38.3394C5.895 38.323 5.90563 38.3071 5.91605 38.2908C5.9283 38.2717 5.94022 38.2525 5.95301 38.2338C5.96375 38.218 5.97514 38.2027 5.9862 38.1871C5.99941 38.1686 6.0123 38.1498 6.02595 38.1316C6.03723 38.1166 6.04915 38.1021 6.06075 38.0873C6.07493 38.0692 6.0889 38.0509 6.10351 38.0332C6.11543 38.0189 6.12811 38.0049 6.14035 37.9907C6.15539 37.9733 6.17011 37.9557 6.18558 37.9388C6.19836 37.9249 6.21168 37.9114 6.22479 37.8977C6.24047 37.8812 6.25594 37.8644 6.27216 37.8484C6.28548 37.8351 6.29934 37.8225 6.31287 37.8096C6.32941 37.7937 6.34585 37.7776 6.36282 37.7622C6.37689 37.7494 6.3915 37.7374 6.4059 37.7249C6.42309 37.71 6.43995 37.6949 6.45757 37.6804C6.47272 37.6679 6.4884 37.6561 6.50376 37.6441C6.52116 37.6304 6.53824 37.6165 6.55597 37.6031C6.57176 37.5914 6.58809 37.5804 6.60409 37.5689C6.62214 37.556 6.63997 37.5428 6.65834 37.5304C6.67424 37.5197 6.69057 37.5098 6.70668 37.4994C6.7258 37.4871 6.74471 37.4746 6.76404 37.4626C6.78069 37.4525 6.79788 37.4432 6.81475 37.4335C6.83419 37.4223 6.85342 37.4107 6.87318 37.4C6.89134 37.3901 6.91014 37.3811 6.92851 37.3715C6.94741 37.3619 6.96621 37.3518 6.98533 37.3424C7.00478 37.3331 7.02476 37.3245 7.04452 37.3156C7.06332 37.3071 7.0819 37.2982 7.10092 37.2902C7.11982 37.2822 7.13927 37.2751 7.15839 37.2675C7.17869 37.2595 7.19878 37.2511 7.2194 37.2435C7.23863 37.2365 7.25818 37.2303 7.27763 37.2237C7.29857 37.2166 7.31931 37.2091 7.34047 37.2025C7.36195 37.1958 7.38376 37.1901 7.40546 37.184C7.42501 37.1784 7.44424 37.1725 7.4639 37.1673C7.48646 37.1615 7.50955 37.1567 7.53232 37.1515C7.55155 37.1471 7.57057 37.1422 7.59001 37.1382C7.61375 37.1334 7.63803 37.1295 7.66198 37.1253C7.68078 37.1221 7.69926 37.1182 7.71816 37.1153C7.7462 37.111 7.77456 37.1079 7.80281 37.1045C7.81807 37.1027 7.83311 37.1003 7.84847 37.0987C7.87736 37.0958 7.90669 37.0941 7.93591 37.092C7.95095 37.0909 7.96577 37.0893 7.98081 37.0886C8.02518 37.0863 8.06976 37.0851 8.11466 37.0851H8.6522V37.0848Z" fill="#396EAC"/>
<path d="M8.3833 33.4233C8.82835 33.4233 9.18897 33.0626 9.18897 32.6176V29.7077H26.6942V32.6176C26.6942 33.0626 27.0548 33.4233 27.4999 33.4233C27.9449 33.4233 28.3056 33.0626 28.3056 32.6176V29.7077H45.8108V32.6176C45.8108 33.0626 46.1714 33.4233 46.6165 33.4233C47.0615 33.4233 47.4221 33.0626 47.4221 32.6176V28.9021C47.4221 28.457 47.0615 28.0964 46.6165 28.0964H28.3056V26.5959C28.3056 26.1509 27.9449 25.7903 27.4999 25.7903C27.0548 25.7903 26.6942 26.1509 26.6942 26.5959V28.0964H8.3833C7.93825 28.0964 7.57764 28.457 7.57764 28.9021V32.6176C7.57764 33.0625 7.93825 33.4233 8.3833 33.4233Z" fill="#396EAC"/>
</g>
<defs>
<clipPath id="clip0_416_1273">
<rect width="55" height="55" fill="white"/>
</clipPath>
</defs>
</svg>
