<svg width="55" height="55" viewBox="0 0 55 55" fill="none" xmlns="http://www.w3.org/2000/svg">
<g clip-path="url(#clip0_416_1272)">
<path d="M53.9991 11.763L49.1866 8.76705C49.1261 8.72945 49.061 8.70088 48.9934 8.68047C48.992 8.68004 48.9907 8.67939 48.9895 8.67907C48.964 8.67155 48.938 8.6665 48.912 8.66156C48.9022 8.65974 48.8928 8.65694 48.883 8.65544C48.8603 8.652 48.8375 8.65082 48.8145 8.64921C48.8009 8.64824 48.7876 8.64663 48.7741 8.64642C48.7697 8.64631 48.7653 8.64545 48.7609 8.64545H45.1615C44.8151 6.84367 43.2275 5.47802 41.3261 5.47802H39.9017V3.90698C39.9017 3.46204 39.541 3.10132 39.096 3.10132C38.6511 3.10132 38.2904 3.46204 38.2904 3.90698V5.47791H31.7283V3.90698C31.7283 3.46204 31.3676 3.10132 30.9227 3.10132C30.4777 3.10132 30.117 3.46204 30.117 3.90698V5.47791H23.555V3.90698C23.555 3.46204 23.1942 3.10132 22.7493 3.10132C22.3044 3.10132 21.9436 3.46204 21.9436 3.90698V5.47791H15.3816V3.90698C15.3816 3.46204 15.0209 3.10132 14.5759 3.10132C14.131 3.10132 13.7703 3.46204 13.7703 3.90698V5.47791H9.24512C8.80018 5.47791 8.43946 5.83863 8.43946 6.28357V8.64534H2.15595C1.29765 8.64534 0.557088 9.15108 0.210439 9.87919C0.0769138 10.1593 0 10.4715 0 10.8019V11.3913C0 11.8362 0.360721 12.1969 0.805661 12.1969C1.2506 12.1969 1.61132 11.8362 1.61132 11.3913V10.8024C1.61132 10.7156 1.63356 10.6345 1.66965 10.5616C1.75881 10.382 1.9424 10.2571 2.15616 10.2571H4.47808C4.43264 10.4312 4.40836 10.6138 4.40836 10.8019V16.3291C4.40836 16.5172 4.43253 16.6997 4.47808 16.8738H2.15595C2.08086 16.8738 2.00932 16.8586 1.94422 16.831C1.9425 16.8302 1.941 16.829 1.93928 16.8283C1.90866 16.815 1.87923 16.7993 1.85184 16.7807C1.70682 16.6827 1.61132 16.5169 1.61132 16.3291V14.6139C1.61132 14.169 1.2506 13.8082 0.805661 13.8082C0.360721 13.8082 0 14.169 0 14.6139V16.3291C0 17.0721 0.377801 17.7286 0.951432 18.1164C0.997408 18.1474 1.04553 18.1755 1.09387 18.2031C1.1058 18.2098 1.11697 18.2179 1.12911 18.2244C1.43461 18.3906 1.78459 18.4852 2.15616 18.4852H6.56463C6.56539 18.4852 6.56603 18.485 6.56667 18.485H8.43946V39.1843C8.43946 39.6293 8.80018 39.99 9.24512 39.99C9.69006 39.99 10.0508 39.6293 10.0508 39.1843V7.08923H13.7703V8.66017C13.7703 9.10511 14.131 9.46583 14.5759 9.46583C15.0209 9.46583 15.3816 9.10511 15.3816 8.66017V7.08923H21.9436V8.66017C21.9436 9.10511 22.3044 9.46583 22.7493 9.46583C23.1942 9.46583 23.555 9.10511 23.555 8.66017V7.08923H30.117V8.66017C30.117 9.10511 30.4777 9.46583 30.9227 9.46583C31.3676 9.46583 31.7283 9.10511 31.7283 8.66017V7.08923H38.2904V8.66017C38.2904 9.10511 38.6511 9.46583 39.096 9.46583C39.541 9.46583 39.9017 9.10511 39.9017 8.66017V7.08923H41.3259C42.5914 7.08923 43.621 8.11876 43.621 9.38429V9.44273C43.621 9.44553 43.6205 9.44821 43.6205 9.451C43.6205 9.4538 43.621 9.45648 43.621 9.45927V17.6711C43.621 17.6739 43.6205 17.6766 43.6205 17.6794C43.6205 17.6822 43.621 17.6849 43.621 17.6877V22.6705C43.621 23.1154 43.9817 23.4762 44.4266 23.4762C44.8716 23.4762 45.2323 23.1154 45.2323 22.6705V18.4849H48.7586C48.7591 18.4849 48.7597 18.485 48.7603 18.485C48.7977 18.485 48.8351 18.4824 48.8723 18.4772C48.8835 18.4756 48.8944 18.4723 48.9055 18.4702C48.9308 18.4656 48.9562 18.4613 48.9811 18.4542C49.0046 18.4476 49.0273 18.4382 49.0501 18.4294C49.0621 18.4248 49.0743 18.4216 49.086 18.4164C49.1206 18.4011 49.1541 18.3835 49.1865 18.3634L53.9991 15.3684C54.6259 14.9782 55.0001 14.3042 55 13.5657C55 12.8272 54.6259 12.1533 53.9991 11.763ZM6.56356 16.8738C6.26364 16.8733 6.01968 16.6291 6.01968 16.3291V10.8019C6.01968 10.5015 6.26407 10.2571 6.56453 10.2571C6.56732 10.2571 6.57 10.2567 6.5728 10.2567H8.43935V16.8738H6.56356ZM53.3885 13.5656C53.3885 13.6511 53.3649 13.8645 53.1471 14.0002L49.5661 16.2292V10.9019L53.1471 13.1309C53.3649 13.2666 53.3885 13.4801 53.3885 13.5656ZM45.2324 10.2567H47.9548V16.8738H45.2324V10.2567Z" fill="#396EAC"/>
<path d="M44.4266 25.0876C43.9817 25.0876 43.6209 25.4484 43.6209 25.8933V41.3822H35.5216C35.0766 41.3822 34.7159 41.7429 34.7159 42.1879V50.2872H12.3458C11.0803 50.2872 10.0508 49.2577 10.0508 47.9922V42.4071C10.0508 41.9622 9.69005 41.6014 9.24511 41.6014C8.80017 41.6014 8.43945 41.9622 8.43945 42.4071V47.9922C8.43945 50.1462 10.1918 51.8985 12.3458 51.8985H35.5216C35.5249 51.8985 35.5281 51.8981 35.5314 51.8981C35.5545 51.8978 35.5774 51.8969 35.6003 51.8947C35.6128 51.8935 35.625 51.891 35.6374 51.8892C35.651 51.8872 35.6647 51.8858 35.6782 51.8831C35.6912 51.8805 35.704 51.8767 35.7169 51.8735C35.7294 51.8704 35.7421 51.8678 35.7545 51.8641C35.7666 51.8604 35.7784 51.8556 35.7903 51.8514C35.8031 51.8469 35.8161 51.8428 35.8287 51.8376C35.8393 51.8332 35.8494 51.8279 35.86 51.823C35.8734 51.8168 35.887 51.811 35.9001 51.804C35.91 51.7987 35.9193 51.7925 35.9289 51.7869C35.942 51.7792 35.9553 51.772 35.968 51.7635C35.9789 51.7563 35.9891 51.748 35.9996 51.7402C36.0103 51.7323 36.0215 51.7248 36.0319 51.7162C36.0526 51.6994 36.0724 51.6814 36.0914 51.6624L44.9966 42.7574C44.9969 42.7571 44.9972 42.7566 44.9975 42.7562C45.0225 42.7312 45.0449 42.7042 45.0662 42.6764C45.0718 42.6691 45.0773 42.6618 45.0825 42.6543C45.1027 42.6259 45.1216 42.5969 45.1378 42.5663C45.1389 42.5642 45.1398 42.562 45.1408 42.5599C45.1559 42.531 45.1687 42.5011 45.1802 42.4706C45.1834 42.462 45.1865 42.4534 45.1894 42.4447C45.2004 42.4123 45.21 42.3793 45.2168 42.3454C45.217 42.3442 45.2171 42.3429 45.2173 42.3416C45.2237 42.309 45.2273 42.2759 45.2297 42.2426C45.2303 42.2331 45.2308 42.2236 45.2311 42.214C45.2314 42.2051 45.2324 42.1964 45.2324 42.1876V25.8933C45.2323 25.4484 44.8715 25.0876 44.4266 25.0876ZM36.3271 42.9935H42.4815L36.3271 49.1479V42.9935V42.9935Z" fill="#396EAC"/>
<path d="M16.2407 18.7735C16.398 18.9308 16.6043 19.0095 16.8104 19.0095C17.0165 19.0095 17.2228 18.9309 17.3801 18.7735L20.3456 15.8079C20.6603 15.4933 20.6603 14.9831 20.3456 14.6686C20.031 14.354 19.5209 14.354 19.2063 14.6686L16.8104 17.0645L15.7867 16.0408C15.472 15.7262 14.9619 15.7262 14.6474 16.0408C14.3327 16.3554 14.3327 16.8656 14.6474 17.1801L16.2407 18.7735Z" fill="#396EAC"/>
<path d="M26.5703 15.6311H37.8573C38.3023 15.6311 38.663 15.2704 38.663 14.8254C38.663 14.3805 38.3023 14.0198 37.8573 14.0198H26.5703C26.1254 14.0198 25.7646 14.3805 25.7646 14.8254C25.7646 15.2704 26.1254 15.6311 26.5703 15.6311Z" fill="#396EAC"/>
<path d="M26.5703 19.4224H30.5539C30.9989 19.4224 31.3596 19.0616 31.3596 18.6167C31.3596 18.1718 30.9989 17.811 30.5539 17.811H26.5703C26.1254 17.811 25.7646 18.1718 25.7646 18.6167C25.7646 19.0616 26.1254 19.4224 26.5703 19.4224Z" fill="#396EAC"/>
<path d="M14.6474 28.4891L16.2408 30.0826C16.3919 30.2337 16.5968 30.3186 16.8105 30.3186C17.0241 30.3186 17.2291 30.2337 17.3801 30.0826L20.3457 27.117C20.6604 26.8024 20.6604 26.2922 20.3457 25.9777C20.0311 25.663 19.5209 25.663 19.2064 25.9777L16.8105 28.3736L15.7868 27.3498C15.4721 27.035 14.962 27.0351 14.6474 27.3498C14.3327 27.6643 14.3327 28.1744 14.6474 28.4891Z" fill="#396EAC"/>
<path d="M26.5703 26.9402H37.8573C38.3023 26.9402 38.663 26.5795 38.663 26.1345C38.663 25.6896 38.3023 25.3289 37.8573 25.3289H26.5703C26.1254 25.3289 25.7646 25.6896 25.7646 26.1345C25.7646 26.5795 26.1254 26.9402 26.5703 26.9402Z" fill="#396EAC"/>
<path d="M26.5703 30.7317H30.5539C30.9989 30.7317 31.3596 30.371 31.3596 29.926C31.3596 29.4811 30.9989 29.1204 30.5539 29.1204H26.5703C26.1254 29.1204 25.7646 29.4811 25.7646 29.926C25.7646 30.371 26.1254 30.7317 26.5703 30.7317Z" fill="#396EAC"/>
<path d="M26.5703 38.2493H37.8573C38.3023 38.2493 38.663 37.8885 38.663 37.4436C38.663 36.9987 38.3023 36.6379 37.8573 36.6379H26.5703C26.1254 36.6379 25.7646 36.9987 25.7646 37.4436C25.7646 37.8885 26.1254 38.2493 26.5703 38.2493Z" fill="#396EAC"/>
<path d="M26.5703 42.0408H30.5539C30.9989 42.0408 31.3596 41.68 31.3596 41.2351C31.3596 40.7902 30.9989 40.4294 30.5539 40.4294H26.5703C26.1254 40.4294 25.7646 40.7902 25.7646 41.2351C25.7646 41.68 26.1254 42.0408 26.5703 42.0408Z" fill="#396EAC"/>
<path d="M17.4965 42.8672C19.5271 42.8672 21.1792 41.2152 21.1792 39.1845C21.1792 37.1538 19.5272 35.5017 17.4965 35.5017C15.4658 35.5017 13.8137 37.1538 13.8137 39.1845C13.8137 41.2152 15.4659 42.8672 17.4965 42.8672ZM17.4965 37.113C18.6386 37.113 19.5679 38.0422 19.5679 39.1845C19.5679 40.3267 18.6387 41.2559 17.4965 41.2559C16.3542 41.2559 15.425 40.3267 15.425 39.1845C15.425 38.0422 16.3544 37.113 17.4965 37.113Z" fill="#396EAC"/>
</g>
<defs>
<clipPath id="clip0_416_1272">
<rect width="55" height="55" fill="white"/>
</clipPath>
</defs>
</svg>
