<svg width="55" height="55" viewBox="0 0 55 55" fill="none" xmlns="http://www.w3.org/2000/svg">
<path d="M11.9817 43.8049H10.6574H9.53824H8.21384C5.18551 43.8049 2.72168 46.2688 2.72168 49.2972V54.1942C2.72168 54.6392 3.08229 54.9999 3.52734 54.9999C3.97239 54.9999 4.33301 54.6392 4.33301 54.1942V49.2972C4.33301 47.1572 6.07389 45.4163 8.21384 45.4163H8.46145L7.21847 49.6413C7.13618 49.9208 7.21138 50.223 7.41494 50.4315L9.52138 52.5889C9.67295 52.7441 9.88081 52.8317 10.0978 52.8317C10.3148 52.8317 10.5227 52.7441 10.6742 52.5889L12.7807 50.4315C12.9843 50.223 13.0594 49.9208 12.9771 49.6413L11.7342 45.4163H11.9817C14.1216 45.4163 15.8626 47.1572 15.8626 49.2972V54.1942C15.8626 54.6392 16.2232 54.9999 16.6683 54.9999C17.1133 54.9999 17.4739 54.6392 17.4739 54.1942V49.2972C17.4739 46.2688 15.0101 43.8049 11.9817 43.8049ZM10.0978 50.8728L8.89736 49.6433L10.0978 45.5631L11.2982 49.6433L10.0978 50.8728Z" fill="#396EAC"/>
<path d="M10.0978 43.3811C13.492 43.3811 16.2533 40.6198 16.2533 37.2257V35.6562V34.6463C16.2533 34.5367 16.2502 34.4276 16.2445 34.3194C16.2432 34.2948 16.2405 34.2704 16.2389 34.2459C16.2334 34.1613 16.2273 34.077 16.2184 33.9934C16.2156 33.9678 16.2116 33.9423 16.2086 33.9167C16.1989 33.8342 16.1882 33.752 16.1752 33.6705C16.1711 33.6452 16.1661 33.6201 16.1617 33.5948C16.1476 33.5137 16.1327 33.4328 16.1155 33.3528C16.1098 33.3265 16.1034 33.3005 16.0973 33.2742C16.0795 33.1962 16.0607 33.1185 16.0399 33.0416C16.0322 33.0132 16.0239 32.9851 16.0158 32.9569C15.9948 32.8834 15.9728 32.8105 15.9492 32.7381C15.939 32.7067 15.9281 32.6755 15.9174 32.6443C15.8941 32.5768 15.8698 32.5097 15.8443 32.4433C15.8307 32.4082 15.8169 32.3732 15.8028 32.3384C15.7782 32.2779 15.7527 32.2181 15.7263 32.1586C15.7088 32.119 15.6912 32.0796 15.6728 32.0405C15.6482 31.9881 15.6225 31.9363 15.5965 31.8847C15.5742 31.8403 15.5518 31.7958 15.5284 31.7519C15.5053 31.7088 15.4812 31.6665 15.4572 31.624C15.4287 31.5737 15.4006 31.5233 15.3707 31.4737C15.3525 31.4435 15.333 31.4139 15.3142 31.3841C15.128 31.0867 14.916 30.8046 14.6794 30.5409C14.6684 30.5287 14.6578 30.516 14.6467 30.5038C14.5968 30.4491 14.5451 30.3958 14.493 30.3427C14.4716 30.3208 14.4505 30.2987 14.4286 30.2772C14.3811 30.23 14.3322 30.1839 14.2829 30.1382C14.2543 30.1116 14.2257 30.0852 14.1967 30.0593C14.1737 30.0388 14.1519 30.0172 14.1286 29.997C14.1203 29.9893 14.1119 29.9817 14.1032 29.9742C14.0757 29.9507 14.0471 29.9286 14.0193 29.9055C14.0127 29.9001 14.0062 29.8948 13.9996 29.8894C13.9339 29.8355 13.8672 29.7829 13.7994 29.7319C13.7849 29.7209 13.7703 29.7101 13.7556 29.6992C13.6962 29.6553 13.6362 29.6127 13.5755 29.571C13.5523 29.5551 13.5292 29.5392 13.5058 29.5235C13.4542 29.4892 13.4021 29.4559 13.3496 29.4233C13.3167 29.4028 13.284 29.3821 13.2507 29.3623C13.2092 29.3376 13.1672 29.3138 13.1252 29.29C13.0808 29.2648 13.0366 29.2395 12.9914 29.2154C12.9651 29.2013 12.9383 29.1882 12.9117 29.1745C12.5362 28.9806 12.1385 28.8242 11.7232 28.7103C11.7198 28.7094 11.7164 28.7083 11.7128 28.7073C11.6368 28.6866 11.5601 28.6678 11.4829 28.65C11.4661 28.6461 11.4492 28.642 11.4322 28.6382C11.3635 28.623 11.2943 28.609 11.2248 28.5961C11.1974 28.591 11.17 28.5861 11.1425 28.5814C11.0804 28.5708 11.0181 28.5608 10.9554 28.552C10.9173 28.5466 10.8791 28.5421 10.8409 28.5374C10.7866 28.5308 10.7324 28.5242 10.6777 28.5191C10.6245 28.5141 10.571 28.5105 10.5176 28.5069C10.4756 28.5041 10.4339 28.5004 10.3918 28.4984C10.2941 28.4937 10.1962 28.491 10.098 28.491C9.11996 28.491 8.14618 28.7263 7.28197 29.1716C6.88645 29.3754 6.73101 29.8612 6.93489 30.2569C7.13857 30.6525 7.62454 30.8076 8.02018 30.604C8.66621 30.2711 9.36531 30.1023 10.0981 30.1023C10.1707 30.1023 10.2426 30.1044 10.3143 30.1078C10.345 30.1093 10.3756 30.1119 10.4062 30.1139C10.4455 30.1166 10.4849 30.1193 10.5239 30.1229C10.564 30.1267 10.6041 30.1314 10.6442 30.1363C10.6718 30.1397 10.6994 30.1431 10.7269 30.1469C10.7735 30.1534 10.82 30.1606 10.8664 30.1687C10.885 30.1719 10.9036 30.1752 10.9221 30.1787C10.9749 30.1884 11.0276 30.1989 11.08 30.2105C11.0885 30.2123 11.0968 30.2144 11.1052 30.2163C11.4778 30.3012 11.8383 30.4333 12.1783 30.6086C12.1906 30.615 12.2032 30.6211 12.2155 30.6277C12.2573 30.6497 12.2985 30.6728 12.3396 30.6962C12.3615 30.7087 12.3835 30.7212 12.4052 30.734C12.439 30.7539 12.4724 30.7745 12.5057 30.7954C12.5349 30.8137 12.564 30.8323 12.5928 30.8512C12.6192 30.8686 12.6456 30.8864 12.6717 30.9043C12.7077 30.9292 12.7434 30.9546 12.7786 30.9805C12.7977 30.9943 12.8166 31.0082 12.8354 31.0224C12.8788 31.0552 12.9214 31.0889 12.9635 31.1231C12.9743 31.1319 12.9852 31.1404 12.996 31.1493C13.0301 31.1777 13.0633 31.2072 13.0966 31.2366C13.1306 31.2664 13.164 31.2967 13.1969 31.3274C13.2229 31.3517 13.2488 31.3762 13.2743 31.4011C13.3034 31.4296 13.3319 31.4586 13.3601 31.4877C13.3868 31.5152 13.4135 31.5427 13.4395 31.571C13.4652 31.5988 13.4899 31.6274 13.5148 31.6557C13.5411 31.6858 13.5678 31.7157 13.5933 31.7464C13.6171 31.775 13.6396 31.8042 13.6625 31.8333C13.6873 31.8647 13.7127 31.8955 13.7366 31.9275C13.7793 31.9845 13.8205 32.0424 13.8605 32.1012C13.8782 32.1272 13.8947 32.1541 13.9118 32.1805C13.9387 32.2219 13.9658 32.2633 13.9912 32.3056C14.006 32.3301 14.0198 32.3554 14.0342 32.3802C14.0592 32.4236 14.0843 32.4671 14.1079 32.5113C14.1205 32.5349 14.1323 32.5588 14.1444 32.5827C14.1684 32.6296 14.192 32.6768 14.2143 32.7245C14.2247 32.7465 14.2345 32.7688 14.2444 32.791C14.2672 32.8417 14.2892 32.8928 14.3102 32.9442C14.3184 32.9647 14.3264 32.9851 14.3344 33.0056C14.3555 33.0598 14.3756 33.1145 14.3946 33.1696C14.4011 33.1886 14.4077 33.2076 14.4139 33.2268C14.4327 33.2839 14.4503 33.3416 14.4669 33.3995C14.472 33.4175 14.4774 33.4356 14.4824 33.4537C14.4985 33.513 14.5132 33.5729 14.5269 33.6329C14.531 33.6507 14.5353 33.6682 14.5392 33.686C14.5523 33.7467 14.5637 33.8078 14.5743 33.869C14.5774 33.8869 14.581 33.9045 14.5839 33.9223C14.5938 33.9836 14.6017 34.0451 14.6091 34.1069C14.6114 34.1253 14.6142 34.1436 14.6162 34.1621C14.6229 34.2243 14.6274 34.2868 14.6316 34.3494C14.6327 34.3677 14.6348 34.3857 14.6358 34.404C14.6401 34.4845 14.6423 34.5652 14.6423 34.6462V34.6501C13.8692 34.3708 13.2011 33.8446 12.7401 33.1343C12.6038 32.9243 12.3776 32.7896 12.1281 32.7697C11.8785 32.7499 11.634 32.8471 11.4662 33.0331C10.4086 34.2051 8.89846 34.8772 7.32301 34.8772C6.71608 34.8772 6.12354 34.7808 5.55517 34.5904C5.55527 34.5797 5.5556 34.5692 5.55581 34.5586C5.55732 34.4818 5.56022 34.4051 5.56559 34.3287C5.56591 34.3244 5.56602 34.3202 5.56634 34.3159C5.57268 34.2291 5.58159 34.1425 5.59287 34.0563C5.59352 34.0514 5.59416 34.0466 5.59481 34.0418C5.66646 33.5075 5.83199 32.9879 6.08443 32.5139C6.29348 32.1212 6.14481 31.6333 5.75196 31.4241C5.35934 31.2151 4.87121 31.3637 4.66206 31.7566C4.49362 32.0728 4.35494 32.4045 4.24462 32.7454C4.2386 32.7609 4.23227 32.7761 4.22722 32.7922C4.11399 33.1509 4.03504 33.5191 3.98939 33.8928C3.98928 33.8935 3.98917 33.8943 3.98906 33.895C3.97488 34.0112 3.96436 34.1279 3.95673 34.245C3.95544 34.264 3.95458 34.283 3.95351 34.3022C3.94717 34.4166 3.94287 34.5312 3.94287 34.6463V35.1409V37.2257C3.94233 40.6199 6.70361 43.3811 10.0978 43.3811ZM5.55366 36.2672C6.12869 36.4134 6.71994 36.4887 7.32258 36.4887C9.03596 36.4887 10.6893 35.8722 11.9825 34.7726C12.6998 35.5405 13.6206 36.0813 14.642 36.3316V37.2258C14.642 39.7314 12.6034 41.7699 10.0978 41.7699C7.59221 41.7699 5.55366 39.7314 5.55366 37.2258V36.2672Z" fill="#396EAC"/>
<path d="M20.9297 26.509C21.3747 26.509 21.7354 26.1483 21.7354 25.7034V20.8062C21.7354 18.6663 23.4762 16.9253 25.6162 16.9253H25.8638L24.6208 21.1503C24.5385 21.4298 24.6137 21.732 24.8173 21.9405L26.9237 24.098C27.0753 24.2532 27.2832 24.3407 27.5001 24.3407C27.7171 24.3407 27.925 24.2532 28.0766 24.098L30.183 21.9405C30.3867 21.732 30.4618 21.4298 30.3795 21.1503L29.1365 16.9253H29.3841C31.5241 16.9253 33.2649 18.6663 33.2649 20.8062V25.7034C33.2649 26.1483 33.6256 26.509 34.0706 26.509C34.5157 26.509 34.8763 26.1483 34.8763 25.7034V20.8062C34.8763 17.7778 32.4124 15.314 29.3841 15.314H28.0597H26.9406H25.6162C22.5879 15.314 20.124 17.7778 20.124 20.8062V25.7034C20.124 26.1483 20.4846 26.509 20.9297 26.509ZM27.5001 22.3818L26.2997 21.1523L27.5001 17.0722L28.7006 21.1525L27.5001 22.3818Z" fill="#396EAC"/>
<path d="M27.5 14.8902C30.8943 14.8902 33.6555 12.1288 33.6555 8.73469V7.16525V6.15538C33.6555 6.0457 33.6524 5.93667 33.6467 5.82839C33.6454 5.80379 33.6428 5.77951 33.6411 5.75502C33.6357 5.67048 33.6294 5.58604 33.6206 5.50247C33.6179 5.4769 33.614 5.45155 33.6108 5.42599C33.6011 5.34338 33.5904 5.26109 33.5773 5.17956C33.5733 5.15432 33.5682 5.12939 33.5638 5.10426C33.5497 5.02294 33.5347 4.94194 33.5175 4.8617C33.5119 4.8357 33.5055 4.80992 33.4996 4.78393C33.4816 4.70562 33.4627 4.62763 33.4419 4.55039C33.4342 4.52225 33.426 4.49442 33.4179 4.46639C33.3969 4.3927 33.3748 4.31943 33.3511 4.24692C33.3409 4.21566 33.3302 4.18473 33.3195 4.15368C33.2962 4.08601 33.2718 4.01876 33.2463 3.95216C33.2328 3.91714 33.219 3.88223 33.2049 3.84742C33.1803 3.78684 33.1547 3.72689 33.1283 3.66728C33.1109 3.62785 33.0933 3.58854 33.0749 3.54943C33.0503 3.4969 33.0245 3.44513 32.9985 3.39335C32.9762 3.34898 32.9539 3.30451 32.9304 3.26068C32.9073 3.21761 32.8832 3.17518 32.8591 3.13274C32.8306 3.08236 32.8025 3.03198 32.7726 2.98246C32.7545 2.95238 32.7351 2.92306 32.7165 2.89319C32.5295 2.59478 32.3167 2.31161 32.0791 2.04692C32.069 2.03575 32.0594 2.02415 32.0493 2.01298C31.9987 1.95744 31.9462 1.9033 31.8934 1.84948C31.8728 1.82843 31.8525 1.80727 31.8316 1.78653C31.7832 1.73862 31.7335 1.69179 31.6835 1.64527C31.6559 1.6196 31.6282 1.59414 31.6001 1.569C31.5767 1.54806 31.5545 1.52604 31.5307 1.50541C31.5225 1.49768 31.514 1.49016 31.5054 1.48274C31.4776 1.4589 31.4487 1.43655 31.4204 1.41324C31.4147 1.40852 31.4089 1.4039 31.4032 1.39917C31.3367 1.3446 31.2692 1.29143 31.2006 1.23986C31.1868 1.22944 31.1728 1.21902 31.1588 1.20871C31.0989 1.16435 31.0381 1.12116 30.9767 1.07905C30.9541 1.06348 30.9314 1.04801 30.9085 1.03275C30.8564 0.998057 30.8038 0.964434 30.7507 0.931455C30.7183 0.91126 30.6861 0.890957 30.6533 0.871299C30.6113 0.84627 30.5688 0.822207 30.5262 0.798145C30.4823 0.773223 30.4386 0.748301 30.394 0.724453C30.3669 0.710059 30.3395 0.696523 30.3122 0.682559C29.9371 0.488984 29.5401 0.3329 29.1253 0.219141C29.1219 0.218174 29.1185 0.2171 29.1149 0.216133C29.0389 0.1954 28.9622 0.176602 28.885 0.15877C28.8682 0.154902 28.8513 0.15082 28.8343 0.147061C28.7656 0.131807 28.6964 0.117842 28.6269 0.104951C28.5995 0.0997949 28.5721 0.0949609 28.5446 0.0902344C28.4825 0.0795996 28.4202 0.0696094 28.3575 0.0608008C28.3195 0.0554297 28.2812 0.050918 28.243 0.0461914C28.1887 0.0396387 28.1345 0.0329785 28.0798 0.0279297C28.0266 0.0228809 27.9731 0.0193359 27.9197 0.0156836C27.8777 0.0128906 27.8361 0.00923828 27.794 0.00719727C27.6962 0.00279297 27.5982 0 27.5 0C26.5221 0 25.5482 0.235361 24.684 0.680625C24.2885 0.884404 24.133 1.37027 24.3369 1.7658C24.5407 2.16144 25.0262 2.31677 25.4222 2.11299C26.0681 1.78009 26.7673 1.61133 27.5 1.61133C27.5726 1.61133 27.6445 1.61348 27.7162 1.61681C27.7468 1.61831 27.7774 1.62078 27.8079 1.62293C27.8473 1.62562 27.8867 1.6283 27.9259 1.63195C27.966 1.63571 28.0061 1.64044 28.0461 1.64527C28.0737 1.6486 28.1013 1.65204 28.1288 1.6558C28.1754 1.66235 28.2218 1.66955 28.2681 1.6775C28.2868 1.68072 28.3055 1.68405 28.3241 1.68749C28.3768 1.69727 28.4294 1.70758 28.4817 1.71918C28.4903 1.72111 28.4988 1.72315 28.5073 1.72509C28.8792 1.80995 29.2391 1.94165 29.5784 2.11643C29.5917 2.1233 29.605 2.12985 29.6181 2.13673C29.6591 2.15843 29.6997 2.1812 29.7401 2.20408C29.7628 2.21697 29.7856 2.22986 29.808 2.24318C29.841 2.26263 29.8736 2.28282 29.9062 2.30313C29.9364 2.32203 29.9665 2.34126 29.9961 2.36081C30.0216 2.37757 30.0468 2.39454 30.0719 2.41184C30.1093 2.43762 30.1463 2.46394 30.1829 2.49079C30.2005 2.50368 30.2183 2.51657 30.2357 2.52979C30.2808 2.56395 30.3251 2.59886 30.3689 2.63452C30.3779 2.64193 30.3871 2.64913 30.3961 2.65665C30.4317 2.68608 30.4662 2.71681 30.5008 2.74731C30.5331 2.77578 30.5651 2.80468 30.5965 2.834C30.6237 2.85946 30.6507 2.88503 30.6773 2.91103C30.7052 2.93842 30.7325 2.96624 30.7597 2.99417C30.7873 3.02264 30.8149 3.0511 30.8417 3.08021C30.8663 3.10696 30.8902 3.13436 30.9141 3.16164C30.9414 3.19269 30.9689 3.22352 30.9953 3.25542C31.0178 3.28249 31.0392 3.3102 31.061 3.3377C31.087 3.37047 31.1134 3.4028 31.1385 3.43632C31.1742 3.48391 31.2083 3.53246 31.2419 3.58134C31.2669 3.61765 31.2911 3.6546 31.3151 3.69166C31.3413 3.73216 31.3678 3.77255 31.3927 3.8138C31.4077 3.83872 31.4218 3.86439 31.4363 3.88964C31.4611 3.93271 31.4859 3.97579 31.5094 4.01962C31.522 4.04336 31.534 4.06764 31.5463 4.09159C31.5702 4.13832 31.5937 4.18526 31.6159 4.23274C31.6263 4.25487 31.6362 4.27732 31.6462 4.29967C31.6689 4.35026 31.6909 4.40118 31.7117 4.45264C31.72 4.47315 31.7281 4.49367 31.7361 4.5143C31.7572 4.56854 31.7772 4.62312 31.7962 4.67812C31.8027 4.69713 31.8093 4.71625 31.8156 4.73537C31.8344 4.79252 31.852 4.8501 31.8686 4.90811C31.8737 4.92615 31.8791 4.9442 31.884 4.96246C31.9002 5.02176 31.9149 5.08159 31.9286 5.14164C31.9327 5.15937 31.937 5.17688 31.9409 5.19471C31.954 5.2554 31.9654 5.31642 31.976 5.37775C31.9791 5.39559 31.9827 5.4132 31.9856 5.43104C31.9954 5.49227 32.0034 5.55382 32.0108 5.61559C32.0131 5.63406 32.0158 5.65232 32.0179 5.6708C32.0246 5.733 32.0291 5.79552 32.0333 5.85814C32.0344 5.87641 32.0365 5.89445 32.0374 5.91271C32.0417 5.99317 32.044 6.07396 32.044 6.15495V6.15882C31.2709 5.87941 30.6028 5.35326 30.1418 4.64299C30.0054 4.43298 29.7793 4.29827 29.5298 4.2784C29.2814 4.25874 29.0356 4.35585 28.868 4.5418C27.8102 5.71377 26.3001 6.38591 24.7247 6.38591C24.1178 6.38591 23.5252 6.28955 22.9569 6.09898C22.957 6.08835 22.9573 6.07771 22.9575 6.06708C22.959 5.9906 22.9619 5.91422 22.9672 5.83795C22.9675 5.83333 22.9676 5.82882 22.9679 5.8242C22.9743 5.73772 22.9832 5.65168 22.9943 5.56585C22.9951 5.56037 22.9958 5.55489 22.9966 5.54931C23.0683 5.01531 23.2338 4.49614 23.486 4.02263C23.6951 3.62989 23.5464 3.14198 23.1535 2.93283C22.7609 2.72368 22.273 2.87257 22.0636 3.2652C21.8949 3.5822 21.7559 3.91445 21.6453 4.25616C21.6396 4.27109 21.6335 4.2856 21.6287 4.30106C21.5158 4.6591 21.4369 5.02638 21.3912 5.39902C21.391 5.40096 21.3906 5.40289 21.3904 5.40472C21.3764 5.52041 21.3658 5.63664 21.3582 5.75319C21.3569 5.77253 21.3559 5.79176 21.3549 5.81109C21.3485 5.92539 21.3442 6.0399 21.3442 6.15484V6.64941V8.73415C21.3446 12.1289 24.1058 14.8902 27.5 14.8902ZM22.9559 7.77627C23.5309 7.92247 24.1222 7.99777 24.7248 7.99777C26.4382 7.99777 28.0915 7.38117 29.3848 6.2816C30.102 7.04956 31.0228 7.59032 32.0442 7.84062V8.7348C32.0442 11.2404 30.0057 13.279 27.5 13.279C24.9944 13.279 22.9559 11.2404 22.9559 8.7348V7.77627Z" fill="#396EAC"/>
<path d="M39.6156 27.9887C39.7742 28.1977 40.0147 28.3077 40.2582 28.3077C40.4277 28.3077 40.5987 28.2543 40.7443 28.144C41.0989 27.8752 41.1684 27.3698 40.8995 27.0152C39.9155 25.7173 38.7512 24.5704 37.4389 23.6064C37.0803 23.343 36.5761 23.4201 36.3127 23.7787C36.0492 24.1372 36.1264 24.6416 36.485 24.905C37.6721 25.7771 38.7255 26.8146 39.6156 27.9887Z" fill="#396EAC"/>
<path d="M34.7415 50.5183C32.5337 51.7176 30.0297 52.3515 27.5 52.3515C24.9522 52.3515 22.4321 51.7089 20.2124 50.4931C19.8221 50.2796 19.3325 50.4226 19.1187 50.8128C18.905 51.2031 19.0481 51.6927 19.4384 51.9065C21.8947 53.2518 24.6823 53.963 27.5 53.963C30.2975 53.963 33.0675 53.2614 35.5106 51.9342C35.9016 51.7218 36.0463 51.2326 35.8341 50.8417C35.6215 50.4507 35.1327 50.3059 34.7415 50.5183Z" fill="#396EAC"/>
<path d="M17.561 23.6065C16.2594 24.5628 15.1032 25.699 14.1246 26.9838C13.8549 27.3377 13.9233 27.8432 14.2772 28.1129C14.423 28.2239 14.5947 28.2777 14.7648 28.2777C15.0077 28.2777 15.2478 28.1682 15.4063 27.9601C16.2916 26.7979 17.3377 25.77 18.515 24.905C18.8736 24.6415 18.9508 24.1374 18.6873 23.7787C18.4238 23.4204 17.9197 23.3432 17.561 23.6065Z" fill="#396EAC"/>
<path d="M46.7862 43.8049H45.4618H44.3427H43.0184C39.99 43.8049 37.5261 46.2688 37.5261 49.2972V54.1942C37.5261 54.6392 37.8867 54.9999 38.3318 54.9999C38.7768 54.9999 39.1375 54.6392 39.1375 54.1942V49.2972C39.1375 47.1572 40.8784 45.4163 43.0184 45.4163H43.2659L42.0229 49.6413C41.9406 49.9208 42.0158 50.223 42.2194 50.4315L44.3258 52.5889C44.4774 52.7441 44.6853 52.8317 44.9022 52.8317C45.1192 52.8317 45.3271 52.7441 45.4787 52.5889L47.5851 50.4315C47.7888 50.223 47.8639 49.9208 47.7816 49.6413L46.5386 45.4163H46.7862C48.9262 45.4163 50.667 47.1572 50.667 49.2972V54.1942C50.667 54.6392 51.0277 54.9999 51.4727 54.9999C51.9178 54.9999 52.2784 54.6392 52.2784 54.1942V49.2972C52.2784 46.2688 49.8146 43.8049 46.7862 43.8049ZM44.9022 50.8728L43.7018 49.6433L44.9022 45.5631L46.1027 49.6433L44.9022 50.8728Z" fill="#396EAC"/>
<path d="M42.8243 30.6038C43.4705 30.2709 44.1695 30.1022 44.9023 30.1022C44.9748 30.1022 45.0468 30.1043 45.1184 30.1077C45.1492 30.1092 45.1799 30.1117 45.2106 30.1138C45.2499 30.1165 45.2891 30.1192 45.3281 30.1227C45.3684 30.1265 45.4085 30.1312 45.4485 30.1361C45.4761 30.1395 45.5037 30.1429 45.5311 30.1467C45.5779 30.1532 45.6244 30.1604 45.6708 30.1685C45.6895 30.1717 45.7079 30.175 45.7265 30.1785C45.7793 30.1882 45.8319 30.1986 45.8842 30.2103C45.8929 30.2122 45.9016 30.2143 45.9102 30.2163C46.2829 30.3013 46.6434 30.4335 46.9834 30.6089C46.9956 30.6152 47.0081 30.6214 47.0203 30.6278C47.0621 30.6498 47.1034 30.673 47.1445 30.6964C47.1664 30.7089 47.1883 30.7213 47.2099 30.7341C47.2437 30.754 47.2771 30.7746 47.3103 30.7955C47.3396 30.8139 47.3687 30.8324 47.3975 30.8515C47.4239 30.8687 47.45 30.8865 47.4761 30.9043C47.5122 30.9292 47.5479 30.9546 47.5832 30.9805C47.6022 30.9943 47.6211 31.0082 47.6399 31.0224C47.683 31.055 47.7255 31.0884 47.7674 31.1226C47.7785 31.1315 47.7897 31.1403 47.8005 31.1494C47.8358 31.1787 47.87 31.2091 47.9044 31.2394C47.9361 31.2673 47.9675 31.2956 47.9983 31.3244C48.0261 31.3503 48.0536 31.3764 48.0808 31.4031C48.1081 31.4298 48.1347 31.457 48.1613 31.4844C48.1894 31.5134 48.2176 31.5424 48.245 31.5723C48.269 31.5983 48.2922 31.625 48.3155 31.6515C48.3434 31.6832 48.3715 31.7148 48.3984 31.7472C48.4199 31.7731 48.4404 31.7999 48.4614 31.8262C48.4882 31.86 48.5156 31.8936 48.5415 31.9281C48.5703 31.9666 48.5975 32.006 48.6249 32.0452C48.6573 32.0914 48.6887 32.1384 48.7194 32.1857C48.745 32.2253 48.7708 32.2646 48.795 32.3049C48.8104 32.3303 48.8247 32.3564 48.8396 32.3822C48.8642 32.4248 48.8887 32.4674 48.9118 32.5107C48.9247 32.5348 48.9367 32.5592 48.9492 32.5836C48.9729 32.63 48.9963 32.6768 49.0184 32.7239C49.0289 32.7463 49.0389 32.7689 49.049 32.7915C49.0715 32.8419 49.0935 32.8926 49.1142 32.9437C49.1226 32.9644 49.1307 32.9852 49.1388 33.0061C49.1597 33.0602 49.1797 33.1145 49.1985 33.1693C49.2052 33.1885 49.2117 33.2078 49.2181 33.2271C49.2369 33.2841 49.2544 33.3417 49.2709 33.3996C49.2761 33.4178 49.2814 33.4357 49.2864 33.454C49.3026 33.5133 49.3172 33.5731 49.331 33.6331C49.3351 33.6509 49.3393 33.6684 49.3432 33.6862C49.3563 33.7469 49.3677 33.8079 49.3783 33.8693C49.3815 33.8871 49.385 33.9047 49.3879 33.9226C49.3978 33.9837 49.4057 34.0451 49.413 34.1067C49.4153 34.1253 49.4182 34.1438 49.4201 34.1626C49.4268 34.2247 49.4313 34.2871 49.4354 34.3495C49.4366 34.3679 49.4386 34.386 49.4396 34.4043C49.4439 34.4848 49.4462 34.5656 49.4462 34.6466V34.6504C48.6731 34.3711 48.0051 33.8449 47.5441 33.1346C47.4078 32.9246 47.1817 32.7899 46.9321 32.77C46.6838 32.7502 46.438 32.8475 46.2703 33.0334C45.2125 34.2054 43.7024 34.8775 42.1269 34.8775C41.52 34.8775 40.9275 34.7812 40.3591 34.5907C40.3592 34.5801 40.3595 34.5694 40.3597 34.5588C40.3612 34.4822 40.3641 34.4057 40.3695 34.3295C40.3698 34.3249 40.3699 34.3204 40.3703 34.316C40.3766 34.2295 40.3855 34.1433 40.3967 34.0574C40.3973 34.052 40.3981 34.0467 40.3988 34.0413C40.4705 33.5072 40.636 32.988 40.8883 32.5142C41.0973 32.1215 40.9486 31.6336 40.5558 31.4244C40.1632 31.2154 39.675 31.3641 39.4659 31.7569C39.2972 32.0736 39.1583 32.4055 39.048 32.7469C39.0422 32.7621 39.036 32.777 39.031 32.7927C38.9181 33.1508 38.8392 33.5182 38.7935 33.8911C38.7933 33.8928 38.793 33.8945 38.7928 33.8963C38.7787 34.012 38.7682 34.1284 38.7605 34.245C38.7593 34.2642 38.7583 34.2836 38.7572 34.3028C38.7509 34.4171 38.7466 34.5316 38.7466 34.6466V35.1411V37.2259C38.7466 40.62 41.5079 43.3814 44.9021 43.3814C48.2963 43.3814 51.0576 40.62 51.0576 37.2259V35.6564V34.6466C51.0576 34.5369 51.0544 34.4278 51.0488 34.3196C51.0475 34.2949 51.0447 34.2704 51.0432 34.2458C51.0377 34.1613 51.0316 34.0771 51.0226 33.9936C51.0199 33.9678 51.0159 33.9421 51.0128 33.9162C51.003 33.834 50.9925 33.7521 50.9795 33.671C50.9753 33.645 50.9701 33.6193 50.9656 33.5934C50.9516 33.5129 50.9368 33.4328 50.9197 33.3534C50.9139 33.3263 50.9073 33.2996 50.901 33.2726C50.8833 33.1954 50.8647 33.1186 50.8442 33.0424C50.8364 33.0131 50.8277 32.9841 50.8193 32.9549C50.7986 32.8825 50.7769 32.8104 50.7536 32.7391C50.743 32.7067 50.7319 32.6746 50.7208 32.6425C50.6978 32.576 50.674 32.51 50.6488 32.4445C50.635 32.4083 50.6207 32.3723 50.6061 32.3363C50.582 32.2772 50.557 32.2184 50.5311 32.1602C50.513 32.1195 50.4949 32.0789 50.476 32.0385C50.452 31.9874 50.427 31.9371 50.4016 31.8868C50.3787 31.841 50.3557 31.7953 50.3315 31.75C50.3094 31.7088 50.2862 31.6682 50.2631 31.6275C50.2336 31.5754 50.2044 31.5232 50.1736 31.4719C50.1569 31.4445 50.1394 31.4178 50.1223 31.3907C49.9344 31.0898 49.72 30.8044 49.4805 30.5378C49.4705 30.5267 49.4611 30.5153 49.4511 30.5044C49.4003 30.4486 49.3477 30.3944 49.2947 30.3404C49.2741 30.3195 49.2539 30.2983 49.2331 30.2777C49.1847 30.2298 49.135 30.1829 49.0849 30.1363C49.0571 30.1106 49.0293 30.085 49.0011 30.0598C48.9774 30.0386 48.955 30.0165 48.9309 29.9956C48.9232 29.9884 48.9152 29.9812 48.907 29.9742C48.8795 29.9507 48.8509 29.9286 48.8231 29.9055C48.8165 29.9001 48.81 29.8948 48.8034 29.8894C48.7377 29.8355 48.671 29.7829 48.6032 29.7319C48.5887 29.7209 48.5741 29.7101 48.5595 29.6992C48.5002 29.6553 48.44 29.6127 48.3793 29.571C48.3561 29.5551 48.3329 29.5392 48.3096 29.5235C48.258 29.4892 48.2059 29.4559 48.1534 29.4233C48.1205 29.4028 48.0878 29.3821 48.0545 29.3623C48.013 29.3376 47.971 29.3138 47.929 29.29C47.8846 29.2648 47.8404 29.2395 47.7953 29.2154C47.7689 29.2013 47.7421 29.1882 47.7156 29.1745C47.34 28.9806 46.9424 28.8242 46.527 28.7103C46.5236 28.7094 46.5202 28.7083 46.5166 28.7073C46.4406 28.6866 46.3639 28.6678 46.2867 28.6499C46.2699 28.6461 46.253 28.642 46.236 28.6382C46.1673 28.623 46.0981 28.609 46.0285 28.5961C46.0011 28.591 45.9737 28.5861 45.9462 28.5814C45.8841 28.5708 45.8218 28.5608 45.7592 28.552C45.7212 28.5466 45.6829 28.5421 45.6447 28.5374C45.5904 28.5308 45.5362 28.5242 45.4815 28.5191C45.4283 28.5141 45.3748 28.5105 45.3214 28.5069C45.2794 28.5041 45.2378 28.5004 45.1957 28.4984C45.0979 28.4937 45 28.491 44.9019 28.491C43.9239 28.491 42.9501 28.7263 42.0858 29.1716C41.6903 29.3754 41.5348 29.8612 41.7387 30.2568C41.9426 30.6523 42.4286 30.8076 42.8243 30.6038ZM44.9023 41.7696C42.3967 41.7696 40.3581 39.7311 40.3581 37.2254V36.2669C40.9332 36.4131 41.5244 36.4884 42.127 36.4884C43.8404 36.4884 45.4938 35.8719 46.7871 34.7722C47.5043 35.5402 48.4251 36.081 49.4464 36.3313V37.2254C49.4464 39.7312 47.4079 41.7696 44.9023 41.7696Z" fill="#396EAC"/>
<path d="M19.7764 40.1968L21.0067 42.3279C21.1902 42.6456 21.5648 42.7993 21.9192 42.7016L23.8795 42.1597C24.2244 42.4102 24.5923 42.623 24.9794 42.7963L25.4898 44.7631C25.5819 45.1184 25.9026 45.3664 26.2696 45.3664H28.7302C29.0973 45.3664 29.4179 45.1184 29.5101 44.7631L30.0205 42.7963C30.4076 42.6231 30.7755 42.4102 31.1204 42.1597L33.0807 42.7016C33.435 42.7993 33.8097 42.6456 33.9932 42.3279L35.2235 40.1968C35.4069 39.879 35.3525 39.4772 35.0909 39.2198L33.6409 37.7927C33.6632 37.58 33.6744 37.3678 33.6744 37.1583C33.6744 36.9488 33.6633 36.7367 33.6409 36.5239L35.0909 35.0968C35.3526 34.8394 35.4069 34.4376 35.2235 34.1198L33.9932 31.9887C33.8097 31.671 33.435 31.5173 33.0807 31.615L31.1204 32.157C30.7755 31.9064 30.4076 31.6936 30.0205 31.5203L29.5101 29.5535C29.418 29.1982 29.0973 28.9502 28.7302 28.9502H26.2696C25.9026 28.9502 25.582 29.1982 25.4898 29.5535L24.9794 31.5203C24.5923 31.6935 24.2244 31.9064 23.8795 32.157L21.9192 31.615C21.5648 31.5173 21.1902 31.671 21.0067 31.9887L19.7764 34.1198C19.593 34.4376 19.6474 34.8394 19.909 35.0968L21.359 36.5239C21.3367 36.7366 21.3255 36.9487 21.3255 37.1583C21.3255 37.3679 21.3366 37.58 21.359 37.7927L19.909 39.2198C19.6473 39.4773 19.593 39.879 19.7764 40.1968ZM23.0061 37.9454C22.9601 37.6812 22.9368 37.4163 22.9368 37.1583C22.9368 36.9004 22.9601 36.6355 23.0061 36.3713C23.0513 36.1108 22.9659 35.8446 22.7774 35.6592L21.4835 34.3857L22.0904 33.3343L23.8402 33.8181C24.0954 33.8886 24.3692 33.8293 24.5723 33.6591C24.9808 33.3169 25.4388 33.0518 25.9341 32.871C26.1827 32.7801 26.3709 32.5729 26.4375 32.3166L26.8929 30.5617H28.1069L28.5622 32.3166C28.6287 32.5729 28.8169 32.7801 29.0657 32.871C29.5608 33.0518 30.019 33.317 30.4275 33.6591C30.6306 33.8293 30.9043 33.8885 31.1596 33.8181L32.9094 33.3343L33.5163 34.3857L32.2224 35.6592C32.0339 35.8447 31.9485 36.1108 31.9937 36.3713C32.0397 36.6355 32.063 36.9004 32.063 37.1583C32.063 37.4163 32.0397 37.6811 31.9937 37.9454C31.9485 38.2059 32.0339 38.4721 32.2224 38.6575L33.5163 39.931L32.9094 40.9824L31.1596 40.4986C30.9044 40.4281 30.6305 40.4874 30.4275 40.6576C30.019 40.9998 29.5609 41.2649 29.0657 41.4457C28.817 41.5366 28.6288 41.7438 28.5622 42.0001L28.1069 43.755H26.893L26.4377 42.0001C26.3712 41.7438 26.183 41.5366 25.9342 41.4457C25.4391 41.2649 24.9809 40.9997 24.5724 40.6576C24.3691 40.4873 24.0954 40.428 23.8403 40.4986L22.0905 40.9824L21.4836 39.931L22.7775 38.6575C22.9659 38.4721 23.0513 38.2059 23.0061 37.9454Z" fill="#396EAC"/>
<path d="M27.5002 39.9975C29.0657 39.9975 30.3394 38.7238 30.3394 37.1581C30.3394 36.7132 29.9788 36.3525 29.5338 36.3525C29.0887 36.3525 28.7281 36.7132 28.7281 37.1581C28.7281 37.8352 28.1772 38.3862 27.5002 38.3862C26.8231 38.3862 26.2722 37.8353 26.2722 37.1581C26.2722 36.4809 26.8231 35.9302 27.5002 35.9302C27.9452 35.9302 28.3058 35.5695 28.3058 35.1245C28.3058 34.6796 27.9452 34.3188 27.5002 34.3188C25.9346 34.3188 24.6609 35.5925 24.6609 37.1581C24.6609 38.7238 25.9346 39.9975 27.5002 39.9975Z" fill="#396EAC"/>
</svg>
