<svg width="52" height="52" viewBox="0 0 52 52" fill="none" xmlns="http://www.w3.org/2000/svg">
<rect width="52" height="52" rx="6" fill="white"/>
<path fill-rule="evenodd" clip-rule="evenodd" d="M39.7996 14.5305C39.658 14.6993 39.3739 15.1344 39.1064 14.9888C38.9099 14.882 38.7667 14.3269 38.6823 14.1419C38.4292 13.5829 38.0918 13.0372 37.5196 12.7399C37.0206 12.4797 36.3546 12.4217 35.8946 12.7933C35.5205 13.096 35.32 13.6132 35.1934 14.0993C34.9986 14.1195 34.8084 14.1699 34.63 14.2487C34.0332 13.9212 33.3241 13.9391 32.6476 13.9599C32.1025 13.9755 31.5709 14.1922 31.1356 14.5019C30.5355 14.9292 30.0938 15.54 29.7827 16.1958C29.6315 16.5101 29.5058 16.8492 29.5249 17.196C29.544 17.5428 29.7365 17.8997 30.0676 18.0298C30.335 18.1343 30.6884 18.1034 30.8531 18.3341C30.9374 18.4517 30.9422 18.6043 30.9549 18.7475C31.0122 19.4109 31.3624 20.1046 32.0007 20.3438C32.6389 20.5831 33.3479 20.3105 33.8923 19.9219C34.2253 19.6831 34.5228 19.4006 34.7764 19.0827C35.1688 18.5903 35.5723 18.1467 35.76 17.539C35.9391 16.9707 35.9892 16.2779 35.7823 15.7088C35.7823 15.6988 35.7752 15.6887 35.7712 15.6786C35.9005 15.6261 36.0212 15.5555 36.1293 15.4688C36.2214 15.4607 36.3141 15.4635 36.4055 15.4773C36.532 15.499 36.4692 15.4371 36.5439 15.5308C36.6029 15.6082 36.5997 15.7947 36.6124 15.8892C36.6681 16.301 36.6251 16.7408 36.7349 17.1434C36.9275 17.8447 37.9287 18.5252 38.6179 18.0151C39.1478 17.6226 38.6266 16.7369 38.0894 17.1348C37.9661 17.2262 37.779 16.9568 37.7464 16.8724C37.6876 16.723 37.7154 16.5155 37.705 16.3591C37.6812 15.9806 37.6581 15.5617 37.5371 15.1979C37.3167 14.5375 36.762 14.4547 36.1763 14.467C36.2733 14.0079 36.4596 13.4079 36.9403 13.593C37.4974 13.8075 37.7122 14.5042 37.9263 14.9865C38.1475 15.4851 38.4563 15.9728 39.0619 16.0355C39.6985 16.1021 40.1713 15.6988 40.5453 15.2521C40.9631 14.7465 40.2254 14.0211 39.7996 14.5305ZM34.786 17.1527C34.7343 17.3361 34.6683 17.5154 34.5886 17.6891C34.4338 18.0545 34.2247 18.3957 33.9679 18.7018C33.5748 19.1493 32.9476 19.5588 32.3261 19.3165C32.1804 19.2591 32.0492 19.1718 31.9416 19.0603C31.8341 18.9488 31.7526 18.8159 31.703 18.6708C31.6328 18.3834 31.5797 18.0924 31.5439 17.7991C31.5376 17.7466 31.5208 17.6959 31.4944 17.6498C31.468 17.6037 31.4325 17.5631 31.3898 17.5304C31.3473 17.4976 31.2985 17.4734 31.2462 17.4591C31.194 17.4447 31.1394 17.4406 31.0855 17.4469C30.9473 17.4625 30.8073 17.4552 30.6716 17.4252C30.6097 17.4114 30.5516 17.385 30.5011 17.3476C30.4506 17.3102 30.4089 17.2628 30.3788 17.2084C30.2578 16.9908 30.3899 16.723 30.4981 16.5225C31.0003 15.588 32.1765 14.6954 33.3121 14.8123C34.5067 14.9354 35.0756 16.1067 34.7844 17.1527H34.786Z" fill="#396EAC"/>
<path fill-rule="evenodd" clip-rule="evenodd" d="M19.1131 23.3451C19.0749 23.606 18.8568 23.8452 18.4892 24.0295C18.0616 24.2509 17.5776 24.3476 17.0949 24.3082C15.5908 24.1588 14.7584 22.1776 15.5964 20.9591C15.9736 20.411 16.6206 20.1075 17.2867 20.0595C17.6216 20.0365 17.9579 20.0762 18.2775 20.1764C18.5162 20.2539 19.0972 20.3839 19.0693 20.7145C19.0512 20.8252 19.0035 20.9293 18.9309 21.0164C18.8012 21.2006 18.6603 21.3802 18.5823 21.5901C18.4852 21.8502 18.5067 22.1405 18.7303 22.3302C19.0295 22.5841 19.1489 23.1028 19.1131 23.3451ZM20.0983 20.6556C20.0275 20.3351 19.737 20.0565 19.484 19.8683C18.3874 19.057 16.8578 18.9455 15.6871 19.6693C14.6629 20.3034 14.0064 21.7596 14.3008 22.9433C14.3635 23.1925 14.4627 23.4315 14.5952 23.6532C15.2661 24.7843 16.8004 25.3479 18.0873 25.0375C18.685 24.8935 19.3113 24.5885 19.7386 24.1503C19.9431 23.9405 20.1055 23.6858 20.123 23.3916C20.1604 22.7653 19.2977 22.0824 19.7355 21.484C19.9105 21.244 20.1461 21.0389 20.1095 20.7245C20.107 20.7014 20.1033 20.6784 20.0983 20.6556Z" fill="#396EAC"/>
<path d="M41.7144 25.7732C42.2038 25.5409 42.573 25.1236 42.9161 24.711C43.5146 23.9893 44.0754 23.2387 44.596 22.462C44.8459 22.0881 45.0974 21.6747 44.9621 21.2102C44.9313 21.0912 44.8637 20.9844 44.7682 20.9042C44.6728 20.824 44.5544 20.7743 44.4289 20.7619C44.031 20.7349 43.8042 21.1088 43.6609 21.4416C43.3713 22.1152 43.1525 22.8205 42.7855 23.4584C42.4187 24.0963 41.8783 24.6777 41.1645 24.9022C40.1896 25.2119 39.1129 24.7822 38.3258 24.1436C37.5388 23.5048 36.9514 22.6726 36.2376 21.9549C35.5794 21.2976 34.6786 20.7101 33.7547 20.8982C32.5975 21.1304 32.0508 22.4063 31.75 23.518C31.4491 24.6297 31.0807 25.9117 29.9992 26.3693C29.4334 26.6085 28.7975 26.5427 28.2365 26.3244C27.9487 26.2102 27.6759 26.0631 27.4239 25.8862C27.2075 25.7368 26.8987 25.5471 26.7618 25.3226C26.578 25.0222 26.8915 24.7474 26.9783 24.471C27.4613 22.9412 26.66 21.1126 26.231 19.6471C25.6159 17.539 24.9768 15.5935 24.3608 13.4855C24.7842 13.713 25.3302 13.5249 25.6938 13.2145C26.0575 12.9041 26.3074 12.4868 26.6448 12.1485C27.5043 11.286 28.9527 11.039 30.0589 11.5662C30.5936 11.8202 31.0934 12.2421 31.6895 12.208C32.2967 12.1732 32.7463 11.677 33.2135 11.2984C34.6794 10.1077 36.9323 9.9405 38.5677 10.9005C38.9091 11.101 39.2402 11.3511 39.6357 11.4045C40.0312 11.4579 40.5056 11.2039 40.4952 10.8161C40.4872 10.5281 40.2302 10.3137 39.993 10.141C36.7302 7.77281 32.9739 5.96898 28.9614 5.28848C24.949 4.60798 20.669 5.10732 17.1157 7.04354C12.2111 9.71754 9.17829 14.7721 7.17523 19.8817C7.02243 20.2688 6.88475 20.7472 7.14896 21.077C7.41317 21.4068 7.93523 21.3867 8.29016 21.173C8.6451 20.9593 8.86872 20.5916 9.09075 20.244C9.8237 19.1013 10.6824 18.0074 11.818 17.2325C12.9536 16.4575 14.3901 16.0317 15.743 16.3205C16.2563 16.4297 16.7775 16.6394 17.2892 16.5334C18.1161 16.3639 18.5323 15.4968 19.0336 14.8349C19.7307 13.9217 20.7518 13.2931 21.8986 13.0712C22.1429 13.0248 22.4159 13.0031 22.6204 13.1417C22.8042 13.2656 22.8838 13.4878 22.9539 13.6953L25.9167 22.5588C26.11 23.1363 26.3018 23.7727 26.0679 24.3355C25.8339 24.8983 24.9537 25.2072 24.5749 24.7273C24.1635 24.2109 24.5574 23.1789 23.9208 22.9753C23.62 22.877 23.2929 23.0945 23.1448 23.3678C22.8639 23.8834 23.0533 24.55 23.456 24.9827C23.8587 25.4155 24.4309 25.6578 24.9991 25.8459C24.4173 27.0428 22.6371 27.0359 21.375 26.5427C20.1128 26.0496 18.8546 25.2413 17.5128 25.4589C16.6375 25.6021 15.9212 26.1827 15.4636 26.9298V26.905C15.4644 26.9143 15.4644 26.9236 15.4636 26.9329C15.3752 27.0773 15.2967 27.2273 15.2288 27.3819C14.9413 27.7033 14.6063 27.9814 14.2349 28.2072C13.4017 28.7011 12.3401 28.722 11.4782 28.434C10.5296 28.1174 9.85951 27.3796 9.23479 26.713C8.93955 26.3995 8.54005 25.832 7.97104 25.9652C7.56438 26.0612 7.37418 26.5342 7.49355 26.8764C7.6941 27.4377 8.32995 27.7914 8.82654 28.1282C10.259 29.0998 12.0607 30.1852 14.0311 29.3847C14.3283 29.2772 14.6176 29.1502 14.897 29.0046C14.8859 29.9916 15.162 30.9857 15.5217 31.9186C15.6785 32.3304 15.8619 32.7323 16.0708 33.1217C16.4488 33.9322 15.4398 34.228 14.71 34.4834L14.3455 34.6127C13.9994 34.7097 13.6638 34.8393 13.3436 34.9998L13.3316 35.0052C11.9526 35.7091 10.9123 36.911 10.4341 38.3528C9.43613 41.3047 10.9426 44.4393 13.7988 45.3536C14.3191 45.5202 14.8633 45.6051 15.4111 45.6052C17.7484 45.6052 19.9672 44.0639 20.7789 41.6631C21.4155 39.7896 21.0367 37.8426 19.9472 36.4367C19.4769 35.7926 20.5616 35.8174 20.5616 35.8174C21.0391 35.8282 21.5277 35.8243 22.0045 35.8622C23.0685 35.949 24.3465 36.3701 24.7516 37.4346C24.9601 37.9819 24.8853 38.5912 24.7588 39.1618C24.6322 39.7323 24.458 40.3021 24.4746 40.8859C24.4774 41.1018 24.5209 41.3154 24.6028 41.5161C23.9454 41.5255 23.312 41.7581 22.8123 42.1738C22.3126 42.5895 21.978 43.162 21.8664 43.7924C21.7548 44.4227 21.8732 45.0711 22.2011 45.6255C22.529 46.1799 23.0458 46.6053 23.6621 46.8282C24.2784 47.051 24.9554 47.0573 25.5759 46.8459C26.1965 46.6345 26.7215 46.2187 27.0602 45.6706C27.3989 45.1224 27.53 44.4762 27.4307 43.844C27.3315 43.2117 27.0082 42.633 26.5167 42.2081C26.9387 42.1851 27.3561 42.1105 27.7589 41.986C27.8226 41.9666 27.8983 41.9302 27.8983 41.8652C27.8953 41.8314 27.8804 41.7996 27.8561 41.7754C27.4971 41.3473 26.0814 41.4069 25.8665 40.8951C25.7145 40.5344 26.0328 39.1757 26.1586 38.249C26.309 37.1427 25.9565 36.0875 24.8853 35.4945C24.1149 35.0671 23.1345 34.9193 22.3132 34.6073C22.2702 34.5903 22.2137 34.5756 22.2002 34.5299C22.1135 34.2457 22.4533 34.1582 22.5543 34.1366C23.3501 33.9601 23.6462 34.1552 24.3911 34.406C24.898 34.5771 25.7607 34.9363 26.2645 35.119C27.1884 35.4535 27.9356 36.0024 27.977 37.0282C28.0057 37.8023 27.7001 38.5301 27.6682 39.2949C27.6547 39.6124 27.7144 39.9429 27.907 40.2015C28.2142 40.6211 28.7896 40.762 29.3188 40.7805C29.8843 40.7996 30.4484 40.7143 30.9812 40.529C31.0241 40.5178 31.063 40.4953 31.0934 40.4639C31.1731 40.3633 31.0529 40.2216 30.9303 40.1713C30.6191 40.042 30.2666 40.0622 29.9339 40.0018C28.9272 39.8183 28.8524 39.473 28.9185 38.986C29.1071 37.6126 29.6626 35.9931 28.3097 34.9022C26.9568 33.8115 24.7492 33.7224 23.7552 33.0752C23.4205 32.8377 23.1623 32.5122 23.0111 32.1369L21.2723 27.464C21.9797 28.0461 23.0111 28.1437 23.9057 27.9091C24.6115 27.7241 25.2044 27.354 25.8068 26.9669C26.4093 26.5799 26.734 26.6952 27.3364 27.0916C27.9508 27.4949 28.585 27.7597 29.345 27.7109C30.0756 27.6523 30.7603 27.3409 31.2749 26.833C31.5558 26.5613 31.7364 26.2082 31.9426 25.8831C32.1297 26.7375 32.1168 27.6219 31.9048 28.4707C31.6927 29.3196 31.2871 30.1111 30.7178 30.7867C30.3334 31.2373 29.8743 31.6344 29.6665 32.2089C29.572 32.4539 29.5575 32.7213 29.6252 32.9745C29.9554 34.1141 31.2964 34.0453 32.2601 34.6398C32.6294 34.8682 32.5959 35.558 32.611 35.983C32.6548 37.1969 32.7049 38.4743 33.1729 39.6007C33.4634 40.2975 33.9194 40.9942 34.252 41.6755C34.4852 42.1555 34.8378 42.5867 34.9914 43.1016C35.2882 44.0995 34.5425 44.5013 33.7435 44.8667C33.4435 45.0045 33.0933 45.2793 33.5843 45.445C34.0753 45.6106 34.6531 45.4798 35.1609 45.2058C35.6168 44.9595 36.0108 44.5949 36.2153 44.2187C36.4644 43.7542 36.2949 43.2169 36.08 42.7702C35.8142 42.2143 35.4259 41.7228 35.1346 41.1785C34.3948 39.8158 33.9431 38.3227 33.8064 36.7874C33.7522 36.1378 33.9783 34.8736 34.4772 34.8024C35.2906 34.6855 35.5357 34.8891 35.7505 35.1895C36.1437 35.7407 36.2193 36.182 36.4827 36.6659C37.1464 37.8874 38.6839 38.5943 40.0758 38.3171C40.7618 38.1801 41.3284 37.8867 42.0311 37.8224C42.8269 37.7489 43.2121 38.3156 43.4143 38.9458C43.4747 39.137 43.5431 39.4103 43.7851 39.4033C43.9928 39.4033 44.183 39.1463 44.2252 38.9698C44.4456 38.0756 43.9602 37.3208 43.4548 36.6263C43.3662 36.4957 43.2418 36.3917 43.0958 36.3261C42.9497 36.2605 42.7877 36.2357 42.628 36.2548C42.3659 36.2975 42.1158 36.3927 41.8934 36.5342C41.1406 36.9624 40.3583 37.3982 39.4686 37.2751C38.6672 37.1644 38.2327 37.1443 37.4791 35.9691C37.1934 35.5262 36.9658 34.9464 37.269 34.5152C37.4019 34.3255 37.6104 34.2009 37.8006 34.0646C39.0468 33.1688 39.6214 31.595 39.6492 30.0884C39.6771 28.5819 39.0803 26.9569 38.641 25.5115C38.6911 25.5262 39.1463 25.76 39.198 25.7739C40.1124 26.0294 40.8645 26.1796 41.7144 25.7732ZM22.8703 11.8821C22.166 11.8401 21.4601 11.9326 20.7924 12.1546C20.1747 12.3583 19.5995 12.6679 19.0942 13.0689C18.5348 13.5262 18.0436 14.057 17.6346 14.6459C17.4754 14.8681 17.3275 15.2436 17.0927 15.3868C16.8046 15.5626 16.4799 15.3582 16.195 15.2862C15.899 15.2111 15.5971 15.1593 15.2925 15.1314C14.7103 15.0772 14.1229 15.1127 13.5521 15.2366C12.3974 15.4883 11.3469 16.0836 10.4715 16.8485C10.4014 16.9198 10.3169 16.9762 10.2232 17.0141C10.176 17.0317 10.1242 17.0341 10.0755 17.0212C10.0267 17.0082 9.9834 16.9806 9.95182 16.9422C9.83723 16.768 10.1739 16.2245 10.2526 16.0534C10.4023 15.7308 10.5614 15.4129 10.7301 15.0996C12.4549 11.898 15.1393 9.28213 18.4273 7.59862C19.9664 6.81084 21.6479 6.32077 23.3788 6.15555C25.8695 5.91699 28.3839 6.1131 30.8038 6.73464C31.7498 6.97778 32.6782 7.28193 33.5827 7.64507C34.0427 7.83036 34.4961 8.03035 34.9428 8.24505C35.1019 8.32248 36.548 8.95653 35.7641 9.12839C35.2479 9.17742 34.74 9.28873 34.252 9.45974C33.8026 9.60971 33.3784 9.82336 32.9931 10.0938C32.736 10.2618 32.2522 10.5583 31.9768 10.7131C31.6378 10.9005 31.2868 10.7387 30.9597 10.6024C29.0299 9.80038 26.5788 10.2509 25.3198 11.9557C25.2156 12.0966 25.1025 12.2568 24.9283 12.2917C24.8207 12.3051 24.7114 12.2926 24.6099 12.2553C24.033 12.0935 23.4759 11.9201 22.8703 11.8821ZM24.4261 42.1331L24.2932 43.4492L23.1616 42.6835C23.5112 42.3724 23.9547 42.1794 24.4261 42.1331ZM22.4994 44.7273C22.3919 44.2578 22.4505 43.7668 22.6657 43.3338L23.7759 44.0856C23.7759 44.1057 23.768 44.1266 23.7648 44.1474L22.4994 44.7273ZM22.8289 45.469L24.0529 44.9085C24.0806 44.9326 24.1099 44.9551 24.1404 44.9758L24.0067 46.3128C23.5272 46.1695 23.1119 45.8719 22.8289 45.469ZM24.8829 46.398L25.0198 45.0354C25.0492 45.0207 25.0779 45.0052 25.1057 44.9882L26.2342 45.7515C25.8755 46.1137 25.397 46.3412 24.8829 46.3941V46.398ZM26.7626 43.6698C26.9011 44.133 26.8747 44.6281 26.6878 45.0749L25.5052 44.2682C25.5052 44.2589 25.5052 44.2504 25.5052 44.2419L26.7626 43.6698ZM25.3015 42.2221C25.7297 42.3528 26.1069 42.6071 26.383 42.9513L25.1734 43.5057L25.3015 42.2221ZM17.1189 35.5564C17.5652 35.6994 17.9837 35.914 18.3572 36.1913L15.9475 38.6787L15.9188 35.3497C16.3269 35.3599 16.7312 35.4283 17.1189 35.5526V35.5564ZM15.8058 34.807V35.2104V34.807ZM13.1207 36.2385C13.6635 35.8447 14.2883 35.5713 14.9511 35.4372L14.9782 38.6175L12.8295 36.4669C12.9239 36.3848 13.021 36.3074 13.1207 36.2346V36.2385ZM11.3469 38.6531C11.5281 38.109 11.804 37.5991 12.1626 37.1458L14.3026 39.2864L11.1845 39.2524C11.2261 39.0483 11.2803 38.8469 11.3469 38.6493V38.6531ZM11.5387 42.2283C11.2341 41.592 11.0786 40.8979 11.0835 40.1961L14.4116 40.2317C14.4116 40.2394 14.4172 40.2464 14.4195 40.2542L11.9048 42.8538C11.7656 42.6552 11.6431 42.4461 11.5387 42.2283ZM14.0988 44.4734C13.5183 44.2862 12.9866 43.9785 12.5406 43.5714L14.9989 41.0314L15.0299 44.6592C14.7144 44.6321 14.4032 44.5703 14.102 44.4749L14.0988 44.4734ZM18.097 43.7914C17.48 44.2399 16.7575 44.5313 15.9952 44.6391L15.9634 40.9532L18.4877 43.4778C18.3643 43.5894 18.2349 43.6946 18.1002 43.7929L18.097 43.7914ZM19.8709 41.3767C19.702 41.8757 19.4539 42.3459 19.1356 42.7702L16.655 40.2929C16.6605 40.2805 16.6645 40.2673 16.6693 40.2549L20.1064 40.292C20.0698 40.6613 19.9919 41.0255 19.874 41.3782L19.8709 41.3767ZM20.1096 39.3491L16.6629 39.3135L19.0559 36.84C19.3049 37.1323 19.5143 37.4544 19.6791 37.7985C19.9141 38.2878 20.0606 38.8129 20.112 39.3507L20.1096 39.3491ZM21.7251 31.0298C21.8114 31.3097 21.8753 31.5958 21.9161 31.8853C21.9655 32.2515 21.9607 32.6486 21.8023 32.9908C21.5684 33.4994 20.9373 33.8796 20.4311 34.0924C19.7945 34.3588 18.9493 34.5275 18.3134 34.2024C17.8447 33.9632 17.5176 33.5273 17.2303 33.1085C16.6355 32.2498 16.2365 31.277 16.0605 30.2557C15.9427 29.5473 15.9053 28.7785 16.1321 28.0879C16.5396 26.8493 17.8829 26.2021 19.1331 26.7339C19.8589 27.0436 20.2361 27.697 20.5505 28.3682C20.9556 29.2322 21.4418 30.1078 21.7251 31.0298ZM38.181 31.9C37.9985 32.3488 37.6985 32.7433 37.3106 33.0442C36.9227 33.345 36.4605 33.5418 35.9702 33.6148L35.928 33.621H35.8986C34.4177 33.817 32.9112 33.7169 31.4714 33.3268C31.4313 33.3121 31.3922 33.2947 31.3545 33.2749C31.1499 33.165 30.7974 33.0078 30.7282 32.788C30.6589 32.5681 30.8698 32.2863 30.9828 32.0749C30.9974 32.0482 31.0136 32.0224 31.0314 31.9975L31.0353 31.9921C31.2767 31.6933 31.5192 31.3947 31.7627 31.0964C32.2486 30.5867 32.5831 29.9581 32.7304 29.2779C32.9788 28.1292 33.0709 26.9537 33.0042 25.7817C32.9735 25.2331 32.9469 24.6844 32.9246 24.1358C32.9041 23.6546 33.0061 23.1759 33.2214 22.7423C33.2443 22.6944 33.2709 22.6484 33.301 22.6045C33.3867 22.4809 33.4974 22.3757 33.6264 22.2954C33.7554 22.2151 33.8999 22.1612 34.0511 22.1372C34.2023 22.1132 34.3569 22.1196 34.5055 22.1558C34.654 22.1921 34.7934 22.2576 34.915 22.3482C34.9574 22.3801 34.9975 22.4147 35.0351 22.452L35.0574 22.4736C35.16 22.5758 35.2604 22.6803 35.359 22.7833C37.0857 24.633 38.182 26.957 38.4977 29.4366C38.4977 29.452 38.4977 29.4683 38.5041 29.4838C38.6043 30.3035 38.4924 31.1346 38.1786 31.9016L38.181 31.9Z" fill="#396EAC"/>
</svg>
